<svg width="24" height="23" viewBox="0 0 24 23" fill="none" xmlns="http://www.w3.org/2000/svg">
	<path d="M20.6875 6.5H17.5V3.3125C17.5 2.9644 17.3617 2.63056 17.1156 2.38442C16.8694 2.13828 16.5356 2 16.1875 2H4.1875C3.8394 2 3.50556 2.13828 3.25942 2.38442C3.01328 2.63056 2.875 2.9644 2.875 3.3125V15.3125C2.87512 15.4187 2.9053 15.5227 2.96204 15.6124C3.01878 15.7022 3.09976 15.774 3.19563 15.8197C3.27098 15.8563 3.35371 15.8752 3.4375 15.875C3.5661 15.8751 3.69084 15.8311 3.79094 15.7503L7.34781 12.875H7.375V16.0625C7.375 16.4106 7.51328 16.7444 7.75942 16.9906C8.00556 17.2367 8.3394 17.375 8.6875 17.375H17.5272L21.0841 20.2503C21.1842 20.3311 21.3089 20.3751 21.4375 20.375C21.5213 20.3752 21.604 20.3563 21.6794 20.3197C21.7752 20.274 21.8562 20.2022 21.913 20.1124C21.9697 20.0227 21.9999 19.9187 22 19.8125V7.8125C22 7.4644 21.8617 7.13056 21.6156 6.88442C21.3694 6.63828 21.0356 6.5 20.6875 6.5ZM7.14813 11.75C7.01952 11.7499 6.89478 11.7939 6.79469 11.8747L4 14.1341V3.3125C4 3.26277 4.01975 3.21508 4.05492 3.17992C4.09008 3.14475 4.13777 3.125 4.1875 3.125H16.1875C16.2372 3.125 16.2849 3.14475 16.3201 3.17992C16.3552 3.21508 16.375 3.26277 16.375 3.3125V11.5625C16.375 11.6122 16.3552 11.6599 16.3201 11.6951C16.2849 11.7302 16.2372 11.75 16.1875 11.75H7.14813ZM20.875 18.6341L18.0803 16.3747C17.9802 16.2939 17.8555 16.2499 17.7269 16.25H8.6875C8.63777 16.25 8.59008 16.2302 8.55492 16.1951C8.51975 16.1599 8.5 16.1122 8.5 16.0625V12.875H16.1875C16.5356 12.875 16.8694 12.7367 17.1156 12.4906C17.3617 12.2444 17.5 11.9106 17.5 11.5625V7.625H20.6875C20.7372 7.625 20.7849 7.64475 20.8201 7.67992C20.8552 7.71508 20.875 7.76277 20.875 7.8125V18.6341Z" fill="#161616"/>
</svg>
