<svg width="24" height="25" viewBox="0 0 24 25" fill="none" xmlns="http://www.w3.org/2000/svg">
	<path d="M22.247 9.55308C22.1696 9.3072 22.0204 9.0901 21.8186 8.92971C21.6167 8.76932 21.3715 8.67298 21.1145 8.65308L15.5401 8.17121C15.5064 8.16789 15.4743 8.15551 15.447 8.13537C15.4198 8.11523 15.3985 8.08809 15.3855 8.05683L13.2077 2.86683C13.1068 2.63007 12.9386 2.42819 12.7239 2.28628C12.5092 2.14438 12.2575 2.06873 12.0001 2.06873C11.7428 2.06873 11.4911 2.14438 11.2764 2.28628C11.0617 2.42819 10.8935 2.63007 10.7927 2.86683L8.61484 8.05683C8.60179 8.08809 8.58052 8.11523 8.55328 8.13537C8.52604 8.15551 8.49386 8.16789 8.46015 8.17121L2.88578 8.65308C2.62876 8.67298 2.38357 8.76932 2.18175 8.92971C1.97993 9.0901 1.8307 9.3072 1.75328 9.55308C1.67127 9.79932 1.66411 10.0643 1.73269 10.3146C1.80128 10.5649 1.94253 10.7893 2.13859 10.9593L6.36765 14.6484C6.39355 14.6714 6.41278 14.7009 6.42334 14.7339C6.43389 14.7669 6.43538 14.8021 6.42765 14.8359L5.1564 20.3212C5.09714 20.5738 5.11405 20.8382 5.20499 21.0811C5.29592 21.3241 5.45681 21.5346 5.66734 21.6862C5.8746 21.8391 6.12294 21.9264 6.3803 21.9368C6.63765 21.9471 6.89221 21.8801 7.11109 21.7443L11.9026 18.8381C11.9308 18.8207 11.9633 18.8114 11.9964 18.8114C12.0295 18.8114 12.062 18.8207 12.0902 18.8381L16.8817 21.7443C17.1029 21.8797 17.3592 21.9466 17.6183 21.9365C17.8774 21.9263 18.1277 21.8397 18.3376 21.6874C18.5475 21.5352 18.7076 21.3242 18.7977 21.081C18.8879 20.8379 18.9039 20.5735 18.8439 20.3212L17.5764 14.834C17.5687 14.8003 17.5702 14.765 17.5807 14.7321C17.5913 14.6991 17.6105 14.6695 17.6364 14.6465L21.8655 10.9575C22.0605 10.7871 22.2008 10.5629 22.2687 10.313C22.3366 10.0631 22.3291 9.7987 22.247 9.55308ZM21.122 10.1081L16.893 13.7971C16.7128 13.9539 16.5788 14.1569 16.5054 14.3843C16.4321 14.6116 16.4221 14.8546 16.4767 15.0871L17.7442 20.5743C17.7536 20.6112 17.7515 20.65 17.7383 20.6857C17.7251 20.7214 17.7013 20.7522 17.6701 20.774C17.642 20.7966 17.6073 20.8096 17.5712 20.8111C17.5351 20.8126 17.4995 20.8026 17.4695 20.7825L12.678 17.8762C12.4737 17.752 12.2392 17.6864 12.0001 17.6864C11.7611 17.6864 11.5266 17.752 11.3223 17.8762L6.53078 20.7825C6.50079 20.8026 6.46516 20.8126 6.42908 20.8111C6.393 20.8096 6.35834 20.7966 6.33015 20.774C6.29901 20.7522 6.27524 20.7214 6.26201 20.6857C6.24879 20.65 6.24672 20.6112 6.25609 20.5743L7.52359 15.0871C7.57816 14.8546 7.56823 14.6116 7.49488 14.3843C7.42153 14.1569 7.28754 13.9539 7.10734 13.7971L2.87828 10.1081C2.84935 10.0835 2.82858 10.0507 2.8187 10.014C2.80883 9.97736 2.81031 9.93857 2.82296 9.90277C2.83243 9.86712 2.85296 9.83539 2.8816 9.81215C2.91023 9.7889 2.9455 9.77533 2.98234 9.7734L8.55765 9.29152C8.79633 9.27118 9.0249 9.18591 9.21858 9.04495C9.41226 8.90399 9.56367 8.7127 9.6564 8.49183L11.8342 3.30183C11.8494 3.26962 11.8734 3.24238 11.9034 3.22331C11.9334 3.20423 11.9683 3.1941 12.0039 3.1941C12.0395 3.1941 12.0744 3.20423 12.1044 3.22331C12.1344 3.24238 12.1584 3.26962 12.1736 3.30183L14.3439 8.49183C14.4363 8.71218 14.5872 8.9031 14.7801 9.04403C14.9731 9.18495 15.2009 9.27053 15.4389 9.29152L21.0142 9.7734C21.051 9.77533 21.0863 9.7889 21.115 9.81215C21.1436 9.83539 21.1641 9.86712 21.1736 9.90277C21.1867 9.9382 21.1888 9.97676 21.1796 10.0134C21.1704 10.05 21.1503 10.083 21.122 10.1081Z" fill="#161616"/>
</svg>
