<svg width="24" height="24" viewBox="0 0 24 24" fill="none" xmlns="http://www.w3.org/2000/svg">
	<path d="M19.5 3.9375H4.5C4.1519 3.9375 3.81806 4.07578 3.57192 4.32192C3.32578 4.56806 3.1875 4.9019 3.1875 5.25V10.7597C3.1875 19.0322 10.1888 21.7772 11.5922 22.2431C11.8566 22.3331 12.1434 22.3331 12.4078 22.2431C13.8141 21.7744 20.8125 19.0322 20.8125 10.7597V5.25C20.8125 4.9019 20.6742 4.56806 20.4281 4.32192C20.1819 4.07578 19.8481 3.9375 19.5 3.9375ZM19.6875 10.7616C19.6875 18.2616 13.3275 20.7544 12.0525 21.1772C12.0187 21.1903 11.9813 21.1903 11.9475 21.1772C10.6725 20.7544 4.3125 18.2616 4.3125 10.7616V5.25C4.3125 5.20027 4.33225 5.15258 4.36742 5.11742C4.40258 5.08225 4.45027 5.0625 4.5 5.0625H19.5C19.5497 5.0625 19.5974 5.08225 19.6326 5.11742C19.6677 5.15258 19.6875 5.20027 19.6875 5.25V10.7616ZM16.1475 9.35531C16.2528 9.46078 16.312 9.60375 16.312 9.75281C16.312 9.90188 16.2528 10.0448 16.1475 10.1503L10.8975 15.4003C10.792 15.5057 10.6491 15.5648 10.5 15.5648C10.3509 15.5648 10.208 15.5057 10.1025 15.4003L7.8525 13.1503C7.75314 13.0437 7.69905 12.9026 7.70162 12.7569C7.70419 12.6112 7.76322 12.4722 7.86628 12.3691C7.96934 12.266 8.10838 12.207 8.25411 12.2044C8.39983 12.2019 8.54087 12.256 8.6475 12.3553L10.5 14.2041L15.3525 9.3525C15.458 9.24716 15.6009 9.18799 15.75 9.18799C15.8991 9.18799 16.042 9.24716 16.1475 9.3525V9.35531Z" fill="#161616"/>
</svg>
