<svg width="24" height="24" viewBox="0 0 24 24" fill="none" xmlns="http://www.w3.org/2000/svg">
<path d="M17.0625 9.75V12.75C17.0625 12.8992 17.0032 13.0423 16.8977 13.1477C16.7923 13.2532 16.6492 13.3125 16.5 13.3125H8.8575L10.1475 14.6025C10.2028 14.654 10.2471 14.7161 10.2778 14.7851C10.3086 14.8541 10.3251 14.9286 10.3264 15.0041C10.3278 15.0796 10.3139 15.1547 10.2856 15.2247C10.2573 15.2947 10.2152 15.3584 10.1618 15.4118C10.1084 15.4652 10.0447 15.5073 9.9747 15.5356C9.90466 15.5639 9.82964 15.5778 9.75411 15.5764C9.67858 15.5751 9.6041 15.5586 9.5351 15.5278C9.4661 15.4971 9.404 15.4528 9.3525 15.3975L7.1025 13.1475C6.99716 13.042 6.93799 12.8991 6.93799 12.75C6.93799 12.6009 6.99716 12.458 7.1025 12.3525L9.3525 10.1025C9.45913 10.0031 9.60017 9.94905 9.74589 9.95162C9.89162 9.95419 10.0307 10.0132 10.1337 10.1163C10.2368 10.2193 10.2958 10.3584 10.2984 10.5041C10.301 10.6498 10.2469 10.7909 10.1475 10.8975L8.8575 12.1875H15.9375V9.75C15.9375 9.60082 15.9968 9.45774 16.1023 9.35225C16.2077 9.24676 16.3508 9.1875 16.5 9.1875C16.6492 9.1875 16.7923 9.24676 16.8977 9.35225C17.0032 9.45774 17.0625 9.60082 17.0625 9.75ZM21.5625 5.25V18.75C21.5625 19.0981 21.4242 19.4319 21.1781 19.6781C20.9319 19.9242 20.5981 20.0625 20.25 20.0625H3.75C3.4019 20.0625 3.06806 19.9242 2.82192 19.6781C2.57578 19.4319 2.4375 19.0981 2.4375 18.75V5.25C2.4375 4.9019 2.57578 4.56806 2.82192 4.32192C3.06806 4.07578 3.4019 3.9375 3.75 3.9375H20.25C20.5981 3.9375 20.9319 4.07578 21.1781 4.32192C21.4242 4.56806 21.5625 4.9019 21.5625 5.25ZM20.4375 5.25C20.4375 5.20027 20.4177 5.15258 20.3826 5.11742C20.3474 5.08225 20.2997 5.0625 20.25 5.0625H3.75C3.70027 5.0625 3.65258 5.08225 3.61742 5.11742C3.58225 5.15258 3.5625 5.20027 3.5625 5.25V18.75C3.5625 18.7997 3.58225 18.8474 3.61742 18.8826C3.65258 18.9177 3.70027 18.9375 3.75 18.9375H20.25C20.2997 18.9375 20.3474 18.9177 20.3826 18.8826C20.4177 18.8474 20.4375 18.7997 20.4375 18.75V5.25Z" fill="black"/>
</svg>
