<svg width="24" height="25" viewBox="0 0 24 25" fill="none" xmlns="http://www.w3.org/2000/svg">
	<path d="M20.25 5.0625H16.3125V4.125C16.3125 3.57799 16.0952 3.05339 15.7084 2.66659C15.3216 2.2798 14.797 2.0625 14.25 2.0625H9.75C9.20299 2.0625 8.67839 2.2798 8.29159 2.66659C7.9048 3.05339 7.6875 3.57799 7.6875 4.125V5.0625H3.75C3.60082 5.0625 3.45774 5.12176 3.35225 5.22725C3.24676 5.33274 3.1875 5.47582 3.1875 5.625C3.1875 5.77418 3.24676 5.91726 3.35225 6.02275C3.45774 6.12824 3.60082 6.1875 3.75 6.1875H4.6875V19.875C4.6875 20.2231 4.82578 20.5569 5.07192 20.8031C5.31806 21.0492 5.6519 21.1875 6 21.1875H18C18.3481 21.1875 18.6819 21.0492 18.9281 20.8031C19.1742 20.5569 19.3125 20.2231 19.3125 19.875V6.1875H20.25C20.3992 6.1875 20.5423 6.12824 20.6477 6.02275C20.7532 5.91726 20.8125 5.77418 20.8125 5.625C20.8125 5.47582 20.7532 5.33274 20.6477 5.22725C20.5423 5.12176 20.3992 5.0625 20.25 5.0625ZM8.8125 4.125C8.8125 3.87636 8.91127 3.6379 9.08709 3.46209C9.2629 3.28627 9.50136 3.1875 9.75 3.1875H14.25C14.4986 3.1875 14.7371 3.28627 14.9129 3.46209C15.0887 3.6379 15.1875 3.87636 15.1875 4.125V5.0625H8.8125V4.125ZM18.1875 19.875C18.1875 19.9247 18.1677 19.9724 18.1326 20.0076C18.0974 20.0427 18.0497 20.0625 18 20.0625H6C5.95027 20.0625 5.90258 20.0427 5.86742 20.0076C5.83225 19.9724 5.8125 19.9247 5.8125 19.875V6.1875H18.1875V19.875ZM10.3125 10.125V16.125C10.3125 16.2742 10.2532 16.4173 10.1477 16.5227C10.0423 16.6282 9.89918 16.6875 9.75 16.6875C9.60082 16.6875 9.45774 16.6282 9.35225 16.5227C9.24676 16.4173 9.1875 16.2742 9.1875 16.125V10.125C9.1875 9.97582 9.24676 9.83274 9.35225 9.72725C9.45774 9.62176 9.60082 9.5625 9.75 9.5625C9.89918 9.5625 10.0423 9.62176 10.1477 9.72725C10.2532 9.83274 10.3125 9.97582 10.3125 10.125ZM14.8125 10.125V16.125C14.8125 16.2742 14.7532 16.4173 14.6477 16.5227C14.5423 16.6282 14.3992 16.6875 14.25 16.6875C14.1008 16.6875 13.9577 16.6282 13.8523 16.5227C13.7468 16.4173 13.6875 16.2742 13.6875 16.125V10.125C13.6875 9.97582 13.7468 9.83274 13.8523 9.72725C13.9577 9.62176 14.1008 9.5625 14.25 9.5625C14.3992 9.5625 14.5423 9.62176 14.6477 9.72725C14.7532 9.83274 14.8125 9.97582 14.8125 10.125Z" fill="#C60808"/>
</svg>
