<svg width="24" height="25" viewBox="0 0 24 25" fill="none" xmlns="http://www.w3.org/2000/svg">
	<path d="M10.3125 20.625C10.3125 20.7742 10.2532 20.9173 10.1477 21.0227C10.0423 21.1282 9.89918 21.1875 9.75 21.1875H4.5C4.1519 21.1875 3.81806 21.0492 3.57192 20.8031C3.32578 20.5569 3.1875 20.2231 3.1875 19.875V4.875C3.1875 4.5269 3.32578 4.19306 3.57192 3.94692C3.81806 3.70078 4.1519 3.5625 4.5 3.5625H9.75C9.89918 3.5625 10.0423 3.62176 10.1477 3.72725C10.2532 3.83274 10.3125 3.97582 10.3125 4.125C10.3125 4.27418 10.2532 4.41726 10.1477 4.52275C10.0423 4.62824 9.89918 4.6875 9.75 4.6875H4.5C4.45027 4.6875 4.40258 4.70725 4.36742 4.74242C4.33225 4.77758 4.3125 4.82527 4.3125 4.875V19.875C4.3125 19.9247 4.33225 19.9724 4.36742 20.0076C4.40258 20.0427 4.45027 20.0625 4.5 20.0625H9.75C9.89918 20.0625 10.0423 20.1218 10.1477 20.2273C10.2532 20.3327 10.3125 20.4758 10.3125 20.625ZM20.6475 11.9775L16.8975 8.2275C16.7909 8.12814 16.6498 8.07405 16.5041 8.07662C16.3584 8.07919 16.2193 8.13822 16.1163 8.24128C16.0132 8.34434 15.9542 8.48338 15.9516 8.62911C15.949 8.77483 16.0031 8.91587 16.1025 9.0225L18.8916 11.8125H9.75C9.60082 11.8125 9.45774 11.8718 9.35225 11.9773C9.24676 12.0827 9.1875 12.2258 9.1875 12.375C9.1875 12.5242 9.24676 12.6673 9.35225 12.7727C9.45774 12.8782 9.60082 12.9375 9.75 12.9375H18.8916L16.1025 15.7275C16.0472 15.779 16.0029 15.8411 15.9722 15.9101C15.9414 15.9791 15.9249 16.0536 15.9236 16.1291C15.9222 16.2046 15.9361 16.2797 15.9644 16.3497C15.9927 16.4197 16.0348 16.4834 16.0882 16.5368C16.1416 16.5902 16.2053 16.6323 16.2753 16.6606C16.3453 16.6889 16.4204 16.7028 16.4959 16.7014C16.5714 16.7001 16.6459 16.6836 16.7149 16.6528C16.7839 16.6221 16.846 16.5778 16.8975 16.5225L20.6475 12.7725C20.7528 12.667 20.812 12.5241 20.812 12.375C20.812 12.2259 20.7528 12.083 20.6475 11.9775Z" fill="#161616"/>
</svg>
