<svg width="24" height="25" viewBox="0 0 24 25" fill="none" xmlns="http://www.w3.org/2000/svg">
	<path d="M22.1473 10.4775L14.6473 2.97749C14.5686 2.89893 14.4685 2.84543 14.3594 2.82377C14.2504 2.80211 14.1373 2.81325 14.0346 2.85578C13.9319 2.89831 13.8441 2.97033 13.7823 3.06274C13.7204 3.15516 13.6874 3.26381 13.6873 3.37499V7.33124C8.5798 7.66781 2.40074 12.4875 1.69387 18.6431C1.67091 18.8391 1.71039 19.0374 1.80669 19.2096C1.90299 19.3819 2.0512 19.5194 2.23019 19.6025C2.40919 19.6856 2.60985 19.7101 2.80359 19.6725C2.99732 19.6349 3.17426 19.5371 3.30918 19.3931C4.3648 18.2672 8.15605 14.6812 13.6873 14.4497V18.375C13.6874 18.4862 13.7204 18.5948 13.7823 18.6872C13.8441 18.7797 13.9319 18.8517 14.0346 18.8942C14.1373 18.9367 14.2504 18.9479 14.3594 18.9262C14.4685 18.9046 14.5686 18.8511 14.6473 18.7725L22.1473 11.2725C22.2526 11.167 22.3118 11.0241 22.3118 10.875C22.3118 10.7259 22.2526 10.583 22.1473 10.4775ZM14.8123 17.0175V13.875C14.8123 13.7258 14.753 13.5827 14.6476 13.4772C14.5421 13.3718 14.399 13.3125 14.2498 13.3125C11.6501 13.3125 9.11605 13.9922 6.7198 15.3328C5.32314 16.1174 4.03663 17.0836 2.89387 18.2062C3.33449 15.7162 4.78387 13.3312 7.01887 11.4309C9.23137 9.55687 11.9332 8.43749 14.2498 8.43749C14.399 8.43749 14.5421 8.37823 14.6476 8.27274C14.753 8.16725 14.8123 8.02418 14.8123 7.87499V4.73343L20.9539 10.875L14.8123 17.0175Z" fill="#161616"/>
</svg>
