<svg width="16" height="16" viewBox="0 0 16 16" fill="none" xmlns="http://www.w3.org/2000/svg">
	<path opacity="0.2" d="M8.61812 12.4456L9.5 14.5H6.5L7.38062 12.4456C4.91187 12.0113 3 9.05188 3 6.5C3 5.17392 3.52678 3.90215 4.46447 2.96447C5.40215 2.02678 6.67392 1.5 8 1.5C9.32608 1.5 10.5979 2.02678 11.5355 2.96447C12.4732 3.90215 13 5.17392 13 6.5C13 9.05188 11.0881 12.0113 8.61812 12.4456Z" fill="#6A4F83"/>
	<path d="M8 1C6.54182 1.00165 5.14383 1.58165 4.11274 2.61274C3.08165 3.64383 2.50165 5.04182 2.5 6.5C2.5 7.96438 3.0875 9.58875 4.07062 10.8438C4.82562 11.8069 5.72688 12.4688 6.69 12.7869L6.04063 14.3031C6.00806 14.3792 5.99486 14.4621 6.00221 14.5445C6.00957 14.6269 6.03725 14.7061 6.08277 14.7752C6.1283 14.8442 6.19024 14.9009 6.26306 14.9402C6.33587 14.9794 6.41729 15 6.5 15H9.5C9.58271 15 9.66413 14.9794 9.73694 14.9402C9.80976 14.9009 9.8717 14.8442 9.91723 14.7752C9.96275 14.7061 9.99043 14.6269 9.99778 14.5445C10.0051 14.4621 9.99194 14.3792 9.95938 14.3031L9.3125 12.7869C10.275 12.47 11.1769 11.8069 11.9319 10.8438C12.9125 9.58875 13.5 7.96438 13.5 6.5C13.4983 5.04182 12.9184 3.64383 11.8873 2.61274C10.8562 1.58165 9.45818 1.00165 8 1ZM8.74187 14H7.25812L7.69187 12.9881C7.79437 12.9956 7.89687 13 8 13C8.10313 13 8.20562 12.9956 8.30812 12.9881L8.74187 14ZM11.1419 10.2269C10.2463 11.3706 9.13062 12 8 12C6.86938 12 5.75375 11.3706 4.85813 10.2269C4.0075 9.14188 3.5 7.75 3.5 6.5C3.5 5.30653 3.97411 4.16193 4.81802 3.31802C5.66193 2.47411 6.80653 2 8 2C9.19347 2 10.3381 2.47411 11.182 3.31802C12.0259 4.16193 12.5 5.30653 12.5 6.5C12.5 7.75 11.9925 9.14188 11.1419 10.2269ZM11.0794 6.49312C11.0531 6.4974 11.0266 6.49969 11 6.5C10.8818 6.49985 10.7675 6.45783 10.6773 6.3814C10.5872 6.30497 10.527 6.19907 10.5075 6.0825C10.4151 5.56221 10.1651 5.08284 9.79145 4.70918C9.41778 4.33551 8.93842 4.08557 8.41813 3.99312C8.35288 3.98283 8.29032 3.95971 8.23407 3.9251C8.17781 3.89049 8.12896 3.84508 8.09036 3.79149C8.05175 3.73789 8.02415 3.67718 8.00914 3.61286C7.99413 3.54854 7.99201 3.48188 8.00291 3.41673C8.01381 3.35159 8.0375 3.28925 8.07263 3.23331C8.10776 3.17738 8.15363 3.12896 8.20757 3.09085C8.26152 3.05274 8.32249 3.0257 8.38695 3.01128C8.45141 2.99687 8.51808 2.99537 8.58313 3.00688C9.30799 3.13549 9.97587 3.48363 10.4964 4.00419C11.017 4.52475 11.3651 5.19263 11.4937 5.9175C11.5046 5.9823 11.5025 6.0486 11.4877 6.11261C11.4729 6.17662 11.4456 6.23708 11.4074 6.29054C11.3692 6.344 11.3209 6.38941 11.2651 6.42417C11.2094 6.45893 11.1473 6.48236 11.0825 6.49312H11.0794Z" fill="#6A4F83"/>
</svg>