<svg width="24" height="24" viewBox="0 0 24 24" fill="none" xmlns="http://www.w3.org/2000/svg">
<path d="M21.8818 0.147705H1.88184C1.41771 0.147705 0.972588 0.33208 0.644399 0.660268C0.316211 0.988457 0.131836 1.43358 0.131836 1.89771V21.8977C0.131836 22.3618 0.316211 22.807 0.644399 23.1351C0.972588 23.4633 1.41771 23.6477 1.88184 23.6477H21.8818C22.346 23.6477 22.7911 23.4633 23.1193 23.1351C23.4475 22.807 23.6318 22.3618 23.6318 21.8977V1.89771C23.6318 1.43358 23.4475 0.988457 23.1193 0.660268C22.7911 0.33208 22.346 0.147705 21.8818 0.147705ZM19.6318 8.64771H22.1318V15.1477H19.6318V8.64771ZM22.1318 1.89771V7.14771H19.6318V1.64771H21.8818C21.9481 1.64771 22.0117 1.67404 22.0586 1.72093C22.1055 1.76781 22.1318 1.8314 22.1318 1.89771ZM1.63184 21.8977V1.89771C1.63184 1.8314 1.65817 1.76781 1.70506 1.72093C1.75194 1.67404 1.81553 1.64771 1.88184 1.64771H18.1318V22.1477H1.88184C1.81553 22.1477 1.75194 22.1214 1.70506 22.0745C1.65817 22.0276 1.63184 21.964 1.63184 21.8977ZM21.8818 22.1477H19.6318V16.6477H22.1318V21.8977C22.1318 21.964 22.1055 22.0276 22.0586 22.0745C22.0117 22.1214 21.9481 22.1477 21.8818 22.1477ZM14.6081 16.7115C14.4404 16.0898 14.148 15.5087 13.7487 15.0035C13.3495 14.4983 12.8517 14.0796 12.2856 13.7727C12.877 13.279 13.302 12.6152 13.5028 11.8714C13.7036 11.1276 13.6705 10.3401 13.4079 9.61582C13.1454 8.89156 12.6661 8.26573 12.0353 7.82346C11.4045 7.38118 10.6528 7.1439 9.88246 7.1439C9.11207 7.1439 8.36038 7.38118 7.72959 7.82346C7.09881 8.26573 6.61955 8.89156 6.35698 9.61582C6.09442 10.3401 6.06129 11.1276 6.2621 11.8714C6.46291 12.6152 6.88792 13.279 7.47934 13.7727C6.91313 14.0793 6.41517 14.4978 6.0157 15.0027C5.61624 15.5077 5.3236 16.0886 5.15559 16.7102C5.10586 16.9028 5.13468 17.1073 5.23572 17.2787C5.33675 17.45 5.50172 17.5742 5.69434 17.624C5.88695 17.6737 6.09143 17.6449 6.26279 17.5438C6.43415 17.4428 6.55836 17.2778 6.60809 17.0852C6.96559 15.6952 8.37309 14.6477 9.88184 14.6477C11.3906 14.6477 12.7993 15.6952 13.1556 17.084C13.2053 17.2766 13.3295 17.4415 13.5009 17.5426C13.6722 17.6436 13.8767 17.6724 14.0693 17.6227C14.2619 17.573 14.4269 17.4488 14.528 17.2774C14.629 17.106 14.6578 16.9016 14.6081 16.709V16.7115ZM7.63184 10.8977C7.63184 10.4527 7.7638 10.0177 8.01103 9.64767C8.25826 9.27766 8.60967 8.98927 9.0208 8.81898C9.43193 8.64868 9.88433 8.60412 10.3208 8.69094C10.7572 8.77776 11.1582 8.99205 11.4728 9.30672C11.7875 9.62138 12.0018 10.0223 12.0886 10.4588C12.1754 10.8952 12.1309 11.3476 11.9606 11.7587C11.7903 12.1699 11.5019 12.5213 11.1319 12.7685C10.7619 13.0157 10.3268 13.1477 9.88184 13.1477C9.2851 13.1477 8.7128 12.9107 8.29085 12.4887C7.86889 12.0667 7.63184 11.4944 7.63184 10.8977Z" fill="#787878"/>
</svg>
