<svg width="25" height="24" viewBox="0 0 25 24" fill="none" xmlns="http://www.w3.org/2000/svg">
	<path d="M12.4551 5.65903C12.4961 4.54303 12.8101 3.56303 13.3881 2.74403C13.9696 1.92053 14.9311 1.33553 16.2466 1.00403L16.2741 1.12553V1.33753C16.2741 1.81803 16.1576 2.36953 15.9276 2.97553C15.6861 3.56253 15.3091 4.11553 14.8086 4.61403C14.3406 5.05353 13.9071 5.34403 13.5241 5.47553C13.3981 5.51353 13.2246 5.55053 13.0151 5.58403C12.8291 5.61303 12.6426 5.63803 12.4551 5.65903Z" fill="#161616"/>
	<path d="M12.6751 7.31451C11.1891 7.31451 10.1571 5.99951 8.6906 5.99951C7.2246 5.99951 4.2041 7.34751 4.2041 11.9995C4.2041 16.6525 6.8866 19.6495 7.1866 19.9995C7.4866 20.35 8.1801 21.2495 9.2551 21.2495C10.3301 21.2495 11.5066 20.395 12.6751 20.395C13.8436 20.395 15.3146 21.25 16.2751 21.25C17.2351 21.25 17.6301 20.8585 18.2831 20.183C18.9366 19.508 20.1831 17.448 20.6181 16.211C19.9016 15.784 18.0011 14.626 18.0011 12C18.0011 10.25 18.6411 8.79501 19.9201 7.63751C19.0806 6.54601 18.1076 6.00001 17.0001 6.00001C15.3386 6.00001 14.1616 7.31451 12.6751 7.31451Z" fill="#161616" stroke="#161616" stroke-width="4" stroke-linejoin="round"/>
</svg>
