<svg width="25" height="24" viewBox="0 0 25 24" fill="none" xmlns="http://www.w3.org/2000/svg">
	<g clip-path="url(#clip0_518_7082)">
		<path d="M22.223 3.33325H3.55632C2.84907 3.33325 2.17079 3.6142 1.6707 4.1143C1.1706 4.6144 0.889648 5.29267 0.889648 5.99992L0.889648 17.9999C0.889648 18.7072 1.1706 19.3854 1.6707 19.8855C2.17079 20.3856 2.84907 20.6666 3.55632 20.6666H22.223C22.9302 20.6666 23.6085 20.3856 24.1086 19.8855C24.6087 19.3854 24.8896 18.7072 24.8896 17.9999V5.99992C24.8896 5.29267 24.6087 4.6144 24.1086 4.1143C23.6085 3.6142 22.9302 3.33325 22.223 3.33325Z" fill="#006C35"/>
		<path d="M6.83645 9.36664C7.25779 9.40664 7.02512 8.65397 7.17779 8.5173C7.20645 8.44997 7.25979 8.4493 7.26379 8.53464V9.1733C7.25979 9.3813 7.39645 9.44197 7.50245 9.4853C7.61312 9.47663 7.68645 9.48064 7.72979 9.58797L7.78179 10.6933C7.78179 10.6933 8.03779 10.7666 8.04979 10.0713C8.06245 9.6633 7.96845 9.32197 8.02379 9.24264C8.02579 9.16464 8.12512 9.15997 8.19445 9.19797C8.30445 9.2753 8.35379 9.3713 8.52445 9.3333C8.78512 9.26197 8.94112 9.1353 8.94512 8.9353C8.92979 8.7453 8.90845 8.5553 8.82645 8.3653C8.83779 8.33064 8.77645 8.2413 8.78779 8.20664C8.83445 8.27997 8.90579 8.27397 8.92179 8.20664C8.87779 8.06064 8.80912 7.92064 8.69712 7.85997C8.60512 7.77864 8.47045 7.7953 8.42112 7.96463C8.39845 8.1593 8.49179 8.3913 8.63312 8.57997C8.66312 8.65397 8.70579 8.77664 8.68712 8.8873C8.61179 8.92997 8.53579 8.91264 8.47312 8.84597C8.47312 8.84597 8.26579 8.69064 8.26579 8.65597C8.32112 8.30397 8.27845 8.26397 8.24779 8.16664C8.22645 8.03197 8.16245 7.98864 8.11045 7.89664C8.05845 7.84197 7.98845 7.84197 7.95512 7.89664C7.86312 8.0553 7.90579 8.39664 7.97245 8.5493C8.01979 8.6893 8.09312 8.77797 8.05845 8.77797C8.02979 8.8573 7.97112 8.83864 7.92845 8.7473C7.86712 8.55797 7.85512 8.27597 7.85512 8.14863C7.83645 7.9913 7.81645 7.65464 7.71312 7.5693C7.64979 7.4833 7.55579 7.52464 7.52312 7.60397C7.51645 7.75997 7.51512 7.91664 7.53312 8.0613C7.60379 8.31397 7.62645 8.53664 7.66112 8.79597C7.67045 9.1433 7.46045 8.94663 7.46979 8.77463C7.51845 8.5513 7.50579 8.1993 7.46245 8.10997C7.42845 8.0213 7.38779 7.99864 7.30512 8.0133C7.23979 8.00797 7.07045 8.1933 7.02245 8.49997C7.02245 8.49997 6.98179 8.65797 6.96445 8.79864C6.94112 8.9573 6.83712 9.0693 6.76379 8.77664C6.70045 8.56397 6.66179 8.0393 6.55579 8.16197C6.52512 8.57197 6.48845 9.2933 6.83645 9.36664Z" fill="white"/>
		<path d="M7.47054 9.66602C7.12387 9.67268 6.61654 10.1213 6.60254 10.37C6.96787 10.194 7.32721 10.0247 7.69921 9.84335C7.63921 9.75335 7.69587 9.67268 7.47054 9.66602Z" fill="white"/>
		<path d="M9.38159 11.0107C9.54225 10.4754 9.35559 10.0807 9.44292 10.0827C9.62759 10.282 9.88625 10.1094 9.94292 10.04C9.96759 10.0054 10.0283 9.98271 10.0709 10.028C10.2156 10.132 10.4703 10.0827 10.5229 9.90004C10.5562 9.71658 10.5767 9.53102 10.5843 9.34471C10.4663 9.38137 10.3783 9.40604 10.3703 9.45471L10.3456 9.61337C10.3356 9.66471 10.2336 9.66671 10.2296 9.60137C10.1849 9.39804 9.99959 9.37137 9.88759 9.68671C9.81225 9.74804 9.67625 9.76004 9.66159 9.66871C9.67959 9.45737 9.59425 9.42871 9.42359 9.52804C9.36892 9.10871 9.31359 8.70804 9.25892 8.28871C9.33025 8.28671 9.39559 8.33937 9.46025 8.25804C9.38892 8.03604 9.23825 7.58271 9.15492 7.55004C9.11425 7.50071 9.07959 7.53137 9.02692 7.54404C8.93759 7.57271 8.85425 7.65004 8.88025 7.80004C8.98625 8.44337 9.05559 8.93337 9.16092 9.57671C9.17692 9.65204 9.11425 9.75137 9.03292 9.74137C8.89492 9.64804 8.86025 9.45871 8.62425 9.46671C8.45292 9.46871 8.25759 9.65404 8.23359 9.83337C8.20492 9.97537 8.19492 10.13 8.23359 10.2547C8.35359 10.3987 8.49825 10.3847 8.62425 10.352C8.72759 10.3094 8.81359 10.2054 8.84959 10.23C8.87425 10.26 8.85559 10.602 8.36159 10.8647C8.06225 10.9987 7.82425 11.0294 7.69625 10.7854C7.61692 10.6327 7.70225 10.0527 7.50692 10.1874C6.92892 11.6774 8.86025 11.884 9.07625 10.2487C9.09692 10.1814 9.17825 10.114 9.19225 10.224C9.14759 11.7054 7.69825 11.8074 7.45225 11.3414C7.39092 11.2314 7.37292 10.9874 7.36692 10.8407C7.33025 10.5494 7.17759 10.6614 7.15359 10.95C7.12892 11.1107 7.13559 11.156 7.13559 11.31C7.21225 12.48 9.07892 11.9774 9.38159 11.0107ZM8.66159 9.99871C8.64959 10.0214 8.59692 10.012 8.55825 10.012C8.51425 10.01 8.49359 10.0027 8.46692 9.96737C8.45492 9.92737 8.49225 9.88937 8.50892 9.85937C8.52959 9.82404 8.64092 9.78737 8.68025 9.88604C8.68753 9.90477 8.68964 9.92511 8.68636 9.94493C8.68307 9.96475 8.67452 9.98333 8.66159 9.99871Z" fill="white"/>
		<path d="M9.95813 8.67267C10.0741 8.63 10.6241 8.00133 10.6241 8.00133C10.5955 7.97667 10.5701 7.95867 10.5415 7.934C10.5108 7.90734 10.5141 7.88067 10.5415 7.85467C10.6775 7.77533 10.6341 7.60134 10.5628 7.522C10.5167 7.49937 10.4659 7.48782 10.4145 7.48828C10.3631 7.48875 10.3125 7.50121 10.2668 7.52467C10.1715 7.616 10.1488 7.76267 10.2241 7.85467C10.2975 7.88933 10.3708 7.96333 10.3221 8.004C10.0975 8.244 9.48146 8.658 9.55279 8.67267C9.56813 8.69267 9.94613 8.692 9.95813 8.67267ZM10.3655 7.68533C10.4008 7.67667 10.4461 7.708 10.4675 7.75467C10.4888 7.80134 10.4775 7.846 10.4428 7.85467H10.4415C10.4068 7.86333 10.3615 7.832 10.3401 7.78534C10.3195 7.738 10.3308 7.694 10.3655 7.68533ZM6.79813 11.5053C6.70746 11.69 6.66946 11.5633 6.66146 11.46C6.65104 11.2865 6.65976 11.1123 6.68746 10.9407C6.71013 10.794 6.68746 10.8387 6.6408 10.898C6.4348 11.226 6.4168 11.7167 6.5308 11.8627C6.5908 11.932 6.69013 11.9627 6.76413 11.94C6.89346 11.884 6.95013 11.6213 6.91946 11.526C6.87546 11.4587 6.84146 11.448 6.79813 11.5053ZM13.5855 8.03334C13.8228 8.352 14.0481 8.67667 14.2688 9.00733C14.3121 9.294 14.3435 9.574 14.3621 9.852C14.3988 10.388 14.4095 10.968 14.3761 11.5327C14.4761 11.5367 14.6381 11.37 14.6941 11.1267C14.7308 10.79 14.6808 10.1907 14.6775 9.992C14.673 9.86749 14.667 9.74303 14.6595 9.61867C14.9221 10.048 15.1781 10.4973 15.4281 10.9967C15.5195 10.954 15.4995 10.4433 15.4461 10.3713C15.2461 9.94267 14.9708 9.51867 14.8828 9.356C14.8501 9.296 14.7388 9.12534 14.6061 8.93C14.5947 8.7741 14.5761 8.61882 14.5501 8.46467C14.5088 8.17933 14.6681 8.496 14.6461 8.33C14.5948 8.04467 14.4361 7.852 14.2508 7.59067C14.1908 7.506 14.1928 7.48867 14.1001 7.61133C14.0674 7.68482 14.0523 7.76497 14.0561 7.84533C14.0272 7.80279 13.9963 7.76164 13.9635 7.722C13.8629 7.63519 13.7617 7.54897 13.6601 7.46333C13.5928 7.41533 13.4288 7.32867 13.3995 7.47267C13.3858 7.57361 13.3908 7.67619 13.4141 7.77534C13.4315 7.84667 13.5348 7.96534 13.5855 8.03334ZM14.0788 8.01734C14.0915 8.07267 14.1048 8.128 14.1135 8.18467L14.1235 8.23867C14.0955 8.19959 14.0664 8.16135 14.0361 8.124C13.9268 7.99467 14.0175 8.02267 14.0788 8.01734Z" fill="white"/>
		<path d="M15.5029 11.1288C15.2709 11.3708 14.9362 11.6688 14.5722 11.8068C14.5329 11.8508 14.6696 12.0395 14.8456 12.0395C15.1409 12.0048 15.4009 11.8388 15.6416 11.4021C15.7062 11.3008 15.8196 11.0828 15.8222 10.9135C15.8442 9.92279 15.7729 9.15146 15.6242 8.43546C15.6143 8.37801 15.617 8.31907 15.6322 8.26279C15.6509 8.24012 15.7162 8.26279 15.7509 8.20679C15.8009 8.15479 15.6169 7.72812 15.5116 7.56412C15.4742 7.49079 15.4616 7.44146 15.3996 7.57279C15.3342 7.67946 15.2909 7.86546 15.2962 8.03879C15.4369 9.01412 15.4802 9.86812 15.5722 10.8435C15.5796 10.9375 15.5656 11.0748 15.5029 11.1288ZM19.3896 8.65546C19.3796 8.58612 19.3489 8.42479 19.3609 8.40412C19.3796 8.35479 19.4762 8.40946 19.5109 8.35279C19.5616 8.30146 19.2616 7.91612 19.1569 7.75212C19.1189 7.67879 19.1062 7.62946 19.0442 7.76079C18.9789 7.86746 18.9562 8.05879 18.9822 8.22679C19.1389 9.28612 19.2556 10.0821 19.2796 11.0215C19.2656 11.1108 19.2629 11.1588 19.2209 11.2708C19.1282 11.3895 19.0262 11.5375 18.9296 11.6095C18.8336 11.6808 18.6289 11.7495 18.5616 11.8021C18.3502 11.9255 18.3496 12.0661 18.5216 12.0708C18.8162 12.0361 19.1656 12.0121 19.4062 11.6481C19.4709 11.5468 19.5476 11.2715 19.5509 11.1021C19.5729 10.1115 19.5382 9.37146 19.3896 8.65546ZM17.1556 9.48012C17.1582 9.34412 17.1709 9.16412 17.1782 9.05146C17.1816 9.00946 17.1916 8.96212 17.2316 8.95146C17.2722 8.94079 17.3442 8.99279 17.3449 8.94879C17.3369 8.86279 17.3196 8.73479 17.2709 8.67412C17.2042 8.57546 17.0276 8.59946 16.9962 8.75412C16.9969 8.81146 17.0229 8.84212 17.0182 8.89412C17.0102 8.92346 16.9796 8.94346 16.9069 8.90879C16.9189 8.89812 16.8596 8.81612 16.8596 8.81612C16.8029 8.78146 16.7269 8.81812 16.6782 8.84946C16.6606 8.88307 16.6501 8.91995 16.6474 8.95779C16.6446 8.99564 16.6497 9.03365 16.6622 9.06946C16.7422 9.22079 17.0216 9.47746 17.1556 9.48012Z" fill="white"/>
		<path d="M17.0617 8.32077C17.2571 8.56011 17.4564 8.80277 17.6571 9.04944C17.7004 9.60011 17.7117 10.0508 17.7544 10.6014C17.7484 10.8348 17.6764 11.0381 17.6077 11.0674C17.6077 11.0674 17.5044 11.1274 17.4351 11.0614C17.3844 11.0408 17.1824 10.7248 17.1824 10.7248C17.0791 10.6301 17.0111 10.6568 16.9377 10.7248C16.7351 10.9201 16.6437 11.2868 16.5064 11.5388C16.4704 11.5954 16.3704 11.6434 16.2591 11.5348C15.9771 11.1488 16.1424 10.6001 16.1077 10.7414C15.8564 11.0248 15.9671 11.4934 16.0237 11.5948C16.1064 11.7601 16.1737 11.8668 16.3351 11.9488C16.4817 12.0568 16.5964 11.9888 16.6591 11.9134C16.8071 11.7594 16.8091 11.3694 16.8784 11.2908C16.9264 11.1488 17.0497 11.1728 17.1091 11.2361C17.1634 11.3128 17.2355 11.3752 17.3191 11.4181C17.4571 11.5401 17.6217 11.5621 17.7837 11.4508C17.8944 11.3888 17.9671 11.3081 18.0317 11.1488C18.1037 10.9568 18.0644 10.0741 18.0497 9.54477C18.1531 9.67811 18.2537 9.81744 18.3557 9.95677C18.4004 10.3988 18.4257 10.8388 18.4111 11.2881C18.4004 11.3781 18.7244 11.0214 18.7217 10.8521C18.7204 10.7154 18.7217 10.5914 18.7217 10.4748C18.8777 10.7094 19.0297 10.9514 19.1724 11.2074C19.2617 11.1608 19.2324 10.6574 19.1757 10.5881C19.0111 10.3121 18.7917 10.0248 18.6404 9.81944C18.6304 9.79344 18.6251 9.76411 18.6131 9.73944C18.5524 9.59877 18.5904 9.48544 18.5617 9.33611C18.5337 9.18611 18.5411 8.96211 18.4977 8.78411C18.4857 8.71477 18.4497 8.49211 18.4604 8.47144C18.4777 8.42144 18.5444 8.47277 18.5771 8.41544C18.6257 8.36211 18.4084 7.79877 18.2977 7.63744C18.2577 7.56544 18.1857 7.59011 18.0964 7.70744C18.0144 7.78477 18.0451 7.96077 18.0764 8.12811C18.1544 8.53344 18.2197 8.92211 18.2757 9.30677C18.1559 9.14739 18.0348 8.98894 17.9124 8.83144L17.9071 8.80211C17.9071 8.79477 17.8891 8.45277 17.8731 8.37144C17.8704 8.33877 17.8624 8.32877 17.8971 8.33277C17.9337 8.36344 17.9384 8.36544 17.9617 8.37611C17.9991 8.38277 18.0317 8.31944 18.0097 8.26144L17.6651 7.62677C17.6377 7.59944 17.6017 7.57011 17.5584 7.63411C17.5315 7.65761 17.51 7.68661 17.4952 7.71916C17.4805 7.75171 17.473 7.78705 17.4731 7.82277C17.4837 7.97277 17.5097 8.12611 17.5197 8.27677L17.5344 8.35811C17.5191 8.34011 17.5004 8.31744 17.4924 8.30944C17.1997 8.00144 17.6271 8.25944 17.4364 8.02144C17.2751 7.84411 17.2284 7.78877 17.0897 7.68211C17.0204 7.63744 16.9784 7.55211 16.9557 7.69744C16.9443 7.82488 16.941 7.95291 16.9457 8.08077C16.9457 8.14211 17.0077 8.25411 17.0617 8.32077ZM11.1277 9.04011C11.2957 9.10944 11.4031 8.78944 11.4724 8.43877C11.5191 8.34011 11.5551 8.32944 11.5791 8.38011C11.5731 8.84677 11.6124 8.95011 11.7324 9.09211C11.9997 9.29877 12.2211 9.11811 12.2391 9.10077L12.4471 8.89277C12.4931 8.84411 12.5551 8.84077 12.6204 8.88411C12.6844 8.94144 12.6757 9.04144 12.8117 9.11077C12.9264 9.15677 13.1717 9.12144 13.2284 9.02277C13.3051 8.89211 13.3237 8.84677 13.3584 8.79744C13.4131 8.72477 13.5064 8.75744 13.5064 8.78011C13.4977 8.82077 13.4431 8.86144 13.4804 8.93411C13.5457 8.98277 13.5604 8.95144 13.5991 8.94077C13.7351 8.87544 13.8364 8.58077 13.8364 8.58077C13.8424 8.47077 13.7811 8.48011 13.7411 8.50277C13.6891 8.53411 13.6857 8.54477 13.6337 8.57677C13.5671 8.58677 13.4384 8.63077 13.3751 8.53211C13.3097 8.41344 13.3084 8.24811 13.2591 8.12877C13.2591 8.12011 13.1724 7.94011 13.2531 7.92877C13.2937 7.93611 13.3797 7.95877 13.3937 7.88677C13.4357 7.81611 13.3024 7.61477 13.2117 7.51277C13.1324 7.42611 13.0224 7.41544 12.9164 7.50411C12.8417 7.57277 12.8524 7.64877 12.8377 7.72144C12.8256 7.77272 12.8257 7.82612 12.8378 7.87739C12.85 7.92866 12.8739 7.97638 12.9077 8.01677C12.9817 8.16277 13.1171 8.35144 13.0724 8.61544C13.0724 8.61544 12.9937 8.74077 12.8557 8.72477C12.7984 8.71211 12.7051 8.68744 12.6557 8.32077C12.6184 8.04277 12.6651 7.65411 12.5471 7.47211C12.5044 7.36211 12.4737 7.25611 12.3697 7.44411C12.3417 7.51811 12.2217 7.63011 12.3091 7.86144C12.3804 8.00744 12.4091 8.24544 12.3771 8.51077C12.3277 8.58611 12.3171 8.61144 12.2524 8.68677C12.1617 8.78411 12.0637 8.75944 11.9884 8.72277C11.9177 8.67544 11.8631 8.65077 11.8311 8.50011C11.8371 8.26011 11.8504 7.86677 11.8064 7.78344C11.7417 7.65411 11.6351 7.70077 11.5891 7.74011C11.3697 7.94077 11.2617 8.27877 11.1957 8.54744C11.1351 8.74344 11.0704 8.68744 11.0251 8.60811C10.9144 8.50411 10.9071 7.69277 10.7731 7.82677C10.5577 8.43611 10.8944 9.10544 11.1277 9.04011Z" fill="white"/>
		<path d="M14.3152 10.3493L14.2512 10.3126L12.9972 10.3066C12.9326 10.282 12.9519 10.2606 12.9972 10.2433C13.2966 10.2026 13.8292 10.116 13.8646 9.60462C13.8586 9.33862 13.7499 9.16396 13.4232 9.11596C13.1839 9.13462 13.0126 9.36729 13.0399 9.62262C13.0286 9.69196 13.0626 9.82662 12.9926 9.84196C12.5319 9.88396 12.0299 10.172 12.0132 10.3786C11.9852 10.398 11.9226 10.342 11.9306 10.254C11.9084 9.87753 11.8 9.51123 11.6139 9.18329C11.4686 9.03796 11.5139 9.08596 11.4166 9.15462C11.3539 9.22662 11.3426 9.27596 11.3459 9.41929C11.3459 9.42462 11.4632 9.75196 11.5626 9.98129C11.6286 10.2166 11.6906 10.4853 11.6459 10.7393C11.4912 11.0753 11.1799 11.3766 10.8799 11.54C10.7252 11.59 10.5926 11.572 10.5599 11.5373C10.4646 11.4733 10.4692 11.3553 10.4766 11.3533C10.7292 11.1766 11.0186 11.0346 11.2452 10.5593C11.3119 10.378 11.3319 10.268 11.2659 9.98729C11.2475 9.88838 11.2021 9.79652 11.1346 9.72196C11.1752 9.69529 11.2919 9.78396 11.3099 9.73129C11.2761 9.57766 11.1996 9.4367 11.0892 9.32462C10.9992 9.24262 10.9012 9.23329 10.8186 9.30862C10.7252 9.36062 10.7052 9.54596 10.7499 9.70862C10.7992 9.83129 10.9332 9.85196 11.0292 10.098C11.0292 10.1033 11.0639 10.282 11.0146 10.352C10.9752 10.4746 10.4652 10.8753 10.4372 10.8933C10.4232 10.9106 10.4292 10.8846 10.4272 10.818C10.4239 10.7366 10.4599 10.5446 10.4499 10.5433C10.2839 10.6506 10.2286 10.9793 10.1986 11.0766C9.77855 11.3666 9.30322 11.5826 9.02855 11.8773C8.88522 12.1006 10.0139 11.6206 10.1452 11.5626C10.1746 11.584 10.1712 11.6846 10.2499 11.7746C10.3672 11.9333 10.6152 12.0313 10.8586 11.9706C11.2652 11.8233 11.5006 11.546 11.7392 11.2386C11.7732 11.1886 11.8266 11.1506 11.8759 11.1886C12.0399 11.556 12.5139 11.816 13.1252 11.8433C13.2672 11.6706 13.1986 11.5873 13.1412 11.5513C13.1412 11.546 12.8392 11.4313 12.7932 11.3166C12.7652 11.2126 12.8332 11.1213 12.9692 11.052C13.3619 11.0046 13.7479 10.952 14.1219 10.832C14.1259 10.7066 14.1986 10.5186 14.2486 10.4373C14.2966 10.3546 14.3226 10.3793 14.3152 10.3493ZM13.2839 9.56796C13.3026 9.53662 13.3646 9.53796 13.4226 9.57196C13.4806 9.60529 13.5132 9.65862 13.4939 9.68996C13.4752 9.72196 13.4126 9.71996 13.3546 9.68596C13.2966 9.65262 13.2652 9.59996 13.2839 9.56796ZM12.7792 10.8346C12.6446 10.8806 12.5152 10.9166 12.5152 11.1113C12.5652 11.382 12.4466 11.2893 12.3766 11.252C12.2939 11.1926 12.0612 11.0493 12.0279 10.74C12.0226 10.666 12.0806 10.604 12.1732 10.604C12.3126 10.642 12.5186 10.6446 12.6972 10.6633C12.8432 10.6726 12.9159 10.7873 12.7792 10.8346ZM8.13455 7.83129C8.27855 7.90062 8.55055 7.87129 8.53855 7.63796C8.53855 7.61729 8.53322 7.54796 8.53122 7.52929C8.50189 7.46062 8.42189 7.47729 8.40322 7.54862C8.39722 7.57196 8.41322 7.60929 8.39255 7.62129C8.38055 7.63329 8.33455 7.62596 8.33655 7.56196C8.33655 7.54129 8.32122 7.51929 8.31255 7.50662C8.30322 7.50062 8.29789 7.49862 8.28122 7.49862C8.26122 7.49929 8.26122 7.50462 8.25055 7.52196C8.24589 7.53862 8.23922 7.55596 8.23922 7.57529C8.23655 7.59796 8.22789 7.60596 8.21122 7.60996C8.19255 7.60996 8.19655 7.61196 8.18189 7.60196C8.17255 7.59196 8.16122 7.58796 8.16122 7.57129C8.16117 7.5518 8.15802 7.53245 8.15189 7.51396C8.14389 7.50329 8.13122 7.49862 8.11655 7.49462C8.03789 7.49462 8.03255 7.58462 8.03722 7.61929C8.02989 7.62529 8.02722 7.78662 8.13455 7.83129Z" fill="white"/>
		<path d="M12.5651 9.35138C12.5651 9.33071 12.5497 9.30938 12.5411 9.29604C12.5317 9.29004 12.5264 9.28804 12.5097 9.28804C12.4897 9.28871 12.4904 9.29404 12.4791 9.31138C12.4744 9.32871 12.4677 9.34538 12.4677 9.36471C12.4657 9.38804 12.4564 9.39604 12.4397 9.39938C12.4211 9.39938 12.4251 9.40138 12.4097 9.39204C12.4004 9.38204 12.3891 9.37804 12.3891 9.36138C12.3891 9.34189 12.3859 9.32253 12.3797 9.30404C12.3717 9.29338 12.3591 9.28871 12.3444 9.28538C12.2657 9.28538 12.2604 9.37538 12.2644 9.40938C12.2584 9.41604 12.2551 9.57671 12.3624 9.62204C12.5071 9.69071 12.8504 9.65071 12.7664 9.42871C12.765 9.3922 12.7626 9.35574 12.7591 9.31938C12.7297 9.25071 12.6491 9.26804 12.6311 9.33871C12.6257 9.36204 12.6417 9.39938 12.6204 9.41138C12.6097 9.42338 12.5631 9.41604 12.5651 9.35138ZM14.8297 8.88004C14.9737 8.94938 15.2451 8.92004 15.2331 8.68738C15.2317 8.65087 15.2292 8.61441 15.2257 8.57804C15.1964 8.50938 15.1164 8.52671 15.0984 8.59738C15.0924 8.62071 15.1084 8.65804 15.0871 8.67004C15.0751 8.68204 15.0291 8.67538 15.0311 8.61071C15.0311 8.59004 15.0157 8.56804 15.0071 8.55538C14.9977 8.54938 14.9924 8.54738 14.9751 8.54738C14.9551 8.54871 14.9557 8.55338 14.9444 8.57071C14.9397 8.58804 14.9331 8.60471 14.9331 8.62404C14.9304 8.64738 14.9217 8.65538 14.9051 8.65871C14.8864 8.65871 14.8904 8.66071 14.8751 8.65138C14.8657 8.64138 14.8551 8.63738 14.8551 8.62071C14.855 8.60101 14.8519 8.58144 14.8457 8.56271C14.8371 8.55204 14.8251 8.54738 14.8097 8.54404C14.7311 8.54404 14.7257 8.63404 14.7304 8.66804C14.7257 8.67471 14.7224 8.83538 14.8297 8.88004ZM14.9271 7.97871C14.9784 8.12271 14.8877 8.26004 14.9417 8.28004C14.9904 8.30271 15.0597 8.13138 15.0851 7.97338C15.1151 7.84538 15.0237 7.58338 14.8944 7.52938C14.8157 7.51071 14.7037 7.55738 14.7397 7.66271C14.7217 7.71338 14.8984 7.88538 14.9271 7.97871ZM16.2571 11.3547C16.3577 11.3554 16.4737 11.1247 16.5231 10.896C16.5504 10.5814 16.5044 10.39 16.4964 10.2047C16.4877 10.02 16.2877 8.61004 16.2464 8.47004C16.1977 8.20538 16.4417 8.43471 16.4151 8.28071C16.3304 8.08671 16.1204 7.80471 16.0537 7.63604C16.0137 7.56404 16.0311 7.50004 15.9417 7.61738C15.8597 7.88738 15.8311 8.10738 15.8624 8.27538C16.0744 9.38204 16.2917 10.302 16.2571 11.3547ZM18.7611 8.46138C18.7844 8.53338 18.7257 8.76604 18.7744 8.78738C18.8191 8.81138 18.8817 8.62671 18.9051 8.45538C18.9177 8.36138 18.8491 8.03338 18.7311 7.97471C18.6591 7.95471 18.5571 8.00471 18.5904 8.11938C18.5737 8.17471 18.7351 8.36004 18.7611 8.46138ZM10.0151 10.8987C10.0584 10.9167 10.1177 10.7807 10.1404 10.6547C10.1531 10.5854 10.0864 10.3447 9.97374 10.3014C9.90441 10.2867 9.80974 10.3054 9.83907 10.408C9.83574 10.4634 9.99241 10.53 10.0017 10.6587C10.0244 10.712 9.96841 10.8834 10.0151 10.8987ZM6.97774 7.82204C6.99974 7.87738 6.95574 8.05404 7.00174 8.07071C7.04374 8.08938 7.10307 7.94804 7.12507 7.81804C7.13774 7.74604 7.12774 7.50204 6.96107 7.45204C6.89241 7.43671 6.79707 7.47471 6.82841 7.56204C6.81241 7.60338 6.95307 7.74471 6.97774 7.82204ZM10.2457 8.60404C10.1184 8.67338 10.0684 8.87871 10.1484 8.99804C10.2224 9.10404 10.3397 9.06471 10.3557 9.06471C10.4811 9.08004 10.5551 8.83004 10.5551 8.83004C10.5551 8.83004 10.5591 8.76004 10.4104 8.89271C10.3477 8.90471 10.3397 8.88138 10.3244 8.84538C10.3092 8.78013 10.316 8.7117 10.3437 8.65071C10.3651 8.58871 10.3171 8.56138 10.2457 8.60404ZM11.2071 7.83538C11.2276 7.82268 11.2453 7.80578 11.2588 7.78579C11.2724 7.7658 11.2815 7.74317 11.2857 7.71938C11.3051 7.62204 11.1824 7.76538 11.1671 7.65671C11.1397 7.55604 11.2184 7.51471 11.2931 7.41738C11.2957 7.35004 11.2944 7.30271 11.2031 7.35738C11.1391 7.40071 11.0111 7.53271 11.0071 7.68471C11.0031 7.77071 10.9871 7.77004 11.0437 7.82471C11.0844 7.88404 11.1251 7.87804 11.2071 7.83538ZM12.0731 7.88738C12.1557 7.66338 12.1557 7.56871 12.1617 7.47338C12.1364 7.32871 12.0384 7.33338 11.9737 7.49404C11.9457 7.55471 11.9131 7.87404 11.9184 7.87404C11.8964 7.96938 12.0177 8.01004 12.0731 7.88738ZM17.5197 9.47604C17.5197 9.47604 16.8511 9.95138 16.8351 9.96804C16.7684 10.0267 16.8017 10.2347 16.8351 10.2107C16.8824 10.2294 17.5551 9.77271 17.5417 9.71938C17.5731 9.72071 17.5884 9.45204 17.5197 9.47604ZM17.4377 10.7654C17.4824 10.7894 17.6004 10.6434 17.5957 10.4614C17.6091 10.3674 17.5617 10.0227 17.4444 9.96404C17.3724 9.94404 17.2764 10.0054 17.3097 10.1194C17.2931 10.174 17.3924 10.3654 17.4184 10.4667C17.4417 10.5394 17.3891 10.744 17.4377 10.7654ZM13.6511 11.7627C13.6511 11.7687 13.7077 11.8174 13.7744 11.7787C13.9144 11.7247 14.0024 11.6727 14.1984 11.6294C14.2497 11.6287 14.2464 11.4907 14.1651 11.486C14.0591 11.4914 13.9604 11.4967 13.8544 11.5807C13.7891 11.5954 13.7784 11.556 13.7637 11.52C13.7477 11.4314 13.8004 11.37 13.7891 11.304C13.7931 11.308 13.7284 11.2487 13.6624 11.282C13.6591 11.282 13.5151 11.3794 13.4691 11.4474C13.4404 11.4694 13.4437 11.488 13.4524 11.5247C13.4744 11.5754 13.5137 11.56 13.5577 11.536C13.6164 11.528 13.6444 11.5667 13.6397 11.6367C13.6117 11.7254 13.6511 11.758 13.6511 11.7627ZM18.0184 11.8734C17.9964 11.9114 17.9817 11.9687 18.0497 11.9867C18.1751 12.022 18.4637 11.834 18.4637 11.8307C18.5104 11.7954 18.4951 11.7294 18.4911 11.7294C18.4637 11.698 18.4024 11.716 18.3611 11.7114C18.3417 11.7114 18.2764 11.7014 18.3077 11.644C18.3298 11.6131 18.3473 11.5792 18.3597 11.5434C18.3791 11.5 18.3624 11.4714 18.2917 11.448C18.2204 11.4347 18.1917 11.4414 18.1124 11.448C18.0697 11.4574 18.0551 11.476 18.0471 11.528C18.0504 11.6067 18.0977 11.6027 18.1471 11.634C18.1757 11.6707 18.1944 11.704 18.1451 11.7634C18.0984 11.8067 18.0657 11.8307 18.0184 11.8734ZM17.8904 15.3334H16.8904V15C16.8904 14.9116 16.8553 14.8269 16.7928 14.7643C16.7303 14.7018 16.6455 14.6667 16.5571 14.6667C16.4687 14.6667 16.3839 14.7018 16.3214 14.7643C16.2589 14.8269 16.2237 14.9116 16.2237 15V15.3334H8.22374C8.22374 15.3334 8.22374 16 10.2237 16H16.2237V16.3334C16.2237 16.4218 16.2589 16.5066 16.3214 16.5691C16.3839 16.6316 16.4687 16.6667 16.5571 16.6667C16.6455 16.6667 16.7303 16.6316 16.7928 16.5691C16.8553 16.5066 16.8904 16.4218 16.8904 16.3334V16H17.5571V16.3334C17.5571 16.4218 17.5922 16.5066 17.6547 16.5691C17.7172 16.6316 17.802 16.6667 17.8904 16.6667C17.9788 16.6667 18.0636 16.6316 18.1261 16.5691C18.1886 16.5066 18.2237 16.4218 18.2237 16.3334V15.6667C18.2237 15.5783 18.1886 15.4935 18.1261 15.431C18.0636 15.3685 17.9788 15.3334 17.8904 15.3334Z" fill="white"/>
	</g>
	<defs>
		<clipPath id="clip0_518_7082">
			<rect width="24" height="24" fill="white" transform="translate(0.889648)"/>
		</clipPath>
	</defs>
</svg>