<svg width="12" height="12" viewBox="0 0 12 12" fill="none" xmlns="http://www.w3.org/2000/svg">
	<path d="M5.60205 8.64795L1.85205 4.89795C1.74638 4.79228 1.68701 4.64895 1.68701 4.49951C1.68701 4.35007 1.74638 4.20675 1.85205 4.10107C1.95772 3.9954 2.10105 3.93603 2.25049 3.93603C2.39993 3.93603 2.54325 3.9954 2.64893 4.10107L6.00002 7.4531L9.35205 4.10201C9.40438 4.04969 9.46649 4.00818 9.53486 3.97986C9.60322 3.95155 9.67649 3.93697 9.75049 3.93697C9.82449 3.93697 9.89776 3.95155 9.96612 3.97986C10.0345 4.00818 10.0966 4.04969 10.1489 4.10201C10.2013 4.15433 10.2428 4.21645 10.2711 4.28482C10.2994 4.35318 10.314 4.42645 10.314 4.50045C10.314 4.57445 10.2994 4.64772 10.2711 4.71608C10.2428 4.78445 10.2013 4.84656 10.1489 4.89889L6.39893 8.64889C6.34661 8.70126 6.28446 8.7428 6.21606 8.77111C6.14765 8.79942 6.07433 8.81395 6.00029 8.81386C5.92626 8.81377 5.85297 8.79907 5.78463 8.7706C5.7163 8.74213 5.65425 8.70045 5.60205 8.64795Z" fill="#8D8D8D"/>
</svg>