<svg width="10" height="18" viewBox="0 0 10 18" fill="none" xmlns="http://www.w3.org/2000/svg">
<path d="M8.89763 9.39714L1.39763 16.8971C1.291 16.9965 1.14996 17.0506 1.00424 17.048C0.858512 17.0455 0.719473 16.9864 0.616413 16.8834C0.513353 16.7803 0.454319 16.6413 0.451748 16.4955C0.449177 16.3498 0.50327 16.2088 0.60263 16.1021L7.70419 8.99964L0.60263 1.89714C0.50327 1.79051 0.449177 1.64947 0.451748 1.50375C0.454319 1.35802 0.513353 1.21898 0.616413 1.11592C0.719473 1.01286 0.858512 0.953831 1.00424 0.95126C1.14996 0.948688 1.291 1.00278 1.39763 1.10214L8.89763 8.60214C9.00297 8.70761 9.06213 8.85058 9.06213 8.99964C9.06213 9.1487 9.00297 9.29167 8.89763 9.39714Z" fill="#161616"/>
</svg>
