<svg width="21" height="21" viewBox="0 0 21 21" fill="none" xmlns="http://www.w3.org/2000/svg">
	<path opacity="0.2" d="M8.99334 4.8442V8.61447C8.99334 8.78113 8.92713 8.94096 8.80929 9.0588C8.69144 9.17664 8.53161 9.24285 8.36496 9.24285H4.59469C4.42803 9.24285 4.2682 9.17664 4.15036 9.0588C4.03251 8.94096 3.96631 8.78113 3.96631 8.61447V4.8442C3.96631 4.67754 4.03251 4.51771 4.15036 4.39987C4.2682 4.28202 4.42803 4.21582 4.59469 4.21582H8.36496C8.53161 4.21582 8.69144 4.28202 8.80929 4.39987C8.92713 4.51771 8.99334 4.67754 8.99334 4.8442ZM15.9055 4.21582H12.1352C11.9686 4.21582 11.8087 4.28202 11.6909 4.39987C11.5731 4.51771 11.5068 4.67754 11.5068 4.8442V8.61447C11.5068 8.78113 11.5731 8.94096 11.6909 9.0588C11.8087 9.17664 11.9686 9.24285 12.1352 9.24285H15.9055C16.0722 9.24285 16.232 9.17664 16.3498 9.0588C16.4677 8.94096 16.5339 8.78113 16.5339 8.61447V4.8442C16.5339 4.67754 16.4677 4.51771 16.3498 4.39987C16.232 4.28202 16.0722 4.21582 15.9055 4.21582ZM8.36496 11.7564H4.59469C4.42803 11.7564 4.2682 11.8226 4.15036 11.9404C4.03251 12.0583 3.96631 12.2181 3.96631 12.3847V16.155C3.96631 16.3217 4.03251 16.4815 4.15036 16.5993C4.2682 16.7172 4.42803 16.7834 4.59469 16.7834H8.36496C8.53161 16.7834 8.69144 16.7172 8.80929 16.5993C8.92713 16.4815 8.99334 16.3217 8.99334 16.155V12.3847C8.99334 12.2181 8.92713 12.0583 8.80929 11.9404C8.69144 11.8226 8.53161 11.7564 8.36496 11.7564ZM15.9055 11.7564H12.1352C11.9686 11.7564 11.8087 11.8226 11.6909 11.9404C11.5731 12.0583 11.5068 12.2181 11.5068 12.3847V16.155C11.5068 16.3217 11.5731 16.4815 11.6909 16.5993C11.8087 16.7172 11.9686 16.7834 12.1352 16.7834H15.9055C16.0722 16.7834 16.232 16.7172 16.3498 16.5993C16.4677 16.4815 16.5339 16.3217 16.5339 16.155V12.3847C16.5339 12.2181 16.4677 12.0583 16.3498 11.9404C16.232 11.8226 16.0722 11.7564 15.9055 11.7564Z" fill="#6A4F83"/>
	<path d="M15.9055 11.1279H12.1352C11.8019 11.1279 11.4822 11.2604 11.2465 11.496C11.0108 11.7317 10.8784 12.0514 10.8784 12.3847V16.155C10.8784 16.4883 11.0108 16.8079 11.2465 17.0436C11.4822 17.2793 11.8019 17.4117 12.1352 17.4117H15.9055C16.2388 17.4117 16.5584 17.2793 16.7941 17.0436C17.0298 16.8079 17.1622 16.4883 17.1622 16.155V12.3847C17.1622 12.0514 17.0298 11.7317 16.7941 11.496C16.5584 11.2604 16.2388 11.1279 15.9055 11.1279ZM15.9055 16.155H12.1352V12.3847H15.9055V16.155ZM8.36492 3.5874H4.59465C4.26133 3.5874 3.94167 3.71981 3.70599 3.9555C3.4703 4.19119 3.33789 4.51085 3.33789 4.84416V8.61443C3.33789 8.94774 3.4703 9.2674 3.70599 9.50309C3.94167 9.73878 4.26133 9.87119 4.59465 9.87119H8.36492C8.69823 9.87119 9.01789 9.73878 9.25358 9.50309C9.48927 9.2674 9.62167 8.94774 9.62167 8.61443V4.84416C9.62167 4.51085 9.48927 4.19119 9.25358 3.9555C9.01789 3.71981 8.69823 3.5874 8.36492 3.5874ZM8.36492 8.61443H4.59465V4.84416H8.36492V8.61443ZM15.9055 3.5874H12.1352C11.8019 3.5874 11.4822 3.71981 11.2465 3.9555C11.0108 4.19119 10.8784 4.51085 10.8784 4.84416V8.61443C10.8784 8.94774 11.0108 9.2674 11.2465 9.50309C11.4822 9.73878 11.8019 9.87119 12.1352 9.87119H15.9055C16.2388 9.87119 16.5584 9.73878 16.7941 9.50309C17.0298 9.2674 17.1622 8.94774 17.1622 8.61443V4.84416C17.1622 4.51085 17.0298 4.19119 16.7941 3.9555C16.5584 3.71981 16.2388 3.5874 15.9055 3.5874ZM15.9055 8.61443H12.1352V4.84416H15.9055V8.61443ZM8.36492 11.1279H4.59465C4.26133 11.1279 3.94167 11.2604 3.70599 11.496C3.4703 11.7317 3.33789 12.0514 3.33789 12.3847V16.155C3.33789 16.4883 3.4703 16.8079 3.70599 17.0436C3.94167 17.2793 4.26133 17.4117 4.59465 17.4117H8.36492C8.69823 17.4117 9.01789 17.2793 9.25358 17.0436C9.48927 16.8079 9.62167 16.4883 9.62167 16.155V12.3847C9.62167 12.0514 9.48927 11.7317 9.25358 11.496C9.01789 11.2604 8.69823 11.1279 8.36492 11.1279ZM8.36492 16.155H4.59465V12.3847H8.36492V16.155Z" fill="#6A4F83"/>
</svg>