<svg width="16" height="16" viewBox="0 0 16 16" fill="none" xmlns="http://www.w3.org/2000/svg">
	<rect width="16" height="16" rx="8" fill="#F3EDF8"/>
	<path d="M7.99993 1.77795C6.76929 1.77795 5.56629 2.14288 4.54305 2.82659C3.51981 3.51029 2.7223 4.48207 2.25135 5.61903C1.78041 6.756 1.65719 8.00708 1.89727 9.21407C2.13736 10.4211 2.72997 11.5298 3.60016 12.4C4.47035 13.2701 5.57905 13.8628 6.78604 14.1028C7.99303 14.3429 9.24411 14.2197 10.3811 13.7488C11.518 13.2778 12.4898 12.4803 13.1735 11.4571C13.8572 10.4338 14.2222 9.23081 14.2222 8.00017C14.2204 6.35047 13.5643 4.76884 12.3978 3.60232C11.2313 2.43581 9.64963 1.7797 7.99993 1.77795ZM10.7317 6.90291L7.3813 10.2533C7.33685 10.2978 7.28406 10.3331 7.22596 10.3572C7.16785 10.3813 7.10557 10.3937 7.04267 10.3937C6.97977 10.3937 6.91749 10.3813 6.85938 10.3572C6.80128 10.3331 6.74849 10.2978 6.70404 10.2533L5.26814 8.81744C5.17833 8.72763 5.12787 8.60582 5.12787 8.47881C5.12787 8.3518 5.17833 8.22999 5.26814 8.14017C5.35795 8.05036 5.47976 7.99991 5.60677 7.99991C5.73378 7.99991 5.85559 8.05036 5.9454 8.14017L7.04267 9.23804L10.0545 6.22565C10.0989 6.18118 10.1517 6.1459 10.2098 6.12183C10.2679 6.09777 10.3302 6.08538 10.3931 6.08538C10.456 6.08538 10.5183 6.09777 10.5764 6.12183C10.6345 6.1459 10.6873 6.18118 10.7317 6.22565C10.7762 6.27012 10.8115 6.32291 10.8355 6.38101C10.8596 6.43911 10.872 6.50139 10.872 6.56428C10.872 6.62717 10.8596 6.68944 10.8355 6.74754C10.8115 6.80565 10.7762 6.85844 10.7317 6.90291Z" fill="#6A4F83"/>
</svg>