<svg width="16" height="16" viewBox="0 0 16 16" fill="none" xmlns="http://www.w3.org/2000/svg">
	<path opacity="0.2" d="M1 7.5V11.5C1 11.6326 1.05268 11.7598 1.14645 11.8536C1.24021 11.9473 1.36739 12 1.5 12H3C2.99997 11.76 3.05753 11.5235 3.16783 11.3104C3.27814 11.0973 3.43797 10.9137 3.63391 10.7751C3.82985 10.6366 4.05617 10.547 4.29388 10.5141C4.53159 10.4811 4.77374 10.5056 5 10.5856C5.29248 10.689 5.5457 10.8806 5.72479 11.1339C5.90388 11.3872 6.00003 11.6898 6 12H10C10 11.6022 10.158 11.2206 10.4393 10.9393C10.7206 10.658 11.1022 10.5 11.5 10.5C11.8978 10.5 12.2794 10.658 12.5607 10.9393C12.842 11.2206 13 11.6022 13 12H14.5C14.6326 12 14.7598 11.9473 14.8536 11.8536C14.9473 11.7598 15 11.6326 15 11.5V9H5V7.5H1Z" fill="#6A4F83"/>
	<path d="M0.53625 7.3125L1.41125 5.125C1.48548 4.93992 1.61358 4.78139 1.77895 4.66996C1.94432 4.55852 2.13934 4.49931 2.33875 4.5H4.5V4C4.5 3.86739 4.55268 3.74021 4.64645 3.64645C4.74021 3.55268 4.86739 3.5 5 3.5H14.5C14.7652 3.5 15.0196 3.60536 15.2071 3.79289C15.3946 3.98043 15.5 4.23478 15.5 4.5V11.5C15.5 11.7652 15.3946 12.0196 15.2071 12.2071C15.0196 12.3946 14.7652 12.5 14.5 12.5H13.4375C13.3273 12.9302 13.0771 13.3115 12.7263 13.5838C12.3755 13.8561 11.9441 14.0039 11.5 14.0039C11.0559 14.0039 10.6245 13.8561 10.2737 13.5838C9.92285 13.3115 9.67265 12.9302 9.5625 12.5H6.4375C6.32735 12.9302 6.07715 13.3115 5.72635 13.5838C5.37554 13.8561 4.94409 14.0039 4.5 14.0039C4.05591 14.0039 3.62446 13.8561 3.27365 13.5838C2.92285 13.3115 2.67265 12.9302 2.5625 12.5H1.5C1.23478 12.5 0.98043 12.3946 0.792893 12.2071C0.605357 12.0196 0.5 11.7652 0.5 11.5V7.5C0.49983 7.43574 0.512141 7.37206 0.53625 7.3125ZM4.5 5.5H2.33875L1.73875 7H4.5V5.5ZM14.5 4.5H5.5V8.5H14.5V4.5ZM11.5 13C11.6978 13 11.8911 12.9414 12.0556 12.8315C12.22 12.7216 12.3482 12.5654 12.4239 12.3827C12.4996 12.2 12.5194 11.9989 12.4808 11.8049C12.4422 11.6109 12.347 11.4327 12.2071 11.2929C12.0673 11.153 11.8891 11.0578 11.6951 11.0192C11.5011 10.9806 11.3 11.0004 11.1173 11.0761C10.9346 11.1518 10.7784 11.28 10.6685 11.4444C10.5586 11.6089 10.5 11.8022 10.5 12C10.5 12.2652 10.6054 12.5196 10.7929 12.7071C10.9804 12.8946 11.2348 13 11.5 13ZM6.4375 11.5H9.5625C9.67265 11.0698 9.92285 10.6885 10.2737 10.4162C10.6245 10.1439 11.0559 9.99608 11.5 9.99608C11.9441 9.99608 12.3755 10.1439 12.7263 10.4162C13.0771 10.6885 13.3273 11.0698 13.4375 11.5H14.5V9.5H5.5V10.2694C5.72992 10.4023 5.93117 10.5795 6.0921 10.7907C6.25303 11.002 6.37043 11.243 6.4375 11.5ZM4.5 13C4.69778 13 4.89112 12.9414 5.05557 12.8315C5.22002 12.7216 5.34819 12.5654 5.42388 12.3827C5.49957 12.2 5.51937 11.9989 5.48079 11.8049C5.4422 11.6109 5.34696 11.4327 5.20711 11.2929C5.06725 11.153 4.88907 11.0578 4.69509 11.0192C4.50111 10.9806 4.30004 11.0004 4.11732 11.0761C3.93459 11.1518 3.77841 11.28 3.66853 11.4444C3.55865 11.6089 3.5 11.8022 3.5 12C3.5 12.2652 3.60536 12.5196 3.79289 12.7071C3.98043 12.8946 4.23478 13 4.5 13ZM1.5 11.5H2.5625C2.67397 11.0708 2.92464 10.6908 3.27525 10.4193C3.62586 10.1479 4.0566 10.0004 4.5 10V8H1.5V11.5Z" fill="#6A4F83"/>
</svg>