<svg width="127" height="126" viewBox="0 0 127 126" fill="none" xmlns="http://www.w3.org/2000/svg">
	<g opacity="0.3">
		<rect x="0.5" width="126" height="126" rx="63" fill="#E0E0E0"/>
		<path opacity="0.2" d="M88.0496 54.974C88.0496 70.5536 63.4999 83.7727 63.4999 83.7727C63.4999 83.7727 38.9502 70.5536 38.9502 54.974C38.9502 51.5933 40.2932 48.3511 42.6837 45.9605C45.0742 43.57 48.3164 42.2271 51.6971 42.2271C57.0296 42.2271 61.5973 45.1329 63.4999 49.7808C65.4025 45.1329 69.9701 42.2271 75.3026 42.2271C78.6833 42.2271 81.9256 43.57 84.3161 45.9605C86.7066 48.3511 88.0496 51.5933 88.0496 54.974Z" fill="#6A4F83"/>
		<path d="M75.3026 40.3386C70.4281 40.3386 66.1602 42.4348 63.4999 45.978C60.8396 42.4348 56.5717 40.3386 51.6972 40.3386C47.817 40.343 44.0969 41.8863 41.3532 44.6301C38.6095 47.3738 37.0661 51.0938 37.0618 54.974C37.0618 71.4978 61.5619 84.8727 62.6052 85.4251C62.8802 85.573 63.1876 85.6504 63.4999 85.6504C63.8122 85.6504 64.1195 85.573 64.3945 85.4251C65.4379 84.8727 89.938 71.4978 89.938 54.974C89.9336 51.0938 88.3903 47.3738 85.6466 44.6301C82.9029 41.8863 79.1828 40.343 75.3026 40.3386ZM63.4999 81.601C59.1895 79.0894 40.8386 67.6478 40.8386 54.974C40.8424 52.0953 41.9876 49.3356 44.0232 47.3C46.0587 45.2645 48.8185 44.1192 51.6972 44.1155C56.2884 44.1155 60.1432 46.561 61.7531 50.489C61.8954 50.8353 62.1374 51.1316 62.4484 51.3401C62.7595 51.5486 63.1255 51.6599 63.4999 51.6599C63.8743 51.6599 64.2403 51.5486 64.5514 51.3401C64.8624 51.1316 65.1044 50.8353 65.2467 50.489C66.8566 46.5539 70.7114 44.1155 75.3026 44.1155C78.1813 44.1192 80.9411 45.2645 82.9766 47.3C85.0122 49.3356 86.1574 52.0953 86.1611 54.974C86.1611 67.6289 67.8055 79.087 63.4999 81.601Z" fill="#6A4F83"/>
	</g>
</svg>