<svg width="126" height="126" viewBox="0 0 126 126" fill="none" xmlns="http://www.w3.org/2000/svg">
<g opacity="0.3">
<rect width="126" height="126" rx="63" fill="#E0E0E0"/>
<path d="M71.6924 68.4112C71.6924 68.7841 71.5442 69.1418 71.2805 69.4055C71.0168 69.6693 70.6591 69.8174 70.2861 69.8174H55.2861C54.9132 69.8174 54.5555 69.6693 54.2918 69.4055C54.028 69.1418 53.8799 68.7841 53.8799 68.4112C53.8799 68.0382 54.028 67.6805 54.2918 67.4168C54.5555 67.1531 54.9132 67.0049 55.2861 67.0049H70.2861C70.6591 67.0049 71.0168 67.1531 71.2805 67.4168C71.5442 67.6805 71.6924 68.0382 71.6924 68.4112ZM70.2861 59.5049H55.2861C54.9132 59.5049 54.5555 59.6531 54.2918 59.9168C54.028 60.1805 53.8799 60.5382 53.8799 60.9112C53.8799 61.2841 54.028 61.6418 54.2918 61.9055C54.5555 62.1693 54.9132 62.3174 55.2861 62.3174H70.2861C70.6591 62.3174 71.0168 62.1693 71.2805 61.9055C71.5442 61.6418 71.6924 61.2841 71.6924 60.9112C71.6924 60.5382 71.5442 60.1805 71.2805 59.9168C71.0168 59.6531 70.6591 59.5049 70.2861 59.5049ZM82.9424 44.0362V83.4112C82.9424 84.2814 82.5967 85.116 81.9813 85.7314C81.366 86.3467 80.5314 86.6924 79.6611 86.6924H45.9111C45.0409 86.6924 44.2063 86.3467 43.5909 85.7314C42.9756 85.116 42.6299 84.2814 42.6299 83.4112V44.0362C42.6299 43.1659 42.9756 42.3313 43.5909 41.716C44.2063 41.1006 45.0409 40.7549 45.9111 40.7549H54.6229C55.633 39.5786 56.8854 38.6345 58.2944 37.9872C59.7034 37.34 61.2356 37.0049 62.7861 37.0049C64.3367 37.0049 65.8689 37.34 67.2778 37.9872C68.6868 38.6345 69.9393 39.5786 70.9494 40.7549H79.6611C80.5314 40.7549 81.366 41.1006 81.9813 41.716C82.5967 42.3313 82.9424 43.1659 82.9424 44.0362ZM54.8174 47.7862V48.2549H70.7549V47.7862C70.7549 45.6727 69.9153 43.6458 68.4209 42.1514C66.9265 40.657 64.8996 39.8174 62.7861 39.8174C60.6727 39.8174 58.6458 40.657 57.1514 42.1514C55.6569 43.6458 54.8174 45.6727 54.8174 47.7862ZM80.1299 44.0362C80.1299 43.9118 80.0805 43.7926 79.9926 43.7047C79.9047 43.6168 79.7855 43.5674 79.6611 43.5674H72.7072C73.2761 44.9011 73.5687 46.3362 73.5674 47.7862V49.6612C73.5674 50.0341 73.4192 50.3918 73.1555 50.6555C72.8918 50.9193 72.5341 51.0674 72.1611 51.0674H53.4111C53.0382 51.0674 52.6805 50.9193 52.4168 50.6555C52.153 50.3918 52.0049 50.0341 52.0049 49.6612V47.7862C52.0035 46.3362 52.2962 44.9011 52.865 43.5674H45.9111C45.7868 43.5674 45.6676 43.6168 45.5797 43.7047C45.4918 43.7926 45.4424 43.9118 45.4424 44.0362V83.4112C45.4424 83.5355 45.4918 83.6547 45.5797 83.7426C45.6676 83.8305 45.7868 83.8799 45.9111 83.8799H79.6611C79.7855 83.8799 79.9047 83.8305 79.9926 83.7426C80.0805 83.6547 80.1299 83.5355 80.1299 83.4112V44.0362Z" fill="#6A4F83"/>
</g>
</svg>
