<svg width="103" height="103" viewBox="0 0 103 103" fill="none" xmlns="http://www.w3.org/2000/svg">
<rect width="103" height="103" rx="51.5" fill="#C60808"/>
<path d="M51.5 22.4141C45.7474 22.4141 40.1239 24.1199 35.3407 27.3159C30.5576 30.5119 26.8296 35.0545 24.6281 40.3693C22.4267 45.6841 21.8507 51.5323 22.973 57.1744C24.0952 62.8165 26.8654 67.9991 30.9331 72.0669C35.0009 76.1346 40.1835 78.9048 45.8256 80.0271C51.4677 81.1493 57.316 80.5733 62.6307 78.3719C67.9455 76.1705 72.4881 72.4424 75.6841 67.6593C78.8801 62.8761 80.5859 57.2527 80.5859 51.5C80.5769 43.7887 77.5096 36.3958 72.0569 30.9431C66.6042 25.4904 59.2113 22.4231 51.5 22.4141ZM51.5 77.1641C46.4241 77.1641 41.4623 75.6589 37.2418 72.8389C33.0214 70.0189 29.732 66.0107 27.7895 61.3212C25.8471 56.6317 25.3388 51.4715 26.3291 46.4932C27.3193 41.5148 29.7636 36.942 33.3528 33.3528C36.942 29.7636 41.5149 27.3193 46.4932 26.3291C51.4715 25.3388 56.6317 25.847 61.3212 27.7895C66.0107 29.7319 70.0189 33.0214 72.8389 37.2418C75.6589 41.4622 77.1641 46.4241 77.1641 51.5C77.1565 58.3042 74.4502 64.8276 69.6389 69.6389C64.8276 74.4502 58.3042 77.1565 51.5 77.1641ZM49.7891 53.7812V37.8125C49.7891 37.3587 49.9693 36.9235 50.2902 36.6027C50.6111 36.2818 51.0462 36.1016 51.5 36.1016C51.9538 36.1016 52.389 36.2818 52.7098 36.6027C53.0307 36.9235 53.211 37.3587 53.211 37.8125V53.7812C53.211 54.235 53.0307 54.6702 52.7098 54.9911C52.389 55.3119 51.9538 55.4922 51.5 55.4922C51.0462 55.4922 50.6111 55.3119 50.2902 54.9911C49.9693 54.6702 49.7891 54.235 49.7891 53.7812ZM54.3516 64.0469C54.3516 64.6109 54.1843 65.1622 53.871 65.6311C53.5577 66.1001 53.1123 66.4655 52.5913 66.6814C52.0702 66.8972 51.4968 66.9537 50.9437 66.8436C50.3906 66.7336 49.8825 66.462 49.4837 66.0632C49.0849 65.6644 48.8133 65.1563 48.7032 64.6032C48.5932 64.05 48.6497 63.4767 48.8655 62.9556C49.0813 62.4346 49.4468 61.9892 49.9158 61.6759C50.3847 61.3626 50.936 61.1953 51.5 61.1953C52.2563 61.1953 52.9816 61.4957 53.5164 62.0305C54.0511 62.5653 54.3516 63.2906 54.3516 64.0469Z" fill="white"/>
</svg>
