<svg width="21" height="21" viewBox="0 0 21 21" fill="none" xmlns="http://www.w3.org/2000/svg">
<path opacity="0.2" d="M4.82155 12.6123L8.13781 15.9286L4.16097 17.3738C4.05132 17.4142 3.93243 17.4223 3.81833 17.3972C3.70424 17.3721 3.59971 17.3148 3.51711 17.2322C3.4345 17.1496 3.37727 17.0451 3.35218 16.931C3.32708 16.8169 3.33517 16.698 3.37549 16.5884L4.82155 12.6123ZM15.7255 12.2416L8.50856 5.02463C8.43578 4.95187 8.34582 4.89863 8.247 4.86986C8.14819 4.84109 8.04372 4.8377 7.94325 4.86002C7.84278 4.88234 7.74956 4.92964 7.67222 4.99754C7.59489 5.06544 7.53592 5.15176 7.5008 5.24849L6.33044 8.46893L12.2859 14.4244L15.5063 13.254C15.6036 13.2187 15.6903 13.1593 15.7584 13.0814C15.8265 13.0034 15.8737 12.9095 15.8956 12.8083C15.9175 12.7072 15.9133 12.6021 15.8836 12.503C15.8538 12.4039 15.7994 12.3139 15.7255 12.2416Z" fill="#6A4F83"/>
<path d="M8.95287 4.57978C8.80528 4.43259 8.623 4.32493 8.42284 4.26676C8.22267 4.20858 8.01108 4.20176 7.80759 4.24692C7.6041 4.29208 7.41526 4.38777 7.2585 4.52515C7.10173 4.66254 6.9821 4.83719 6.91064 5.033L2.78769 16.3737C2.71996 16.5607 2.69808 16.7612 2.72389 16.9584C2.7497 17.1556 2.82245 17.3438 2.93603 17.5071C3.0496 17.6704 3.20069 17.804 3.37661 17.8968C3.55254 17.9896 3.74815 18.0389 3.94705 18.0404C4.09349 18.0394 4.23863 18.0129 4.37592 17.9619L15.7158 13.8382C15.9117 13.7668 16.0864 13.6472 16.2239 13.4905C16.3613 13.3338 16.4571 13.1449 16.5023 12.9414C16.5476 12.7379 16.5408 12.5263 16.4827 12.3261C16.4246 12.1259 16.317 11.9436 16.1698 11.7959L8.95287 4.57978ZM8.29857 15.2002L5.54941 12.451L6.58309 9.60681L11.1428 14.1665L8.29857 15.2002ZM3.97847 16.7711L5.07813 13.7541L6.99861 15.6746L3.97847 16.7711ZM12.449 13.6921L7.05752 8.30057L8.07864 5.48308L15.2602 12.6647L12.449 13.6921ZM12.7632 6.10125C12.775 5.67644 12.8779 5.25911 13.0648 4.87748C13.4811 4.04566 14.2666 3.58773 15.2767 3.58773C15.803 3.58773 16.1407 3.40786 16.3489 3.02141C16.4585 2.8052 16.5214 2.56836 16.5335 2.32626C16.5341 2.15961 16.6009 2.00002 16.7192 1.88262C16.8375 1.76522 16.9975 1.69962 17.1642 1.70024C17.3309 1.70087 17.4904 1.76767 17.6078 1.88595C17.7252 2.00424 17.7908 2.16432 17.7902 2.33098C17.7902 3.34109 17.121 4.84449 15.2767 4.84449C14.7504 4.84449 14.4127 5.02436 14.2045 5.41082C14.0949 5.62702 14.032 5.86386 14.02 6.10596C14.0196 6.18848 14.0031 6.27013 13.9712 6.34625C13.9394 6.42237 13.8928 6.49147 13.8342 6.5496C13.7757 6.60773 13.7062 6.65376 13.6299 6.68505C13.5535 6.71634 13.4717 6.73229 13.3892 6.73198C13.3067 6.73167 13.225 6.71511 13.1489 6.68325C13.0728 6.65138 13.0037 6.60484 12.9456 6.54627C12.8874 6.4877 12.8414 6.41825 12.8101 6.3419C12.7788 6.26554 12.7629 6.18377 12.7632 6.10125ZM10.8781 3.58773V1.7026C10.8781 1.53594 10.9443 1.37611 11.0621 1.25827C11.18 1.14042 11.3398 1.07422 11.5064 1.07422C11.6731 1.07422 11.8329 1.14042 11.9508 1.25827C12.0686 1.37611 12.1348 1.53594 12.1348 1.7026V3.58773C12.1348 3.75439 12.0686 3.91422 11.9508 4.03206C11.8329 4.14991 11.6731 4.21611 11.5064 4.21611C11.3398 4.21611 11.18 4.14991 11.0621 4.03206C10.9443 3.91422 10.8781 3.75439 10.8781 3.58773ZM18.8632 10.0553C18.9215 10.1137 18.9678 10.183 18.9993 10.2593C19.0309 10.3355 19.0471 10.4173 19.0471 10.4998C19.047 10.5823 19.0307 10.664 18.9991 10.7403C18.9675 10.8165 18.9212 10.8857 18.8628 10.9441C18.8044 11.0024 18.7351 11.0487 18.6588 11.0802C18.5826 11.1118 18.5009 11.128 18.4183 11.128C18.3358 11.1279 18.2541 11.1116 18.1778 11.08C18.1016 11.0484 18.0324 11.0021 17.974 10.9437L16.7173 9.68693C16.5994 9.56902 16.5331 9.4091 16.5331 9.24235C16.5331 9.0756 16.5994 8.91568 16.7173 8.79777C16.8352 8.67987 16.9951 8.61362 17.1618 8.61362C17.3286 8.61362 17.4885 8.67987 17.6064 8.79777L18.8632 10.0553ZM19.2457 6.69742L17.3606 7.3258C17.2025 7.3785 17.0299 7.36624 16.8808 7.2917C16.7317 7.21717 16.6184 7.08646 16.5657 6.92835C16.513 6.77023 16.5252 6.59766 16.5998 6.44859C16.6743 6.29951 16.805 6.18616 16.9631 6.13345L18.8483 5.50507C19.0064 5.45237 19.1789 5.46463 19.328 5.53917C19.4771 5.6137 19.5904 5.74441 19.6432 5.90252C19.6959 6.06064 19.6836 6.23321 19.6091 6.38228C19.5345 6.53136 19.4038 6.64471 19.2457 6.69742Z" fill="#6A4F83"/>
</svg>
