<svg width="28" height="28" viewBox="0 0 28 28" fill="none" xmlns="http://www.w3.org/2000/svg">
<rect width="28" height="28" rx="14" fill="#F3EDF8"/>
<path d="M17.125 8.66699C15.8125 8.66699 14.6712 9.25887 14 10.2507C13.3288 9.25887 12.1875 8.66699 10.875 8.66699C9.88079 8.66815 8.92764 9.06361 8.22463 9.76662C7.52162 10.4696 7.12616 11.4228 7.125 12.417C7.125 14.242 8.2625 16.1414 10.5062 18.0614C11.5344 18.9375 12.645 19.7119 13.8225 20.3739C13.8771 20.4032 13.9381 20.4185 14 20.4185C14.0619 20.4185 14.1229 20.4032 14.1775 20.3739C15.355 19.7119 16.4656 18.9375 17.4937 18.0614C19.7375 16.1414 20.875 14.242 20.875 12.417C20.8738 11.4228 20.4784 10.4696 19.7754 9.76662C19.0724 9.06361 18.1192 8.66815 17.125 8.66699ZM14 19.6114C12.9744 19.0195 7.875 15.8995 7.875 12.417C7.87583 11.6216 8.19216 10.859 8.75459 10.2966C9.31702 9.73416 10.0796 9.41782 10.875 9.41699C12.1425 9.41699 13.2069 10.0939 13.6531 11.1839C13.6814 11.2526 13.7294 11.3115 13.7912 11.3529C13.853 11.3943 13.9256 11.4164 14 11.4164C14.0744 11.4164 14.147 11.3943 14.2088 11.3529C14.2706 11.3115 14.3186 11.2526 14.3469 11.1839C14.7931 10.0939 15.8575 9.41699 17.125 9.41699C17.9204 9.41782 18.683 9.73416 19.2454 10.2966C19.8078 10.859 20.1242 11.6216 20.125 12.417C20.125 15.8995 15.0256 19.0195 14 19.6114Z" fill="#6A4F83"/>
</svg>
