<svg width="28" height="28" viewBox="0 0 28 28" fill="none" xmlns="http://www.w3.org/2000/svg">
	<rect width="28" height="28" rx="14" fill="white"/>
	<path d="M21 11.875C21 16.25 14.5131 19.7913 14.2369 19.9375C14.1641 19.9767 14.0827 19.9972 14 19.9972C13.9173 19.9972 13.8359 19.9767 13.7631 19.9375C13.4869 19.7913 7 16.25 7 11.875C7.00116 10.8476 7.40979 9.86269 8.13624 9.13624C8.86269 8.40979 9.84764 8.00116 10.875 8C12.1656 8 13.2956 8.555 14 9.49312C14.7044 8.555 15.8344 8 17.125 8C18.1524 8.00116 19.1373 8.40979 19.8638 9.13624C20.5902 9.86269 20.9988 10.8476 21 11.875Z" fill="#E94A4C"/>
</svg>