<svg width="28" height="28" viewBox="0 0 28 28" fill="none" xmlns="http://www.w3.org/2000/svg">
	<rect width="28" height="28" rx="14" fill="white"/>
	<path d="M17.125 8.66675C15.8125 8.66675 14.6712 9.25862 14 10.2505C13.3288 9.25862 12.1875 8.66675 10.875 8.66675C9.88079 8.66791 8.92764 9.06337 8.22463 9.76638C7.52162 10.4694 7.12616 11.4225 7.125 12.4167C7.125 14.2417 8.2625 16.1411 10.5062 18.0611C11.5344 18.9372 12.645 19.7117 13.8225 20.3736C13.8771 20.4029 13.9381 20.4183 14 20.4183C14.0619 20.4183 14.1229 20.4029 14.1775 20.3736C15.355 19.7117 16.4656 18.9372 17.4937 18.0611C19.7375 16.1411 20.875 14.2417 20.875 12.4167C20.8738 11.4225 20.4784 10.4694 19.7754 9.76638C19.0724 9.06337 18.1192 8.66791 17.125 8.66675ZM14 19.6111C12.9744 19.0192 7.875 15.8992 7.875 12.4167C7.87583 11.6214 8.19216 10.8588 8.75459 10.2963C9.31702 9.73391 10.0796 9.41758 10.875 9.41675C12.1425 9.41675 13.2069 10.0936 13.6531 11.1836C13.6814 11.2524 13.7294 11.3112 13.7912 11.3526C13.853 11.394 13.9256 11.4161 14 11.4161C14.0744 11.4161 14.147 11.394 14.2088 11.3526C14.2706 11.3112 14.3186 11.2524 14.3469 11.1836C14.7931 10.0936 15.8575 9.41675 17.125 9.41675C17.9204 9.41758 18.683 9.73391 19.2454 10.2963C19.8078 10.8588 20.1242 11.6214 20.125 12.4167C20.125 15.8992 15.0256 19.0192 14 19.6111Z" fill="#303030"/>
</svg>