<svg width="94" height="94" viewBox="0 0 94 94" fill="none" xmlns="http://www.w3.org/2000/svg">
<path d="M71.6382 18.1207H69.9858C74.9429 18.1207 73.6761 11.5113 69.9858 11.5113C67.9663 11.5113 62.2933 13.9531 58.1624 15.8808C55.5554 17.0926 53.5542 18.084 53.4624 18.1207C53.5358 18.0472 55.5554 16.0277 58.4011 13.7879C62.844 10.2629 69.2882 6.20545 73.2905 8.20662C79.8999 11.5113 78.2476 18.1207 71.6382 18.1207Z" fill="#CAB9DB"/>
<path d="M53.4624 18.1208C53.389 18.084 51.3878 17.0743 48.7624 15.8809C44.6315 13.9715 38.9401 11.5114 36.939 11.5114C33.2487 11.5114 31.9819 18.1208 36.939 18.1208H35.2866C28.6773 18.1208 27.0249 11.5114 33.6343 8.2067C37.6366 6.20553 44.0808 10.2813 48.5237 13.7879C51.3694 16.0462 53.389 18.0473 53.4624 18.1208Z" fill="#CAB9DB"/>
<path d="M53.4626 18.1207C53.3892 18.0472 51.3696 16.0277 48.5239 13.7879C48.781 11.291 50.8923 9.32654 53.4626 9.32654C56.0329 9.32654 58.1442 11.291 58.4013 13.7879C55.5739 16.0461 53.536 18.0472 53.4626 18.1207Z" fill="#6A4F83"/>
<path d="M58.4932 17.9922V60.5492H56.1799C56.3084 60.2371 56.4369 59.925 56.5287 59.6313C56.8959 58.5664 56.1248 57.4648 54.9865 57.4648H47.8447V17.9922H58.4932Z" fill="#CAB9DB"/>
<path d="M14.5037 88.2352C15.7813 88.2352 16.817 87.1995 16.817 85.9219C16.817 84.6443 15.7813 83.6086 14.5037 83.6086C13.2261 83.6086 12.1904 84.6443 12.1904 85.9219C12.1904 87.1995 13.2261 88.2352 14.5037 88.2352Z" fill="#CAB9DB"/>
<path d="M85.9036 4.44299C85.6649 4.44299 85.4263 4.3512 85.261 4.1676C84.8938 3.80042 84.8938 3.23127 85.261 2.86409L86.436 1.68909C86.8032 1.3219 87.3724 1.3219 87.7396 1.68909C88.1067 2.05627 88.1067 2.62542 87.7396 2.9926L86.5646 4.1676C86.381 4.3512 86.1423 4.44299 85.9036 4.44299ZM83.572 4.44299C83.3333 4.44299 83.0946 4.3512 82.9294 4.1676L81.7544 2.9926C81.3872 2.62542 81.3872 2.05627 81.7544 1.68909C82.1216 1.3219 82.6907 1.3219 83.0579 1.68909L84.2329 2.86409C84.6001 3.23127 84.6001 3.80042 84.2329 4.1676C84.0493 4.3512 83.8106 4.44299 83.572 4.44299ZM87.0786 7.94963C86.8399 7.94963 86.6013 7.85784 86.436 7.67424L85.261 6.49924C84.8938 6.13206 84.8938 5.56292 85.261 5.19573C85.6282 4.82854 86.1974 4.82854 86.5646 5.19573L87.7396 6.37073C88.1067 6.73792 88.1067 7.30706 87.7396 7.67424C87.556 7.85784 87.3173 7.94963 87.0786 7.94963ZM82.397 7.94963C82.1583 7.94963 81.9196 7.85784 81.7544 7.67424C81.3872 7.30706 81.3872 6.73792 81.7544 6.37073L82.9294 5.19573C83.2966 4.82854 83.8657 4.82854 84.2329 5.19573C84.6001 5.56292 84.6001 6.13206 84.2329 6.49924L83.0579 7.67424C82.8743 7.85784 82.6356 7.94963 82.397 7.94963Z" fill="#CAB9DB"/>
<g opacity="0.3">
<path d="M20.544 24.6383C20.3054 24.6383 20.0667 24.5465 19.9015 24.3629C19.5343 23.9957 19.5343 23.4266 19.9015 23.0594L21.0765 21.8844C21.4437 21.5172 22.0128 21.5172 22.38 21.8844C22.7472 22.2516 22.7472 22.8207 22.38 23.1879L21.205 24.3629C21.003 24.5465 20.7644 24.6383 20.544 24.6383ZM18.194 24.6383C17.9554 24.6383 17.7167 24.5465 17.5515 24.3629L16.3765 23.1879C16.0093 22.8207 16.0093 22.2516 16.3765 21.8844C16.7437 21.5172 17.3128 21.5172 17.68 21.8844L18.855 23.0594C19.2222 23.4266 19.2222 23.9957 18.855 24.3629C18.6714 24.5465 18.4327 24.6383 18.194 24.6383ZM21.7007 28.1449C21.462 28.1449 21.2233 28.0532 21.0581 27.8696L19.8831 26.6946C19.5159 26.3274 19.5159 25.7582 19.8831 25.391C20.2503 25.0239 20.8194 25.0239 21.1866 25.391L22.3616 26.566C22.7288 26.9332 22.7288 27.5024 22.3616 27.8696C22.178 28.0532 21.9394 28.1449 21.7007 28.1449ZM17.0374 28.1449C16.7987 28.1449 16.5601 28.0532 16.3948 27.8696C16.0276 27.5024 16.0276 26.9332 16.3948 26.566L17.5698 25.391C17.937 25.0239 18.5062 25.0239 18.8733 25.391C19.2405 25.7582 19.2405 26.3274 18.8733 26.6946L17.6983 27.8696C17.4964 28.0532 17.2761 28.1449 17.0374 28.1449Z" fill="#C79AF1"/>
</g>
<path d="M85.3526 41.4554C85.114 41.4554 84.8753 41.3636 84.7101 41.1801C84.3429 40.8129 84.3429 40.2437 84.7101 39.8765L85.8851 38.7015C86.2522 38.3344 86.8214 38.3344 87.1886 38.7015C87.5558 39.0687 87.5558 39.6379 87.1886 40.0051L86.0136 41.1801C85.8116 41.3636 85.5729 41.4554 85.3526 41.4554ZM83.0026 41.4554C82.764 41.4554 82.5253 41.3636 82.3601 41.1801L81.1851 40.0051C80.8179 39.6379 80.8179 39.0687 81.1851 38.7015C81.5522 38.3344 82.1214 38.3344 82.4886 38.7015L83.6636 39.8765C84.0308 40.2437 84.0308 40.8129 83.6636 41.1801C83.48 41.3636 83.2413 41.4554 83.0026 41.4554ZM86.5093 44.9437C86.2706 44.9437 86.0319 44.8519 85.8667 44.6683L84.6917 43.4933C84.3245 43.1261 84.3245 42.557 84.6917 42.1898C85.0589 41.8226 85.628 41.8226 85.9952 42.1898L87.1702 43.3648C87.5374 43.732 87.5374 44.3011 87.1702 44.6683C86.9866 44.8703 86.7479 44.9437 86.5093 44.9437ZM81.846 44.9437C81.6073 44.9437 81.3686 44.8519 81.2034 44.6683C80.8362 44.3011 80.8362 43.732 81.2034 43.3648L82.3784 42.1898C82.7456 41.8226 83.3147 41.8226 83.6819 42.1898C84.0491 42.557 84.0491 43.1261 83.6819 43.4933L82.5069 44.6683C82.305 44.8703 82.0847 44.9437 81.846 44.9437Z" fill="#CAB9DB"/>
<path d="M8.84941 13.5492H7.08691C6.26074 13.5492 5.58145 12.8699 5.58145 12.0438V11.1992H4.73691C3.91074 11.1992 3.23145 10.5199 3.23145 9.69377V7.93127C3.23145 7.41721 3.63535 7.01331 4.14941 7.01331C4.66348 7.01331 5.06738 7.41721 5.06738 7.93127V9.34495H5.91191C6.73809 9.34495 7.41738 10.0242 7.41738 10.8504V11.6949H8.83105C9.34512 11.6949 9.74902 12.0989 9.74902 12.6129C9.74902 13.127 9.36348 13.5492 8.84941 13.5492Z" fill="#CAB9DB"/>
<path d="M27.7595 9.12464C27.7044 9.12464 27.6493 9.12464 27.5759 9.10629L25.8501 8.77582C25.0423 8.61058 24.5099 7.82113 24.6751 7.01332L24.8403 6.18714L24.0142 6.02191C23.2064 5.85668 22.6739 5.06722 22.8392 4.25941L23.1696 2.53363C23.2614 2.03793 23.7571 1.70746 24.2528 1.81761C24.7486 1.90941 25.079 2.40511 24.9689 2.90082L24.6935 4.29613L25.5196 4.46136C25.9052 4.5348 26.254 4.77347 26.4743 5.10394C26.6946 5.43441 26.7864 5.83832 26.6946 6.22386L26.5294 7.05004L27.9247 7.32543C28.4204 7.41722 28.7509 7.91293 28.6407 8.40863C28.5673 8.83089 28.1818 9.12464 27.7595 9.12464Z" fill="#EBE8EE"/>
<path d="M85.9403 23.4633C85.518 23.4633 85.1508 23.1879 85.0407 22.7656C84.9305 22.2699 85.2242 21.7742 85.7199 21.664L87.0969 21.3336L86.8949 20.5258C86.7113 19.7179 87.2071 18.9101 87.9965 18.7082L88.8043 18.5062L88.4739 17.1293C88.3637 16.6336 88.6574 16.1379 89.1531 16.0277C89.6489 15.9176 90.1446 16.2113 90.2547 16.707L90.6586 18.4144C90.8422 19.2222 90.3465 20.0301 89.5571 20.232L88.7492 20.434L88.9512 21.2418C89.043 21.6273 88.9879 22.0312 88.7676 22.3801C88.5656 22.7289 88.2352 22.9676 87.8313 23.0594L86.1239 23.4633C86.0871 23.4633 86.0137 23.4633 85.9403 23.4633Z" fill="#EBE8EE"/>
<path d="M84.4716 58.0707C84.4349 57.1711 83.9208 56.3633 83.1313 55.9226C81.9196 55.2617 80.5794 54.8945 79.1657 54.8394V25.4828H80.4325C80.9466 25.4828 81.3505 25.0789 81.3505 24.5648V17.9554C81.3505 17.4414 80.9466 17.0375 80.4325 17.0375H25.9052C25.3911 17.0375 24.9872 17.4414 24.9872 17.9554V24.5648C24.9872 25.0789 25.3911 25.4828 25.9052 25.4828H27.172V60.5492C27.172 61.0633 27.5759 61.4672 28.0899 61.4672H29.981L28.3286 63.1195C27.7778 63.6703 27.0985 64.0191 26.3458 64.1476V62.1832C26.3458 61.6691 25.9419 61.2652 25.4278 61.2652H21.4622V60.9531C21.4622 60.439 21.0583 60.0351 20.5442 60.0351H5.01221C4.49814 60.0351 4.09424 60.439 4.09424 60.9531C4.09424 61.4672 4.49814 61.8711 5.01221 61.8711H19.6263V90.7136H5.01221C4.49814 90.7136 4.09424 91.1175 4.09424 91.6316C4.09424 92.1457 4.49814 92.5496 5.01221 92.5496H20.5442C21.0583 92.5496 21.4622 92.1457 21.4622 91.6316V89.1347H25.4278C25.9419 89.1347 26.3458 88.7308 26.3458 88.2168V83.2597H33.9649C35.5438 83.2597 37.1044 82.9843 38.5915 82.4152L65.7634 72.1707C66.2224 72.0054 66.6446 71.7668 67.0485 71.4914L83.3517 60.2922C84.1044 59.8148 84.5083 58.9703 84.4716 58.0707ZM26.8231 18.8734H79.5145V23.6469H78.2478H28.0899H26.8231V18.8734ZM31.8169 59.6312H29.0079V25.4828H77.3298V54.9496C77.3114 54.9496 77.3114 54.9496 77.2931 54.9496C77.1646 54.9679 77.036 54.9863 76.9075 55.023C76.8892 55.023 76.8892 55.023 76.8708 55.023C76.7423 55.0414 76.6138 55.0781 76.4853 55.0965H76.4669C76.3384 55.1332 76.2282 55.1515 76.0997 55.1883C76.0814 55.1883 76.063 55.1883 76.0446 55.2066C75.9345 55.2433 75.8243 55.2617 75.7142 55.2984C75.6958 55.2984 75.6774 55.3168 75.6591 55.3168C75.5489 55.3535 75.4388 55.3902 75.347 55.4086C75.3286 55.4086 75.3103 55.4269 75.2919 55.4269C75.1817 55.4636 75.0899 55.5004 74.9798 55.5371C74.9614 55.5371 74.9614 55.5371 74.9614 55.5554C74.8696 55.5922 74.7778 55.6289 74.686 55.6656C74.6677 55.6656 74.6677 55.6656 74.6493 55.684C74.5575 55.7207 74.4657 55.7574 74.3923 55.7941C74.3739 55.7941 74.3556 55.8125 74.3372 55.8125C74.2638 55.8492 74.172 55.8859 74.0985 55.9226C74.0802 55.9226 74.0618 55.941 74.0435 55.941C73.97 55.9777 73.8966 56.0144 73.8415 56.0328C73.8232 56.0328 73.8232 56.0511 73.8048 56.0511C73.7314 56.0879 73.6763 56.1062 73.6212 56.1429C73.6212 56.1429 73.6028 56.1429 73.6028 56.1613C73.5478 56.198 73.4927 56.2164 73.456 56.2347C73.4376 56.2347 73.4376 56.2531 73.4192 56.2531C73.3642 56.2715 73.3274 56.3082 73.2907 56.3265C73.2724 56.3265 73.2724 56.3449 73.254 56.3449C73.2173 56.3633 73.1806 56.3816 73.1622 56.4C73.1439 56.4 73.1438 56.4183 73.1255 56.4183C73.1071 56.4367 73.0888 56.4367 73.0704 56.4551C73.0337 56.4734 73.0153 56.4918 72.997 56.5101L67.6728 59.6312H62.2751H57.4649C57.4833 59.5394 57.5017 59.4476 57.5017 59.3558C57.5017 59.3191 57.5017 59.3008 57.5017 59.264C57.5017 59.1906 57.5017 59.1355 57.5017 59.0621C57.5017 59.0254 57.5017 58.9886 57.5017 58.9519C57.5017 58.8969 57.5017 58.8418 57.4833 58.7683C57.4833 58.7316 57.4649 58.6949 57.4649 58.6582C57.4466 58.6031 57.4466 58.548 57.4282 58.4929C57.4282 58.4562 57.4099 58.4195 57.3915 58.3828C57.3731 58.3277 57.3548 58.2726 57.3364 58.2176C57.3181 58.1808 57.3181 58.1441 57.2997 58.1074C57.2813 58.0523 57.2446 57.9972 57.2263 57.9238C57.2079 57.8871 57.2079 57.8687 57.1896 57.832C57.1345 57.7402 57.0978 57.6668 57.0427 57.5933C56.5653 56.9324 55.7942 56.5285 54.9681 56.5285H37.8204C35.9294 56.5285 34.1669 57.2629 32.8267 58.5847L31.8169 59.6312ZM56.7489 61.4672H60.6595L58.7685 64.6801H55.1333L54.0685 64.5515C54.9864 64.0742 55.9411 63.1379 56.7489 61.4672ZM62.7892 61.4672H64.5333L61.8712 63.0277L62.7892 61.4672ZM24.5099 87.3172H21.4622V63.1012H24.5099V65.1207V82.3601V87.3172ZM82.3235 58.8234L66.0204 70.0226C65.745 70.2062 65.4513 70.3715 65.1208 70.4816L37.9489 80.7262C36.6638 81.2035 35.3235 81.4605 33.9649 81.4605H26.3458V66.0203C27.5759 65.8918 28.7325 65.341 29.6138 64.4414L34.1118 59.9433C35.1032 58.9519 36.4067 58.4195 37.8021 58.4195H54.9681C55.2067 58.4195 55.4087 58.5297 55.5372 58.7133C55.6657 58.8968 55.7024 59.1355 55.629 59.3558C55.5372 59.6312 55.4271 59.925 55.2985 60.2004C54.711 61.5773 53.6646 63.2297 52.0489 63.2297H42.6306C42.1532 63.2297 41.7493 63.6152 41.7126 64.0925C41.6759 64.5699 42.0431 64.9922 42.5204 65.0656L54.9314 66.5343C54.9681 66.5343 55.0048 66.5343 55.0415 66.5343H59.2642C59.3009 66.5343 59.3376 66.5343 59.3927 66.5343H59.411C59.4478 66.5343 59.4845 66.516 59.5212 66.516H59.5396C59.5763 66.516 59.5946 66.4976 59.6313 66.4793C59.6681 66.4609 59.7048 66.4426 59.7415 66.4242L68.3337 61.3937C68.3521 61.3937 68.3521 61.3754 68.3704 61.3754L73.9333 58.1258C73.9517 58.1258 73.9517 58.1074 73.97 58.1074C73.97 58.1074 73.9884 58.089 74.0251 58.0707C74.3556 57.8687 76.1181 56.8773 78.3212 56.7304C79.7532 56.6386 81.0751 56.914 82.2501 57.575C82.5806 57.7586 82.6356 58.0707 82.6356 58.1992C82.6356 58.291 82.6173 58.6031 82.3235 58.8234Z" fill="#6A4F83"/>
</svg>
