<svg width="16" height="16" viewBox="0 0 16 16" fill="none" xmlns="http://www.w3.org/2000/svg">
	<path opacity="0.2" d="M12 6C12 6.79113 11.7654 7.56448 11.3259 8.22228C10.8864 8.88008 10.2616 9.39277 9.53074 9.69552C8.79983 9.99827 7.99556 10.0775 7.21964 9.92314C6.44372 9.7688 5.73098 9.38784 5.17157 8.82843C4.61216 8.26902 4.2312 7.55629 4.07686 6.78036C3.92252 6.00444 4.00173 5.20017 4.30448 4.46927C4.60723 3.73836 5.11992 3.11365 5.77772 2.67412C6.43552 2.2346 7.20888 2 8 2C9.06087 2 10.0783 2.42143 10.8284 3.17157C11.5786 3.92172 12 4.93913 12 6Z" fill="#6A4F83"/>
	<path d="M14.4325 13.25C13.4806 11.6044 12.0137 10.4244 10.3019 9.86499C11.1486 9.3609 11.8065 8.59279 12.1745 7.67861C12.5425 6.76444 12.6002 5.75474 12.3388 4.80459C12.0774 3.85444 11.5113 3.01636 10.7275 2.41907C9.94366 1.82178 8.98544 1.49829 7.99999 1.49829C7.01453 1.49829 6.05632 1.82178 5.2725 2.41907C4.48869 3.01636 3.92261 3.85444 3.6612 4.80459C3.39979 5.75474 3.4575 6.76444 3.82548 7.67861C4.19345 8.59279 4.85134 9.3609 5.69811 9.86499C3.98624 10.4237 2.51936 11.6037 1.56749 13.25C1.53258 13.3069 1.50943 13.3702 1.49939 13.4363C1.48936 13.5023 1.49265 13.5696 1.50906 13.6343C1.52548 13.6991 1.55469 13.7598 1.59498 13.8131C1.63527 13.8663 1.68581 13.911 1.74363 13.9444C1.80144 13.9778 1.86536 13.9992 1.93162 14.0075C1.99787 14.0158 2.06511 14.0108 2.12937 13.9926C2.19364 13.9745 2.25362 13.9437 2.30579 13.902C2.35796 13.8604 2.40125 13.8087 2.43311 13.75C3.61061 11.715 5.69186 10.5 7.99999 10.5C10.3081 10.5 12.3894 11.715 13.5669 13.75C13.5987 13.8087 13.642 13.8604 13.6942 13.902C13.7463 13.9437 13.8063 13.9745 13.8706 13.9926C13.9349 14.0108 14.0021 14.0158 14.0684 14.0075C14.1346 13.9992 14.1985 13.9778 14.2563 13.9444C14.3142 13.911 14.3647 13.8663 14.405 13.8131C14.4453 13.7598 14.4745 13.6991 14.4909 13.6343C14.5073 13.5696 14.5106 13.5023 14.5006 13.4363C14.4905 13.3702 14.4674 13.3069 14.4325 13.25ZM4.49999 5.99999C4.49999 5.30776 4.70526 4.63107 5.08984 4.0555C5.47443 3.47992 6.02105 3.03132 6.66059 2.76641C7.30014 2.50151 8.00387 2.43219 8.6828 2.56724C9.36174 2.70229 9.98538 3.03563 10.4749 3.52512C10.9643 4.0146 11.2977 4.63824 11.4327 5.31718C11.5678 5.99611 11.4985 6.69984 11.2336 7.33938C10.9687 7.97892 10.5201 8.52555 9.94448 8.91014C9.36891 9.29472 8.69222 9.49999 7.99999 9.49999C7.07203 9.499 6.18237 9.12993 5.52621 8.47377C4.87005 7.81761 4.50098 6.92794 4.49999 5.99999Z" fill="#6A4F83"/>
</svg>