<svg width="16" height="16" viewBox="0 0 16 16" fill="none" xmlns="http://www.w3.org/2000/svg">
<path opacity="0.2" d="M14 6.5H2L2.66563 3.395C2.68964 3.2832 2.75125 3.183 2.84019 3.11112C2.92913 3.03924 3.04002 3.00002 3.15438 3H12.8456C12.96 3.00002 13.0709 3.03924 13.1598 3.11112C13.2487 3.183 13.3104 3.2832 13.3344 3.395L14 6.5Z" fill="#6A4F83"/>
<path d="M15 6H14.4044L13.8237 3.29063C13.775 3.06723 13.6515 2.86714 13.4736 2.7234C13.2958 2.57965 13.0743 2.50085 12.8456 2.5H3.15438C2.92572 2.50085 2.70418 2.57965 2.52635 2.7234C2.34852 2.86714 2.22502 3.06723 2.17625 3.29063L1.59563 6H1C0.867392 6 0.740215 6.05268 0.646447 6.14645C0.552678 6.24021 0.5 6.36739 0.5 6.5C0.5 6.63261 0.552678 6.75979 0.646447 6.85355C0.740215 6.94732 0.867392 7 1 7H1.5V13C1.5 13.2652 1.60536 13.5196 1.79289 13.7071C1.98043 13.8946 2.23478 14 2.5 14H4C4.26522 14 4.51957 13.8946 4.70711 13.7071C4.89464 13.5196 5 13.2652 5 13V11.5H11V13C11 13.2652 11.1054 13.5196 11.2929 13.7071C11.4804 13.8946 11.7348 14 12 14H13.5C13.7652 14 14.0196 13.8946 14.2071 13.7071C14.3946 13.5196 14.5 13.2652 14.5 13V7H15C15.1326 7 15.2598 6.94732 15.3536 6.85355C15.4473 6.75979 15.5 6.63261 15.5 6.5C15.5 6.36739 15.4473 6.24021 15.3536 6.14645C15.2598 6.05268 15.1326 6 15 6ZM3.15438 3.5H12.8456L13.3813 6H2.61875L3.15438 3.5ZM4 13H2.5V11.5H4V13ZM12 13V11.5H13.5V13H12ZM13.5 10.5H9.5V8.5C9.5 8.36739 9.44732 8.24021 9.35355 8.14645C9.25979 8.05268 9.13261 8 9 8C8.86739 8 8.74021 8.05268 8.64645 8.14645C8.55268 8.24021 8.5 8.36739 8.5 8.5V10.5H7.5V8.5C7.5 8.36739 7.44732 8.24021 7.35355 8.14645C7.25979 8.05268 7.13261 8 7 8C6.86739 8 6.74021 8.05268 6.64645 8.14645C6.55268 8.24021 6.5 8.36739 6.5 8.5V10.5H2.5V7H13.5V10.5ZM3.5 8.75C3.5 8.60166 3.54399 8.45666 3.6264 8.33332C3.70881 8.20999 3.82594 8.11386 3.96299 8.05709C4.10003 8.00033 4.25083 7.98547 4.39632 8.01441C4.5418 8.04335 4.67544 8.11478 4.78033 8.21967C4.88522 8.32456 4.95665 8.4582 4.98559 8.60368C5.01453 8.74917 4.99968 8.89997 4.94291 9.03701C4.88614 9.17406 4.79001 9.29119 4.66668 9.3736C4.54334 9.45601 4.39834 9.5 4.25 9.5C4.05109 9.5 3.86032 9.42098 3.71967 9.28033C3.57902 9.13968 3.5 8.94891 3.5 8.75ZM11 8.75C11 8.60166 11.044 8.45666 11.1264 8.33332C11.2088 8.20999 11.3259 8.11386 11.463 8.05709C11.6 8.00033 11.7508 7.98547 11.8963 8.01441C12.0418 8.04335 12.1754 8.11478 12.2803 8.21967C12.3852 8.32456 12.4566 8.4582 12.4856 8.60368C12.5145 8.74917 12.4997 8.89997 12.4429 9.03701C12.3861 9.17406 12.29 9.29119 12.1667 9.3736C12.0433 9.45601 11.8983 9.5 11.75 9.5C11.5511 9.5 11.3603 9.42098 11.2197 9.28033C11.079 9.13968 11 8.94891 11 8.75Z" fill="#6A4F83"/>
</svg>
