<svg width="28" height="29" viewBox="0 0 28 29" fill="none" xmlns="http://www.w3.org/2000/svg">
	<rect x="27.5" y="27.875" width="27" height="27" rx="13.5" transform="rotate(-180 27.5 27.875)" fill="white"/>
	<rect x="27.5" y="27.875" width="27" height="27" rx="13.5" transform="rotate(-180 27.5 27.875)" stroke="#F1F1F1"/>
	<path d="M10.7351 14.11L15.7351 9.10995C15.8062 9.04371 15.9002 9.00765 15.9973 9.00937C16.0945 9.01108 16.1872 9.05044 16.2559 9.11914C16.3246 9.18785 16.364 9.28054 16.3657 9.37769C16.3674 9.47484 16.3313 9.56887 16.2651 9.63995L11.5307 14.375L16.2651 19.11C16.3313 19.181 16.3674 19.2751 16.3657 19.3722C16.364 19.4694 16.3246 19.5621 16.2559 19.6308C16.1872 19.6995 16.0945 19.7388 15.9973 19.7405C15.9002 19.7423 15.8062 19.7062 15.7351 19.64L10.7351 14.64C10.6649 14.5696 10.6254 14.4743 10.6254 14.375C10.6254 14.2756 10.6649 14.1803 10.7351 14.11Z" fill="#303030"/>
</svg>
