<svg width="25" height="24" viewBox="0 0 25 24" fill="none" xmlns="http://www.w3.org/2000/svg">
  <path d="M23.25 8.8125C23.25 15.375 13.5197 20.6869 13.1053 20.9062C12.9961 20.965 12.874 20.9958 12.75 20.9958C12.626 20.9958 12.5039 20.965 12.3947 20.9062C11.9803 20.6869 2.25 15.375 2.25 8.8125C2.25174 7.27146 2.86468 5.79404 3.95436 4.70436C5.04404 3.61468 6.52146 3.00174 8.0625 3C9.99844 3 11.6934 3.8325 12.75 5.23969C13.8066 3.8325 15.5016 3 17.4375 3C18.9785 3.00174 20.456 3.61468 21.5456 4.70436C22.6353 5.79404 23.2483 7.27146 23.25 8.8125Z" fill="#6A4F83"/>
</svg>
