<svg width="25" height="24" viewBox="0 0 25 24" fill="none" xmlns="http://www.w3.org/2000/svg">
  <path d="M10.5 3.9375H6C5.6519 3.9375 5.31806 4.07578 5.07192 4.32192C4.82578 4.56806 4.6875 4.9019 4.6875 5.25V9.75C4.6875 9.92236 4.72145 10.093 4.78741 10.2523C4.85337 10.4115 4.95005 10.5562 5.07192 10.6781C5.1938 10.8 5.33849 10.8966 5.49773 10.9626C5.65697 11.0286 5.82764 11.0625 6 11.0625H10.5C10.6724 11.0625 10.843 11.0286 11.0023 10.9626C11.1615 10.8966 11.3062 10.8 11.4281 10.6781C11.55 10.5562 11.6466 10.4115 11.7126 10.2523C11.7786 10.093 11.8125 9.92236 11.8125 9.75V5.25C11.8125 5.07764 11.7786 4.90697 11.7126 4.74773C11.6466 4.58849 11.55 4.4438 11.4281 4.32192C11.3062 4.20005 11.1615 4.10337 11.0023 4.03741C10.843 3.97145 10.6724 3.9375 10.5 3.9375ZM10.6875 9.75C10.6875 9.79973 10.6677 9.84742 10.6326 9.88258C10.5974 9.91775 10.5497 9.9375 10.5 9.9375H6C5.95027 9.9375 5.90258 9.91775 5.86742 9.88258C5.83225 9.84742 5.8125 9.79973 5.8125 9.75V5.25C5.8125 5.20027 5.83225 5.15258 5.86742 5.11742C5.90258 5.08225 5.95027 5.0625 6 5.0625H10.5C10.5497 5.0625 10.5974 5.08225 10.6326 5.11742C10.6677 5.15258 10.6875 5.20027 10.6875 5.25V9.75ZM19.5 3.9375H15C14.6519 3.9375 14.3181 4.07578 14.0719 4.32192C13.8258 4.56806 13.6875 4.9019 13.6875 5.25V9.75C13.6875 9.92236 13.7214 10.093 13.7874 10.2523C13.8534 10.4115 13.95 10.5562 14.0719 10.6781C14.1938 10.8 14.3385 10.8966 14.4977 10.9626C14.657 11.0286 14.8276 11.0625 15 11.0625H19.5C19.6724 11.0625 19.843 11.0286 20.0023 10.9626C20.1615 10.8966 20.3062 10.8 20.4281 10.6781C20.55 10.5562 20.6466 10.4115 20.7126 10.2523C20.7786 10.093 20.8125 9.92236 20.8125 9.75V5.25C20.8125 4.9019 20.6742 4.56806 20.4281 4.32192C20.1819 4.07578 19.8481 3.9375 19.5 3.9375ZM19.6875 9.75C19.6875 9.79973 19.6677 9.84742 19.6326 9.88258C19.5974 9.91775 19.5497 9.9375 19.5 9.9375H15C14.9503 9.9375 14.9026 9.91775 14.8674 9.88258C14.8323 9.84742 14.8125 9.79973 14.8125 9.75V5.25C14.8125 5.20027 14.8323 5.15258 14.8674 5.11742C14.9026 5.08225 14.9503 5.0625 15 5.0625H19.5C19.5497 5.0625 19.5974 5.08225 19.6326 5.11742C19.6677 5.15258 19.6875 5.20027 19.6875 5.25V9.75ZM10.5 12.9375H6C5.6519 12.9375 5.31806 13.0758 5.07192 13.3219C4.82578 13.5681 4.6875 13.9019 4.6875 14.25V18.75C4.6875 19.0981 4.82578 19.4319 5.07192 19.6781C5.31806 19.9242 5.6519 20.0625 6 20.0625H10.5C10.6724 20.0625 10.843 20.0286 11.0023 19.9626C11.1615 19.8966 11.3062 19.8 11.4281 19.6781C11.55 19.5562 11.6466 19.4115 11.7126 19.2523C11.7786 19.093 11.8125 18.9224 11.8125 18.75V14.25C11.8125 14.0776 11.7786 13.907 11.7126 13.7477C11.6466 13.5885 11.55 13.4438 11.4281 13.3219C11.3062 13.2 11.1615 13.1034 11.0023 13.0374C10.843 12.9714 10.6724 12.9375 10.5 12.9375ZM10.6875 18.75C10.6875 18.7997 10.6677 18.8474 10.6326 18.8826C10.5974 18.9177 10.5497 18.9375 10.5 18.9375H6C5.95027 18.9375 5.90258 18.9177 5.86742 18.8826C5.83225 18.8474 5.8125 18.7997 5.8125 18.75V14.25C5.8125 14.2003 5.83225 14.1526 5.86742 14.1174C5.90258 14.0823 5.95027 14.0625 6 14.0625H10.5C10.5497 14.0625 10.5974 14.0823 10.6326 14.1174C10.6677 14.1526 10.6875 14.2003 10.6875 14.25V18.75ZM19.5 12.9375H15C14.6519 12.9375 14.3181 13.0758 14.0719 13.3219C13.8258 13.5681 13.6875 13.9019 13.6875 14.25V18.75C13.6875 19.0981 13.8258 19.4319 14.0719 19.6781C14.3181 19.9242 14.6519 20.0625 15 20.0625H19.5C19.8481 20.0625 20.1819 19.9242 20.4281 19.6781C20.6742 19.4319 20.8125 19.0981 20.8125 18.75V14.25C20.8125 13.9019 20.6742 13.5681 20.4281 13.3219C20.1819 13.0758 19.8481 12.9375 19.5 12.9375ZM19.6875 18.75C19.6875 18.7997 19.6677 18.8474 19.6326 18.8826C19.5974 18.9177 19.5497 18.9375 19.5 18.9375H15C14.9503 18.9375 14.9026 18.9177 14.8674 18.8826C14.8323 18.8474 14.8125 18.7997 14.8125 18.75V14.25C14.8125 14.2003 14.8323 14.1526 14.8674 14.1174C14.9026 14.0823 14.9503 14.0625 15 14.0625H19.5C19.5497 14.0625 19.5974 14.0823 19.6326 14.1174C19.6677 14.1526 19.6875 14.2003 19.6875 14.25V18.75Z" fill="#B9B9B9"/>
</svg>