<svg width="25" height="24" viewBox="0 0 25 24" fill="none" xmlns="http://www.w3.org/2000/svg">
  <path d="M12 5.25V9.75C12 10.1478 11.842 10.5294 11.5607 10.8107C11.2794 11.092 10.8978 11.25 10.5 11.25H6C5.60218 11.25 5.22064 11.092 4.93934 10.8107C4.65804 10.5294 4.5 10.1478 4.5 9.75V5.25C4.5 4.85218 4.65804 4.47064 4.93934 4.18934C5.22064 3.90804 5.60218 3.75 6 3.75H10.5C10.8978 3.75 11.2794 3.90804 11.5607 4.18934C11.842 4.47064 12 4.85218 12 5.25ZM19.5 3.75H15C14.6022 3.75 14.2206 3.90804 13.9393 4.18934C13.658 4.47064 13.5 4.85218 13.5 5.25V9.75C13.5 10.1478 13.658 10.5294 13.9393 10.8107C14.2206 11.092 14.6022 11.25 15 11.25H19.5C19.8978 11.25 20.2794 11.092 20.5607 10.8107C20.842 10.5294 21 10.1478 21 9.75V5.25C21 4.85218 20.842 4.47064 20.5607 4.18934C20.2794 3.90804 19.8978 3.75 19.5 3.75ZM10.5 12.75H6C5.60218 12.75 5.22064 12.908 4.93934 13.1893C4.65804 13.4706 4.5 13.8522 4.5 14.25V18.75C4.5 19.1478 4.65804 19.5294 4.93934 19.8107C5.22064 20.092 5.60218 20.25 6 20.25H10.5C10.8978 20.25 11.2794 20.092 11.5607 19.8107C11.842 19.5294 12 19.1478 12 18.75V14.25C12 13.8522 11.842 13.4706 11.5607 13.1893C11.2794 12.908 10.8978 12.75 10.5 12.75ZM19.5 12.75H15C14.6022 12.75 14.2206 12.908 13.9393 13.1893C13.658 13.4706 13.5 13.8522 13.5 14.25V18.75C13.5 19.1478 13.658 19.5294 13.9393 19.8107C14.2206 20.092 14.6022 20.25 15 20.25H19.5C19.8978 20.25 20.2794 20.092 20.5607 19.8107C20.842 19.5294 21 19.1478 21 18.75V14.25C21 13.8522 20.842 13.4706 20.5607 13.1893C20.2794 12.908 19.8978 12.75 19.5 12.75Z" fill="#6A4F83"/>
</svg>
