<svg width="25" height="24" viewBox="0 0 25 24" fill="none" xmlns="http://www.w3.org/2000/svg">
  <path d="M16.9375 3.1875C14.9688 3.1875 13.2569 4.07531 12.25 5.56313C11.2431 4.07531 9.53125 3.1875 7.5625 3.1875C6.07119 3.18924 4.64146 3.78243 3.58694 4.83694C2.53243 5.89146 1.93924 7.32119 1.9375 8.8125C1.9375 11.55 3.64375 14.3991 7.00937 17.2791C8.55161 18.5932 10.2175 19.7549 11.9838 20.7478C12.0656 20.7918 12.1571 20.8148 12.25 20.8148C12.3429 20.8148 12.4344 20.7918 12.5162 20.7478C14.2825 19.7549 15.9484 18.5932 17.4906 17.2791C20.8562 14.3991 22.5625 11.55 22.5625 8.8125C22.5608 7.32119 21.9676 5.89146 20.9131 4.83694C19.8585 3.78243 18.4288 3.18924 16.9375 3.1875ZM12.25 19.6041C10.7116 18.7163 3.0625 14.0363 3.0625 8.8125C3.06374 7.61941 3.53825 6.47553 4.38189 5.63189C5.22553 4.78825 6.36941 4.31374 7.5625 4.3125C9.46375 4.3125 11.0603 5.32781 11.7297 6.96281C11.7721 7.06598 11.8442 7.15422 11.9368 7.21632C12.0295 7.27842 12.1385 7.31158 12.25 7.31158C12.3615 7.31158 12.4705 7.27842 12.5632 7.21632C12.6558 7.15422 12.7279 7.06598 12.7703 6.96281C13.4397 5.32781 15.0363 4.3125 16.9375 4.3125C18.1306 4.31374 19.2745 4.78825 20.1181 5.63189C20.9618 6.47553 21.4363 7.61941 21.4375 8.8125C21.4375 14.0363 13.7884 18.7163 12.25 19.6041Z" fill="#B9B9B9"/>
</svg>
