<svg width="25" height="24" viewBox="0 0 25 24" fill="none" xmlns="http://www.w3.org/2000/svg">
  <path d="M20.8878 9.86624L13.3878 2.78811L13.3794 2.78061C13.1384 2.55991 12.8235 2.4375 12.4967 2.4375C12.17 2.4375 11.8551 2.55991 11.6141 2.78061L11.6056 2.78811L4.10564 9.86624C3.97298 9.98974 3.86734 10.1394 3.79538 10.3057C3.72342 10.4721 3.68669 10.6515 3.68751 10.8328V19.5C3.68751 19.8481 3.82579 20.1819 4.07194 20.4281C4.31808 20.6742 4.65192 20.8125 5.00001 20.8125H9.50001C9.84811 20.8125 10.182 20.6742 10.4281 20.4281C10.6742 20.1819 10.8125 19.8481 10.8125 19.5V15C10.8125 14.9503 10.8323 14.9026 10.8674 14.8674C10.9026 14.8322 10.9503 14.8125 11 14.8125H14C14.0497 14.8125 14.0974 14.8322 14.1326 14.8674C14.1678 14.9026 14.1875 14.9503 14.1875 15V19.5C14.1875 19.8481 14.3258 20.1819 14.5719 20.4281C14.8181 20.6742 15.1519 20.8125 15.5 20.8125H20C20.3481 20.8125 20.6819 20.6742 20.9281 20.4281C21.1742 20.1819 21.3125 19.8481 21.3125 19.5V10.8328C21.3125 10.6511 21.2747 10.4713 21.2016 10.3049C21.1285 10.1386 21.0217 9.98917 20.8878 9.86624ZM20.1875 19.5C20.1875 19.5497 20.1678 19.5974 20.1326 19.6326C20.0974 19.6677 20.0497 19.6875 20 19.6875H15.5C15.4503 19.6875 15.4026 19.6677 15.3674 19.6326C15.3323 19.5974 15.3125 19.5497 15.3125 19.5V15C15.3125 14.6519 15.1742 14.318 14.9281 14.0719C14.6819 13.8258 14.3481 13.6875 14 13.6875H11C10.6519 13.6875 10.3181 13.8258 10.0719 14.0719C9.82579 14.318 9.68751 14.6519 9.68751 15V19.5C9.68751 19.5497 9.66776 19.5974 9.6326 19.6326C9.59743 19.6677 9.54974 19.6875 9.50001 19.6875H5.00001C4.95029 19.6875 4.90259 19.6677 4.86743 19.6326C4.83227 19.5974 4.81251 19.5497 4.81251 19.5V10.8328C4.81246 10.8067 4.81785 10.7809 4.82834 10.757C4.83883 10.7331 4.8542 10.7117 4.87345 10.694L4.88189 10.6865L12.3763 3.6103C12.4104 3.58049 12.4542 3.56407 12.4995 3.56407C12.5449 3.56407 12.5887 3.58049 12.6228 3.6103L20.1181 10.6875L20.1256 10.695C20.1451 10.7125 20.1606 10.7339 20.1713 10.7578C20.1819 10.7817 20.1875 10.8076 20.1875 10.8337V19.5Z" fill="#B9B9B9"/>
</svg>
