<svg width="28" height="28" viewBox="0 0 28 28" fill="none" xmlns="http://www.w3.org/2000/svg">
<rect width="28" height="28" rx="14" fill="#F1F1F1"/>
<path d="M17.2649 14.2654L12.2649 19.2654C12.1938 19.3317 12.0998 19.3677 12.0027 19.366C11.9055 19.3643 11.8128 19.3249 11.7441 19.2562C11.6754 19.1875 11.636 19.0948 11.6343 18.9977C11.6326 18.9005 11.6687 18.8065 11.7349 18.7354L16.4693 14.0004L11.7349 9.26541C11.6687 9.19432 11.6326 9.1003 11.6343 9.00315C11.636 8.906 11.6754 8.81331 11.7441 8.7446C11.8128 8.67589 11.9055 8.63654 12.0027 8.63482C12.0998 8.63311 12.1938 8.66917 12.2649 8.73541L17.2649 13.7354C17.3351 13.8057 17.3746 13.901 17.3746 14.0004C17.3746 14.0998 17.3351 14.1951 17.2649 14.2654Z" fill="#303030"/>
</svg>
