<svg width="20" height="18" viewBox="0 0 20 18" fill="none" xmlns="http://www.w3.org/2000/svg">
<path d="M17.75 2.25H15.1512L13.8734 0.33375C13.805 0.231142 13.7123 0.147003 13.6035 0.0887865C13.4948 0.0305702 13.3733 7.40671e-05 13.25 0H7.25C7.12665 7.40671e-05 7.00522 0.0305702 6.89648 0.0887865C6.78773 0.147003 6.69502 0.231142 6.62656 0.33375L5.34781 2.25H2.75C2.15326 2.25 1.58097 2.48705 1.15901 2.90901C0.737053 3.33097 0.5 3.90326 0.5 4.5V15C0.5 15.5967 0.737053 16.169 1.15901 16.591C1.58097 17.0129 2.15326 17.25 2.75 17.25H17.75C18.3467 17.25 18.919 17.0129 19.341 16.591C19.7629 16.169 20 15.5967 20 15V4.5C20 3.90326 19.7629 3.33097 19.341 2.90901C18.919 2.48705 18.3467 2.25 17.75 2.25ZM18.5 15C18.5 15.1989 18.421 15.3897 18.2803 15.5303C18.1397 15.671 17.9489 15.75 17.75 15.75H2.75C2.55109 15.75 2.36032 15.671 2.21967 15.5303C2.07902 15.3897 2 15.1989 2 15V4.5C2 4.30109 2.07902 4.11032 2.21967 3.96967C2.36032 3.82902 2.55109 3.75 2.75 3.75H5.75C5.87351 3.75008 5.99512 3.71966 6.10405 3.66143C6.21297 3.60321 6.30583 3.51899 6.37438 3.41625L7.65125 1.5H12.8478L14.1256 3.41625C14.1942 3.51899 14.287 3.60321 14.396 3.66143C14.5049 3.71966 14.6265 3.75008 14.75 3.75H17.75C17.9489 3.75 18.1397 3.82902 18.2803 3.96967C18.421 4.11032 18.5 4.30109 18.5 4.5V15ZM10.25 5.25C9.43415 5.25 8.63663 5.49193 7.95827 5.94519C7.27992 6.39845 6.75121 7.04269 6.439 7.79643C6.12679 8.55018 6.0451 9.37958 6.20426 10.1797C6.36343 10.9799 6.75629 11.7149 7.33318 12.2918C7.91008 12.8687 8.64508 13.2616 9.44525 13.4207C10.2454 13.5799 11.0748 13.4982 11.8286 13.186C12.5823 12.8738 13.2266 12.3451 13.6798 11.6667C14.1331 10.9884 14.375 10.1908 14.375 9.375C14.3738 8.28136 13.9388 7.23287 13.1654 6.45955C12.3921 5.68624 11.3436 5.25124 10.25 5.25ZM10.25 12C9.73082 12 9.22331 11.846 8.79163 11.5576C8.35995 11.2692 8.0235 10.8592 7.82482 10.3795C7.62614 9.89989 7.57415 9.37209 7.67544 8.86289C7.77672 8.35369 8.02673 7.88596 8.39384 7.51884C8.76096 7.15173 9.22869 6.90172 9.73789 6.80044C10.2471 6.69915 10.7749 6.75114 11.2545 6.94982C11.7342 7.1485 12.1442 7.48495 12.4326 7.91663C12.721 8.34831 12.875 8.85582 12.875 9.375C12.875 10.0712 12.5984 10.7389 12.1062 11.2312C11.6139 11.7234 10.9462 12 10.25 12Z" fill="#8D8D8D"/>
</svg>
