<svg width="24" height="24" viewBox="0 0 24 24" fill="none" xmlns="http://www.w3.org/2000/svg">
	<path d="M18.25 12C18.25 12.1989 18.171 12.3897 18.0303 12.5303C17.8897 12.671 17.6989 12.75 17.5 12.75H12.75V17.5C12.75 17.6989 12.671 17.8897 12.5303 18.0303C12.3897 18.171 12.1989 18.25 12 18.25C11.8011 18.25 11.6103 18.171 11.4697 18.0303C11.329 17.8897 11.25 17.6989 11.25 17.5V12.75H6.5C6.30109 12.75 6.11032 12.671 5.96967 12.5303C5.82902 12.3897 5.75 12.1989 5.75 12C5.75 11.8011 5.82902 11.6103 5.96967 11.4697C6.11032 11.329 6.30109 11.25 6.5 11.25H11.25V6.5C11.25 6.30109 11.329 6.11032 11.4697 5.96967C11.6103 5.82902 11.8011 5.75 12 5.75C12.1989 5.75 12.3897 5.82902 12.5303 5.96967C12.671 6.11032 12.75 6.30109 12.75 6.5V11.25H17.5C17.6989 11.25 17.8897 11.329 18.0303 11.4697C18.171 11.6103 18.25 11.8011 18.25 12Z" fill="#6A4F83"/>
</svg>