<svg width="29" height="29" viewBox="0 0 29 29" fill="none" xmlns="http://www.w3.org/2000/svg">
	<rect x="0.125" width="28.75" height="28.75" rx="14.375" fill="#F3EDF8"/>
	<g clip-path="url(#clip0_467_3699)">
		<path opacity="0.2" d="M22.2015 12.4496H6.7981L7.6525 8.46394C7.68333 8.32042 7.76241 8.19181 7.87658 8.09955C7.99074 8.00728 8.13308 7.95694 8.27987 7.95691H20.7197C20.8665 7.95694 21.0088 8.00728 21.123 8.09955C21.2371 8.19181 21.3162 8.32042 21.3471 8.46394L22.2015 12.4496Z" fill="#6A4F83"/>
		<path d="M23.4852 11.8077H22.7206L21.9754 8.32992C21.9127 8.04316 21.7542 7.78633 21.526 7.60182C21.2977 7.41731 21.0133 7.31616 20.7198 7.31506H8.28C7.98649 7.31616 7.70212 7.41731 7.47386 7.60182C7.24559 7.78633 7.08707 8.04316 7.02446 8.32992L6.27916 11.8077H5.51461C5.34439 11.8077 5.18115 11.8753 5.06078 11.9957C4.94042 12.1161 4.8728 12.2793 4.8728 12.4495C4.8728 12.6197 4.94042 12.783 5.06078 12.9033C5.18115 13.0237 5.34439 13.0913 5.51461 13.0913H6.15642V20.793C6.15642 21.1334 6.29165 21.4599 6.53238 21.7007C6.7731 21.9414 7.09959 22.0766 7.44003 22.0766H9.36545C9.70589 22.0766 10.0324 21.9414 10.2731 21.7007C10.5138 21.4599 10.6491 21.1334 10.6491 20.793V18.8676H18.3507V20.793C18.3507 21.1334 18.486 21.4599 18.7267 21.7007C18.9674 21.9414 19.2939 22.0766 19.6344 22.0766H21.5598C21.9002 22.0766 22.2267 21.9414 22.4674 21.7007C22.7082 21.4599 22.8434 21.1334 22.8434 20.793V13.0913H23.4852C23.6554 13.0913 23.8187 13.0237 23.939 12.9033C24.0594 12.783 24.127 12.6197 24.127 12.4495C24.127 12.2793 24.0594 12.1161 23.939 11.9957C23.8187 11.8753 23.6554 11.8077 23.4852 11.8077ZM8.28 8.59868H20.7198L21.4074 11.8077H7.59246L8.28 8.59868ZM9.36545 20.793H7.44003V18.8676H9.36545V20.793ZM19.6344 20.793V18.8676H21.5598V20.793H19.6344ZM21.5598 17.584H16.4253V15.0167C16.4253 14.8465 16.3577 14.6833 16.2373 14.5629C16.117 14.4426 15.9537 14.3749 15.7835 14.3749C15.6133 14.3749 15.4501 14.4426 15.3297 14.5629C15.2093 14.6833 15.1417 14.8465 15.1417 15.0167V17.584H13.8581V15.0167C13.8581 14.8465 13.7905 14.6833 13.6701 14.5629C13.5498 14.4426 13.3865 14.3749 13.2163 14.3749C13.0461 14.3749 12.8828 14.4426 12.7625 14.5629C12.6421 14.6833 12.5745 14.8465 12.5745 15.0167V17.584H7.44003V13.0913H21.5598V17.584ZM8.72364 15.3377C8.72364 15.1472 8.78011 14.9611 8.88589 14.8028C8.99167 14.6445 9.14203 14.5211 9.31794 14.4482C9.49385 14.3754 9.68742 14.3563 9.87417 14.3934C10.0609 14.4306 10.2325 14.5223 10.3671 14.6569C10.5017 14.7915 10.5934 14.9631 10.6306 15.1498C10.6677 15.3366 10.6486 15.5302 10.5758 15.7061C10.5029 15.882 10.3795 16.0323 10.2212 16.1381C10.0629 16.2439 9.87676 16.3004 9.68635 16.3004C9.43103 16.3004 9.18616 16.1989 9.00562 16.0184C8.82507 15.8378 8.72364 15.593 8.72364 15.3377ZM18.3507 15.3377C18.3507 15.1472 18.4072 14.9611 18.513 14.8028C18.6188 14.6445 18.7691 14.5211 18.945 14.4482C19.121 14.3754 19.3145 14.3563 19.5013 14.3934C19.688 14.4306 19.8596 14.5223 19.9942 14.6569C20.1288 14.7915 20.2205 14.9631 20.2577 15.1498C20.2948 15.3366 20.2758 15.5302 20.2029 15.7061C20.13 15.882 20.0066 16.0323 19.8483 16.1381C19.69 16.2439 19.5039 16.3004 19.3135 16.3004C19.0581 16.3004 18.8133 16.1989 18.6327 16.0184C18.4522 15.8378 18.3507 15.593 18.3507 15.3377Z" fill="#6A4F83"/>
	</g>
	<defs>
		<clipPath id="clip0_467_3699">
			<rect width="20.5378" height="20.5378" fill="white" transform="translate(4.23096 4.10608)"/>
		</clipPath>
	</defs>
</svg>