<svg width="29" height="29" viewBox="0 0 29 29" fill="none" xmlns="http://www.w3.org/2000/svg">
<rect x="0.125" width="28.75" height="28.75" rx="14.375" fill="#F3EDF8"/>
<path d="M20.4062 21.5625H17.1849C17.6098 21.1719 18.0667 20.7258 18.5245 20.2242C20.8287 17.7008 22.0469 15.0289 22.0469 12.5C22.0469 10.5938 21.2518 8.76559 19.8364 7.41767C18.4211 6.06975 16.5016 5.3125 14.5 5.3125C12.4984 5.3125 10.5789 6.06975 9.16355 7.41767C7.74824 8.76559 6.95313 10.5938 6.95312 12.5C6.95313 16.4062 9.75203 19.6828 11.8077 21.5625H8.59375C8.33268 21.5625 8.0823 21.6613 7.89769 21.8371C7.71309 22.0129 7.60938 22.2514 7.60938 22.5C7.60938 22.7486 7.71309 22.9871 7.89769 23.1629C8.0823 23.3387 8.33268 23.4375 8.59375 23.4375H20.4062C20.6673 23.4375 20.9177 23.3387 21.1023 23.1629C21.2869 22.9871 21.3906 22.7486 21.3906 22.5C21.3906 22.2514 21.2869 22.0129 21.1023 21.8371C20.9177 21.6613 20.6673 21.5625 20.4062 21.5625ZM8.92188 12.5C8.92188 11.091 9.50957 9.73978 10.5557 8.7435C11.6018 7.74721 13.0206 7.1875 14.5 7.1875C15.9794 7.1875 17.3982 7.74721 18.4443 8.7435C19.4904 9.73978 20.0781 11.091 20.0781 12.5C20.0781 15.1023 18.4375 17.4508 17.0676 18.9617C16.2854 19.8174 15.4263 20.6063 14.5 21.3195C13.5737 20.6063 12.7146 19.8174 11.9324 18.9617C10.5625 17.4508 8.92188 15.1023 8.92188 12.5ZM14.5 15.9375C15.2139 15.9375 15.9117 15.7359 16.5053 15.3582C17.0988 14.9805 17.5614 14.4436 17.8346 13.8155C18.1078 13.1874 18.1793 12.4962 18.04 11.8294C17.9008 11.1626 17.557 10.5501 17.0522 10.0693C16.5474 9.58858 15.9043 9.26119 15.2042 9.12855C14.504 8.99591 13.7783 9.06399 13.1188 9.32416C12.4592 9.58434 11.8955 10.0249 11.4989 10.5902C11.1023 11.1555 10.8906 11.8201 10.8906 12.5C10.8917 13.4114 11.2723 14.2851 11.949 14.9295C12.6256 15.574 13.5431 15.9365 14.5 15.9375ZM14.5 10.9375C14.8245 10.9375 15.1417 11.0291 15.4115 11.2008C15.6813 11.3725 15.8916 11.6165 16.0157 11.9021C16.1399 12.1876 16.1724 12.5017 16.1091 12.8048C16.0458 13.1079 15.8895 13.3863 15.6601 13.6049C15.4307 13.8234 15.1383 13.9722 14.8201 14.0325C14.5018 14.0928 14.1719 14.0618 13.8722 13.9436C13.5724 13.8253 13.3161 13.625 13.1359 13.3681C12.9556 13.1111 12.8594 12.809 12.8594 12.5C12.8594 12.0856 13.0322 11.6882 13.3399 11.3951C13.6476 11.1021 14.0649 10.9375 14.5 10.9375Z" fill="#6A4F83"/>
</svg>
