<svg width="29" height="29" viewBox="0 0 29 29" fill="none" xmlns="http://www.w3.org/2000/svg">
<rect x="0.125" width="28.75" height="28.75" rx="14.375" fill="#F3EDF8"/>
<g clip-path="url(#clip0_3490_5890)">
<path d="M20.0469 14.1648L16.15 12.7281L14.7101 8.82812C14.6 8.52951 14.401 8.27184 14.1399 8.08984C13.8789 7.90784 13.5682 7.81026 13.25 7.81026C12.9317 7.81026 12.6211 7.90784 12.36 8.08984C12.0989 8.27184 11.8999 8.52951 11.7898 8.82812L10.3531 12.7281L6.45311 14.1648C6.1545 14.2749 5.89682 14.474 5.71482 14.735C5.53282 14.9961 5.43524 15.3067 5.43524 15.625C5.43524 15.9433 5.53282 16.2539 5.71482 16.515C5.89682 16.776 6.1545 16.9751 6.45311 17.0852L10.35 18.5219L11.7898 22.4219C11.8999 22.7205 12.0989 22.9782 12.36 23.1602C12.6211 23.3422 12.9317 23.4397 13.25 23.4397C13.5682 23.4397 13.8789 23.3422 14.1399 23.1602C14.401 22.9782 14.6 22.7205 14.7101 22.4219L16.1469 18.525L20.0469 17.0852C20.3455 16.9751 20.6031 16.776 20.7851 16.515C20.9671 16.2539 21.0647 15.9433 21.0647 15.625C21.0647 15.3067 20.9671 14.9961 20.7851 14.735C20.6031 14.474 20.3455 14.2749 20.0469 14.1648ZM15.0953 16.9117C14.968 16.9586 14.8525 17.0326 14.7566 17.1285C14.6607 17.2244 14.5867 17.3399 14.5398 17.4672L13.25 20.9594L11.9633 17.4672C11.9164 17.3399 11.8424 17.2244 11.7465 17.1285C11.6506 17.0326 11.535 16.9586 11.4078 16.9117L7.91561 15.625L11.4078 14.3383C11.535 14.2914 11.6506 14.2174 11.7465 14.1215C11.8424 14.0256 11.9164 13.9101 11.9633 13.7828L13.25 10.2906L14.5367 13.7828C14.5836 13.9101 14.6575 14.0256 14.7534 14.1215C14.8493 14.2174 14.9649 14.2914 15.0922 14.3383L18.5844 15.625L15.0953 16.9117ZM15.4375 7.5C15.4375 7.25136 15.5363 7.0129 15.7121 6.83709C15.8879 6.66127 16.1263 6.5625 16.375 6.5625H17.3125V5.625C17.3125 5.37636 17.4113 5.1379 17.5871 4.96209C17.7629 4.78627 18.0013 4.6875 18.25 4.6875C18.4986 4.6875 18.7371 4.78627 18.9129 4.96209C19.0887 5.1379 19.1875 5.37636 19.1875 5.625V6.5625H20.125C20.3736 6.5625 20.6121 6.66127 20.7879 6.83709C20.9637 7.0129 21.0625 7.25136 21.0625 7.5C21.0625 7.74864 20.9637 7.9871 20.7879 8.16291C20.6121 8.33873 20.3736 8.4375 20.125 8.4375H19.1875V9.375C19.1875 9.62364 19.0887 9.8621 18.9129 10.0379C18.7371 10.2137 18.4986 10.3125 18.25 10.3125C18.0013 10.3125 17.7629 10.2137 17.5871 10.0379C17.4113 9.8621 17.3125 9.62364 17.3125 9.375V8.4375H16.375C16.1263 8.4375 15.8879 8.33873 15.7121 8.16291C15.5363 7.9871 15.4375 7.74864 15.4375 7.5ZM24.1875 11.25C24.1875 11.4986 24.0887 11.7371 23.9129 11.9129C23.7371 12.0887 23.4986 12.1875 23.25 12.1875H22.9375V12.5C22.9375 12.7486 22.8387 12.9871 22.6629 13.1629C22.4871 13.3387 22.2486 13.4375 22 13.4375C21.7513 13.4375 21.5129 13.3387 21.3371 13.1629C21.1613 12.9871 21.0625 12.7486 21.0625 12.5V12.1875H20.75C20.5013 12.1875 20.2629 12.0887 20.0871 11.9129C19.9113 11.7371 19.8125 11.4986 19.8125 11.25C19.8125 11.0014 19.9113 10.7629 20.0871 10.5871C20.2629 10.4113 20.5013 10.3125 20.75 10.3125H21.0625V10C21.0625 9.75136 21.1613 9.5129 21.3371 9.33709C21.5129 9.16127 21.7513 9.0625 22 9.0625C22.2486 9.0625 22.4871 9.16127 22.6629 9.33709C22.8387 9.5129 22.9375 9.75136 22.9375 10V10.3125H23.25C23.4986 10.3125 23.7371 10.4113 23.9129 10.5871C24.0887 10.7629 24.1875 11.0014 24.1875 11.25Z" fill="#6A4F83"/>
</g>
<defs>
<clipPath id="clip0_3490_5890">
<rect width="20" height="20" fill="white" transform="translate(4.5 4.375)"/>
</clipPath>
</defs>
</svg>
