<svg width="28" height="29" viewBox="0 0 28 29" fill="none" xmlns="http://www.w3.org/2000/svg">
	<rect x="0.5" y="0.875" width="27" height="27" rx="13.5" fill="white"/>
	<rect x="0.5" y="0.875" width="27" height="27" rx="13.5" stroke="#F1F1F1"/>
	<path d="M17.2649 14.64L12.2649 19.64C12.1938 19.7063 12.0998 19.7423 12.0027 19.7406C11.9055 19.7389 11.8128 19.6996 11.7441 19.6309C11.6754 19.5622 11.636 19.4695 11.6343 19.3723C11.6326 19.2752 11.6687 19.1811 11.7349 19.11L16.4693 14.375L11.7349 9.64005C11.6687 9.56896 11.6326 9.47493 11.6343 9.37778C11.636 9.28063 11.6754 9.18794 11.7441 9.11923C11.8128 9.05053 11.9055 9.01117 12.0027 9.00946C12.0998 9.00774 12.1938 9.04381 12.2649 9.11005L17.2649 14.11C17.3351 14.1804 17.3746 14.2757 17.3746 14.375C17.3746 14.4744 17.3351 14.5697 17.2649 14.64Z" fill="#303030"/>
</svg>
