<svg width="28" height="28" viewBox="0 0 28 28" fill="none" xmlns="http://www.w3.org/2000/svg">
	<rect width="28" height="28" rx="14" fill="white"/>
	<path d="M16.9999 16.1251C16.666 16.1249 16.3357 16.1954 16.0309 16.3319C15.7261 16.4684 15.4536 16.6677 15.2312 16.9169L12.1749 14.9526C12.3068 14.6523 12.3749 14.328 12.3749 14.0001C12.3749 13.6721 12.3068 13.3478 12.1749 13.0476L15.2312 11.0832C15.6299 11.5279 16.1816 11.8061 16.7763 11.8623C17.371 11.9184 17.965 11.7485 18.4399 11.3862C18.9149 11.024 19.2359 10.4961 19.339 9.90772C19.442 9.31936 19.3197 8.71376 18.9962 8.21161C18.6727 7.70946 18.1719 7.34764 17.5935 7.19827C17.0152 7.04889 16.4018 7.12293 15.8756 7.40562C15.3494 7.68831 14.949 8.1589 14.7543 8.72359C14.5596 9.28829 14.5848 9.90562 14.8249 10.4526L11.7687 12.4169C11.4481 12.0584 11.0261 11.8056 10.5587 11.6921C10.0912 11.5786 9.60034 11.6097 9.15097 11.7813C8.7016 11.953 8.31494 12.257 8.04215 12.6532C7.76935 13.0493 7.62329 13.519 7.62329 14.0001C7.62329 14.4811 7.76935 14.9508 8.04215 15.3469C8.31494 15.7431 8.7016 16.0471 9.15097 16.2188C9.60034 16.3904 10.0912 16.4215 10.5587 16.308C11.0261 16.1945 11.4481 15.9417 11.7687 15.5832L14.8249 17.5476C14.6198 18.0162 14.5714 18.5385 14.687 19.0369C14.8027 19.5352 15.0761 19.9829 15.4667 20.3133C15.8573 20.6437 16.3441 20.8391 16.8547 20.8706C17.3653 20.902 17.8724 20.7677 18.3005 20.4877C18.7287 20.2077 19.055 19.7969 19.2308 19.3165C19.4067 18.8361 19.4227 18.3118 19.2766 17.8215C19.1304 17.3313 18.8299 16.9013 18.4197 16.5956C18.0095 16.29 17.5115 16.1249 16.9999 16.1251ZM16.9999 7.87505C17.3213 7.87505 17.6355 7.97036 17.9027 8.14891C18.17 8.32747 18.3783 8.58126 18.5013 8.87819C18.6242 9.17512 18.6564 9.50186 18.5937 9.81707C18.531 10.1323 18.3763 10.4218 18.149 10.6491C17.9217 10.8764 17.6322 11.0311 17.317 11.0938C17.0017 11.1565 16.675 11.1243 16.3781 11.0014C16.0812 10.8784 15.8274 10.6701 15.6488 10.4029C15.4703 10.1356 15.3749 9.82145 15.3749 9.50005C15.3749 9.06908 15.5462 8.65575 15.8509 8.351C16.1556 8.04626 16.569 7.87505 16.9999 7.87505ZM9.99995 15.6251C9.67855 15.6251 9.36438 15.5297 9.09715 15.3512C8.82992 15.1726 8.62164 14.9188 8.49864 14.6219C8.37565 14.325 8.34347 13.9982 8.40617 13.683C8.46887 13.3678 8.62364 13.0783 8.8509 12.851C9.07816 12.6237 9.36771 12.469 9.68293 12.4063C9.99815 12.3436 10.3249 12.3758 10.6218 12.4987C10.9187 12.6217 11.1725 12.83 11.3511 13.0973C11.5296 13.3645 11.6249 13.6787 11.6249 14.0001C11.6249 14.431 11.4537 14.8444 11.149 15.1491C10.8442 15.4538 10.4309 15.6251 9.99995 15.6251ZM16.9999 20.1251C16.6786 20.1251 16.3644 20.0297 16.0971 19.8512C15.8299 19.6726 15.6216 19.4188 15.4986 19.1219C15.3757 18.825 15.3435 18.4983 15.4062 18.183C15.4689 17.8678 15.6236 17.5783 15.8509 17.351C16.0782 17.1237 16.3677 16.969 16.6829 16.9063C16.9981 16.8436 17.3249 16.8758 17.6218 16.9987C17.9187 17.1217 18.1725 17.33 18.3511 17.5973C18.5296 17.8645 18.6249 18.1787 18.6249 18.5001C18.6249 18.7135 18.5829 18.9248 18.5013 19.1219C18.4196 19.3191 18.2999 19.4982 18.149 19.6491C17.9981 19.8 17.819 19.9197 17.6218 20.0014C17.4247 20.083 17.2133 20.1251 16.9999 20.1251Z" fill="#303030"/>
</svg>