<svg width="28" height="28" viewBox="0 0 28 28" fill="none" xmlns="http://www.w3.org/2000/svg">
<rect width="28" height="28" rx="14" fill="#F3EDF8"/>
<path d="M16.9999 16.1253C16.666 16.1252 16.3357 16.1957 16.0309 16.3321C15.7261 16.4686 15.4536 16.668 15.2312 16.9172L12.1749 14.9528C12.3068 14.6526 12.3749 14.3282 12.3749 14.0003C12.3749 13.6724 12.3068 13.348 12.1749 13.0478L15.2312 11.0834C15.6299 11.5282 16.1816 11.8064 16.7763 11.8625C17.371 11.9187 17.965 11.7487 18.4399 11.3865C18.9149 11.0242 19.2359 10.4963 19.339 9.90796C19.442 9.3196 19.3197 8.714 18.9962 8.21185C18.6727 7.7097 18.1719 7.34789 17.5935 7.19851C17.0152 7.04914 16.4018 7.12317 15.8756 7.40587C15.3494 7.68856 14.949 8.15914 14.7543 8.72384C14.5596 9.28853 14.5848 9.90586 14.8249 10.4528L11.7687 12.4172C11.4481 12.0586 11.0261 11.8058 10.5587 11.6924C10.0912 11.5789 9.60034 11.61 9.15097 11.7816C8.7016 11.9532 8.31494 12.2572 8.04215 12.6534C7.76935 13.0496 7.62329 13.5193 7.62329 14.0003C7.62329 14.4813 7.76935 14.951 8.04215 15.3472C8.31494 15.7434 8.7016 16.0474 9.15097 16.219C9.60034 16.3906 10.0912 16.4217 10.5587 16.3082C11.0261 16.1947 11.4481 15.942 11.7687 15.5834L14.8249 17.5478C14.6198 18.0164 14.5714 18.5388 14.687 19.0371C14.8027 19.5355 15.0761 19.9831 15.4667 20.3135C15.8573 20.6439 16.3441 20.8394 16.8547 20.8708C17.3653 20.9022 17.8724 20.768 18.3005 20.4879C18.7287 20.2079 19.055 19.7972 19.2308 19.3168C19.4067 18.8364 19.4227 18.312 19.2766 17.8218C19.1304 17.3315 18.8299 16.9016 18.4197 16.5959C18.0095 16.2902 17.5115 16.1252 16.9999 16.1253ZM16.9999 7.8753C17.3213 7.8753 17.6355 7.9706 17.9027 8.14916C18.17 8.32772 18.3783 8.58151 18.5013 8.87844C18.6242 9.17537 18.6564 9.5021 18.5937 9.81732C18.531 10.1325 18.3763 10.4221 18.149 10.6493C17.9217 10.8766 17.6322 11.0314 17.317 11.0941C17.0017 11.1568 16.675 11.1246 16.3781 11.0016C16.0812 10.8786 15.8274 10.6703 15.6488 10.4031C15.4703 10.1359 15.3749 9.82169 15.3749 9.5003C15.3749 9.06932 15.5462 8.65599 15.8509 8.35125C16.1556 8.0465 16.569 7.8753 16.9999 7.8753ZM9.99995 15.6253C9.67855 15.6253 9.36438 15.53 9.09715 15.3514C8.82992 15.1729 8.62164 14.9191 8.49864 14.6222C8.37565 14.3252 8.34347 13.9985 8.40617 13.6833C8.46887 13.3681 8.62364 13.0785 8.8509 12.8512C9.07816 12.624 9.36771 12.4692 9.68293 12.4065C9.99815 12.3438 10.3249 12.376 10.6218 12.499C10.9187 12.622 11.1725 12.8303 11.3511 13.0975C11.5296 13.3647 11.6249 13.6789 11.6249 14.0003C11.6249 14.4313 11.4537 14.8446 11.149 15.1493C10.8442 15.4541 10.4309 15.6253 9.99995 15.6253ZM16.9999 20.1253C16.6786 20.1253 16.3644 20.03 16.0971 19.8514C15.8299 19.6729 15.6216 19.4191 15.4986 19.1222C15.3757 18.8252 15.3435 18.4985 15.4062 18.1833C15.4689 17.8681 15.6236 17.5785 15.8509 17.3512C16.0782 17.124 16.3677 16.9692 16.6829 16.9065C16.9981 16.8438 17.3249 16.876 17.6218 16.999C17.9187 17.122 18.1725 17.3303 18.3511 17.5975C18.5296 17.8647 18.6249 18.1789 18.6249 18.5003C18.6249 18.7137 18.5829 18.925 18.5013 19.1222C18.4196 19.3193 18.2999 19.4985 18.149 19.6493C17.9981 19.8002 17.819 19.9199 17.6218 20.0016C17.4247 20.0833 17.2133 20.1253 16.9999 20.1253Z" fill="#6A4F83"/>
</svg>
