<svg width="25" height="22" viewBox="0 0 25 22" fill="none" xmlns="http://www.w3.org/2000/svg">
<path d="M24.1016 16.3888C24.0636 16.2004 23.9775 16.0251 23.8516 15.8799C23.7258 15.7346 23.5645 15.6245 23.3835 15.56C23.2504 15.5094 20.9591 14.6056 19.6944 11.5072L21.1644 10.9194C21.3043 10.8665 21.4323 10.7863 21.5409 10.6834C21.6494 10.5805 21.7363 10.457 21.7966 10.3201C21.8568 10.1832 21.8892 10.0357 21.8917 9.88618C21.8943 9.73664 21.867 9.58809 21.8115 9.44922C21.7559 9.31036 21.6733 9.18396 21.5683 9.07742C21.4633 8.97088 21.3382 8.88633 21.2001 8.82873C21.0621 8.77114 20.914 8.74164 20.7644 8.74196C20.6149 8.74228 20.4669 8.77243 20.3291 8.83063L19.0776 9.33125C18.9384 8.51999 18.8707 7.69809 18.8751 6.875C18.8751 5.18425 18.2034 3.56274 17.0079 2.36719C15.8123 1.17165 14.1908 0.5 12.5001 0.5C10.8093 0.5 9.18779 1.17165 7.99225 2.36719C6.79671 3.56274 6.12506 5.18425 6.12506 6.875C6.12851 7.69907 6.06013 8.52187 5.92068 9.33406L4.66818 8.83344C4.53041 8.77524 4.38241 8.7451 4.23285 8.74477C4.0833 8.74445 3.93517 8.77395 3.79715 8.83155C3.65913 8.88915 3.53397 8.97369 3.42901 9.08023C3.32405 9.18677 3.24138 9.31317 3.18585 9.45204C3.13031 9.5909 3.10302 9.73945 3.10558 9.88899C3.10813 10.0385 3.14048 10.1861 3.20072 10.3229C3.26097 10.4598 3.34791 10.5833 3.45645 10.6862C3.56499 10.7891 3.69296 10.8693 3.83287 10.9222L5.30287 11.51C4.03818 14.6056 1.74787 15.5084 1.62506 15.5563C1.44359 15.6212 1.28183 15.7316 1.15531 15.877C1.02878 16.0223 0.941719 16.1978 0.902476 16.3865C0.863232 16.5752 0.873121 16.7708 0.931193 16.9545C0.989266 17.1383 1.09357 17.3041 1.23412 17.4359C1.99256 18.1484 3.09506 18.2572 4.06818 18.3538C4.59506 18.4053 5.19318 18.4644 5.46037 18.6116C5.70318 18.7447 6.01724 19.1741 6.29474 19.5556C6.81131 20.2644 7.45537 21.1494 8.49506 21.4119C9.45412 21.6566 10.3804 21.3416 11.1969 21.0631C11.6657 20.9037 12.1504 20.7388 12.5019 20.7388C12.8535 20.7388 13.3382 20.9037 13.8069 21.0631C14.4172 21.2712 15.0885 21.5 15.7897 21.5C16.0322 21.5008 16.2737 21.4712 16.5088 21.4119C17.5485 21.1456 18.1963 20.2644 18.7091 19.5556C18.9904 19.1806 19.3007 18.7447 19.5435 18.6116C19.8107 18.4644 20.4088 18.4053 20.9357 18.3538C21.9088 18.26 23.0113 18.1484 23.7697 17.4359C23.91 17.3043 24.0141 17.1389 24.0722 16.9556C24.1303 16.7723 24.1404 16.5771 24.1016 16.3888ZM18.456 16.64C17.7744 17.015 17.3038 17.66 16.8885 18.2337C16.5838 18.6509 16.2041 19.1712 15.951 19.2369C15.6416 19.3166 15.0772 19.1244 14.5316 18.9387C13.9194 18.7297 13.2257 18.4934 12.5019 18.4934C11.7782 18.4934 11.0844 18.7297 10.4722 18.9387C9.92662 19.1262 9.36224 19.3137 9.05287 19.2369C8.79599 19.1712 8.41631 18.6509 8.11537 18.2337C7.70006 17.6647 7.22943 17.015 6.54787 16.64C6.00881 16.3428 5.38162 16.2331 4.75162 16.1619C5.0021 15.9361 5.24085 15.6977 5.46693 15.4475C6.27693 14.5503 7.18162 13.1975 7.76568 11.285C7.76609 11.2831 7.76609 11.2812 7.76568 11.2794C7.79191 11.2149 7.8117 11.148 7.82474 11.0797C8.20322 9.71062 8.38845 8.29536 8.37506 6.875C8.37506 5.78098 8.80965 4.73177 9.58324 3.95818C10.3568 3.1846 11.406 2.75 12.5001 2.75C13.5941 2.75 14.6433 3.1846 15.4169 3.95818C16.1905 4.73177 16.6251 5.78098 16.6251 6.875C16.6129 8.29652 16.7997 9.71275 17.1801 11.0825C17.1938 11.1507 17.2136 11.2175 17.2391 11.2822C17.2387 11.284 17.2387 11.286 17.2391 11.2878C17.8232 13.2041 18.7279 14.5531 19.5379 15.4503C19.7639 15.7005 20.0027 15.9389 20.2532 16.1647C19.6251 16.2331 18.996 16.3438 18.456 16.64Z" fill="#6A4F83"/>
</svg>
