<svg width="25" height="27" viewBox="0 0 25 27" fill="none" xmlns="http://www.w3.org/2000/svg">
	<g clip-path="url(#clip0_276_1819)">
		<path d="M12.6675 10.375C11.8719 10.375 11.1088 10.6911 10.5462 11.2537C9.98357 11.8163 9.6675 12.5794 9.6675 13.375C9.6675 14.1706 9.98357 14.9337 10.5462 15.4963C11.1088 16.0589 11.8719 16.375 12.6675 16.375C13.4632 16.375 14.2262 16.0589 14.7888 15.4963C15.3514 14.9337 15.6675 14.1706 15.6675 13.375C15.6675 12.5794 15.3514 11.8163 14.7888 11.2537C14.2262 10.6911 13.4632 10.375 12.6675 10.375ZM12.6675 8.375C13.9936 8.375 15.2654 8.90178 16.203 9.83947C17.1407 10.7771 17.6675 12.0489 17.6675 13.375C17.6675 14.7011 17.1407 15.9729 16.203 16.9105C15.2654 17.8482 13.9936 18.375 12.6675 18.375C11.3414 18.375 10.0697 17.8482 9.13197 16.9105C8.19429 15.9729 7.6675 14.7011 7.6675 13.375C7.6675 12.0489 8.19429 10.7771 9.13197 9.83947C10.0697 8.90178 11.3414 8.375 12.6675 8.375ZM19.1675 8.125C19.1675 8.45652 19.0358 8.77446 18.8014 9.00888C18.567 9.2433 18.249 9.375 17.9175 9.375C17.586 9.375 17.268 9.2433 17.0336 9.00888C16.7992 8.77446 16.6675 8.45652 16.6675 8.125C16.6675 7.79348 16.7992 7.47554 17.0336 7.24112C17.268 7.0067 17.586 6.875 17.9175 6.875C18.249 6.875 18.567 7.0067 18.8014 7.24112C19.0358 7.47554 19.1675 7.79348 19.1675 8.125ZM12.6675 5.375C10.1935 5.375 9.7895 5.382 8.6385 5.433C7.8545 5.47 7.3285 5.575 6.8405 5.765C6.43212 5.91494 6.06292 6.15526 5.7605 6.468C5.44751 6.7704 5.20686 7.13958 5.0565 7.548C4.8665 8.038 4.7615 8.563 4.7255 9.346C4.6735 10.45 4.6665 10.836 4.6665 13.375C4.6665 15.85 4.6735 16.253 4.7245 17.404C4.7615 18.187 4.8665 18.714 5.0555 19.201C5.2255 19.636 5.4255 19.949 5.7575 20.281C6.0945 20.617 6.4075 20.818 6.8375 20.984C7.3315 21.175 7.8575 21.281 8.6375 21.317C9.7415 21.369 10.1275 21.375 12.6665 21.375C15.1415 21.375 15.5445 21.368 16.6955 21.317C17.4775 21.28 18.0035 21.175 18.4925 20.986C18.9005 20.8353 19.2696 20.5951 19.5725 20.283C19.9095 19.947 20.1105 19.634 20.2765 19.203C20.4665 18.711 20.5725 18.185 20.6085 17.403C20.6605 16.3 20.6665 15.913 20.6665 13.375C20.6665 10.901 20.6595 10.497 20.6085 9.346C20.5715 8.564 20.4655 8.036 20.2765 7.548C20.1258 7.14002 19.8856 6.77098 19.5735 6.468C19.2712 6.15485 18.902 5.91417 18.4935 5.764C18.0035 5.574 17.4775 5.469 16.6955 5.433C15.5925 5.381 15.2065 5.375 12.6665 5.375M12.6665 3.375C15.3835 3.375 15.7225 3.385 16.7895 3.435C17.8535 3.485 18.5795 3.652 19.2165 3.9C19.8765 4.154 20.4325 4.498 20.9885 5.053C21.497 5.5529 21.8905 6.15759 22.1415 6.825C22.3885 7.462 22.5565 8.188 22.6065 9.253C22.6535 10.319 22.6665 10.658 22.6665 13.375C22.6665 16.092 22.6565 16.431 22.6065 17.497C22.5565 18.562 22.3885 19.287 22.1415 19.925C21.8912 20.5928 21.4976 21.1976 20.9885 21.697C20.4885 22.2053 19.8838 22.5988 19.2165 22.85C18.5795 23.097 17.8535 23.265 16.7895 23.315C15.7225 23.362 15.3835 23.375 12.6665 23.375C9.9495 23.375 9.6105 23.365 8.5435 23.315C7.4795 23.265 6.7545 23.097 6.1165 22.85C5.44883 22.5995 4.84403 22.2059 4.3445 21.697C3.83594 21.1972 3.44246 20.5925 3.1915 19.925C2.9435 19.288 2.7765 18.562 2.7265 17.497C2.6785 16.431 2.6665 16.092 2.6665 13.375C2.6665 10.658 2.6765 10.319 2.7265 9.253C2.7765 8.188 2.9435 7.463 3.1915 6.825C3.44174 6.15718 3.83531 5.55232 4.3445 5.053C4.84417 4.54423 5.44893 4.15073 6.1165 3.9C6.7535 3.652 7.4785 3.485 8.5435 3.435C9.6115 3.388 9.9505 3.375 12.6675 3.375" fill="#6A4F83"/>
	</g>
	<defs>
		<clipPath id="clip0_276_1819">
			<rect width="24" height="26" fill="white" transform="translate(0.666504 0.375)"/>
		</clipPath>
	</defs>
</svg>
