<svg width="24" height="27" viewBox="0 0 24 27" fill="none" xmlns="http://www.w3.org/2000/svg">
	<path d="M19.3208 6.937C19.169 6.85845 19.0211 6.77234 18.8778 6.679C18.4615 6.40372 18.0798 6.0794 17.7408 5.713C16.8918 4.742 16.5748 3.757 16.4588 3.068H16.4628C16.3658 2.495 16.4058 2.125 16.4128 2.125H12.5478V17.068C12.5478 17.268 12.5478 17.467 12.5398 17.663C12.5398 17.687 12.5368 17.709 12.5358 17.736C12.5358 17.746 12.5358 17.758 12.5328 17.769V17.778C12.4922 18.314 12.3205 18.8319 12.0328 19.2859C11.7451 19.74 11.3502 20.1164 10.8828 20.382C10.3953 20.6594 9.84378 20.8048 9.28283 20.804C7.48283 20.804 6.02283 19.336 6.02283 17.523C6.02283 15.709 7.48283 14.241 9.28283 14.241C9.62383 14.241 9.96283 14.295 10.2868 14.401L10.2918 10.465C9.30784 10.338 8.30822 10.4165 7.35607 10.6953C6.40391 10.9741 5.5199 11.4473 4.75983 12.085C4.09368 12.6635 3.53362 13.3539 3.10483 14.125C2.94183 14.406 2.32583 15.537 2.25183 17.371C2.20483 18.411 2.51783 19.491 2.66683 19.936V19.946C2.75983 20.208 3.12383 21.104 3.71583 21.859C4.19323 22.465 4.75728 22.9974 5.38983 23.439V23.429L5.39883 23.439C7.26883 24.709 9.34383 24.626 9.34383 24.626C9.70283 24.611 10.9058 24.626 12.2718 23.979C13.7868 23.261 14.6488 22.192 14.6488 22.192C15.1999 21.5531 15.6382 20.825 15.9448 20.039C16.2948 19.119 16.4108 18.017 16.4108 17.577V9.648C16.4578 9.676 17.0828 10.089 17.0828 10.089C17.0828 10.089 17.9828 10.666 19.3858 11.041C20.3918 11.308 21.7488 11.365 21.7488 11.365V7.528C21.2738 7.58 20.3088 7.43 19.3198 6.938" fill="#6A4F83"/>
</svg>
