<svg width="16" height="16" viewBox="0 0 16 16" fill="none" xmlns="http://www.w3.org/2000/svg">
<path opacity="0.2" d="M12.1762 9.4644L8.94747 10.6519C8.88024 10.6765 8.81919 10.7155 8.76856 10.7661C8.71794 10.8167 8.67896 10.8778 8.65434 10.945L7.46684 14.1738C7.4318 14.2687 7.3685 14.3506 7.28547 14.4085C7.20244 14.4663 7.10367 14.4974 7.00247 14.4974C6.90127 14.4974 6.8025 14.4663 6.71947 14.4085C6.63644 14.3506 6.57314 14.2687 6.53809 14.1738L5.35059 10.945C5.32598 10.8778 5.287 10.8167 5.23637 10.7661C5.18575 10.7155 5.1247 10.6765 5.05747 10.6519L1.82872 9.4644C1.73378 9.42936 1.65186 9.36606 1.594 9.28303C1.53615 9.2 1.50513 9.10123 1.50513 9.00003C1.50513 8.89883 1.53615 8.80006 1.594 8.71703C1.65186 8.634 1.73378 8.5707 1.82872 8.53565L5.05747 7.34815C5.1247 7.32353 5.18575 7.28456 5.23637 7.23393C5.287 7.18331 5.32598 7.12226 5.35059 7.05503L6.53809 3.82628C6.57314 3.73134 6.63644 3.64942 6.71947 3.59156C6.8025 3.5337 6.90127 3.50269 7.00247 3.50269C7.10367 3.50269 7.20244 3.5337 7.28547 3.59156C7.3685 3.64942 7.4318 3.73134 7.46684 3.82628L8.65434 7.05503C8.67896 7.12226 8.71794 7.18331 8.76856 7.23393C8.81919 7.28456 8.88024 7.32353 8.94747 7.34815L12.1762 8.53565C12.2712 8.5707 12.3531 8.634 12.4109 8.71703C12.4688 8.80006 12.4998 8.89883 12.4998 9.00003C12.4998 9.10123 12.4688 9.2 12.4109 9.28303C12.3531 9.36606 12.2712 9.42936 12.1762 9.4644Z" fill="#6A4F83"/>
<path d="M12.3488 8.06625L9.12317 6.87875L7.93567 3.65062C7.86534 3.45958 7.73811 3.2947 7.57114 3.17824C7.40417 3.06178 7.20549 2.99933 7.00192 2.99933C6.79834 2.99933 6.59966 3.06178 6.43269 3.17824C6.26572 3.2947 6.13849 3.45958 6.06817 3.65062L4.87942 6.875L1.65129 8.0625C1.46025 8.13282 1.29537 8.26005 1.17891 8.42702C1.06244 8.594 1 8.79267 1 8.99625C1 9.19983 1.06244 9.3985 1.17891 9.56548C1.29537 9.73245 1.46025 9.85968 1.65129 9.93L4.87504 11.125L6.06254 14.3512C6.13286 14.5423 6.26009 14.7072 6.42707 14.8236C6.59404 14.9401 6.79272 15.0025 6.99629 15.0025C7.19987 15.0025 7.39854 14.9401 7.56552 14.8236C7.73249 14.7072 7.85972 14.5423 7.93004 14.3512L9.11754 11.1256L12.3457 9.93812C12.5367 9.8678 12.7016 9.74057 12.8181 9.5736C12.9345 9.40663 12.997 9.20795 12.997 9.00438C12.997 8.8008 12.9345 8.60212 12.8181 8.43515C12.7016 8.26818 12.5367 8.14095 12.3457 8.07063L12.3488 8.06625ZM8.77442 10.1875C8.6393 10.2371 8.51659 10.3155 8.41482 10.4173C8.31304 10.519 8.23463 10.6418 8.18504 10.7769L6.99754 13.9931L5.81254 10.7744C5.76291 10.64 5.68475 10.5179 5.58344 10.4166C5.48213 10.3153 5.36007 10.2371 5.22567 10.1875L2.00942 9L5.22567 7.8125C5.36007 7.76287 5.48213 7.68471 5.58344 7.5834C5.68475 7.48209 5.76291 7.36003 5.81254 7.22563L7.00004 4.00938L8.18754 7.22563C8.23713 7.36074 8.31554 7.48345 8.41732 7.58523C8.51909 7.687 8.6418 7.76541 8.77692 7.815L11.9932 9.0025L8.77442 10.1875ZM9.00004 2.5C9.00004 2.36739 9.05272 2.24021 9.14649 2.14645C9.24026 2.05268 9.36743 2 9.50004 2H10.5V1C10.5 0.867392 10.5527 0.740215 10.6465 0.646447C10.7403 0.552678 10.8674 0.5 11 0.5C11.1326 0.5 11.2598 0.552678 11.3536 0.646447C11.4474 0.740215 11.5 0.867392 11.5 1V2H12.5C12.6326 2 12.7598 2.05268 12.8536 2.14645C12.9474 2.24021 13 2.36739 13 2.5C13 2.63261 12.9474 2.75979 12.8536 2.85355C12.7598 2.94732 12.6326 3 12.5 3H11.5V4C11.5 4.13261 11.4474 4.25979 11.3536 4.35355C11.2598 4.44732 11.1326 4.5 11 4.5C10.8674 4.5 10.7403 4.44732 10.6465 4.35355C10.5527 4.25979 10.5 4.13261 10.5 4V3H9.50004C9.36743 3 9.24026 2.94732 9.14649 2.85355C9.05272 2.75979 9.00004 2.63261 9.00004 2.5ZM15.5 5.5C15.5 5.63261 15.4474 5.75979 15.3536 5.85355C15.2598 5.94732 15.1326 6 15 6H14.5V6.5C14.5 6.63261 14.4474 6.75979 14.3536 6.85355C14.2598 6.94732 14.1326 7 14 7C13.8674 7 13.7403 6.94732 13.6465 6.85355C13.5527 6.75979 13.5 6.63261 13.5 6.5V6H13C12.8674 6 12.7403 5.94732 12.6465 5.85355C12.5527 5.75979 12.5 5.63261 12.5 5.5C12.5 5.36739 12.5527 5.24021 12.6465 5.14645C12.7403 5.05268 12.8674 5 13 5H13.5V4.5C13.5 4.36739 13.5527 4.24021 13.6465 4.14645C13.7403 4.05268 13.8674 4 14 4C14.1326 4 14.2598 4.05268 14.3536 4.14645C14.4474 4.24021 14.5 4.36739 14.5 4.5V5H15C15.1326 5 15.2598 5.05268 15.3536 5.14645C15.4474 5.24021 15.5 5.36739 15.5 5.5Z" fill="#6A4F83"/>
</svg>
