<svg width="26" height="26" viewBox="0 0 26 26" fill="none" xmlns="http://www.w3.org/2000/svg">
<path d="M21.2982 4.32251C18.4382 2.37251 14.9066 3.28251 12.9999 5.51417C11.0932 3.28251 7.56157 2.36167 4.70157 4.32251C3.18491 5.36251 2.23157 7.11751 2.16657 8.97001C2.01491 13.1733 5.74157 16.5425 11.4291 21.71L11.5374 21.8075C12.3607 22.555 13.6282 22.555 14.4516 21.7967L14.5707 21.6883C20.2582 16.5317 23.9741 13.1625 23.8332 8.95917C23.7682 7.11751 22.8149 5.36251 21.2982 4.32251ZM13.1082 20.0958L12.9999 20.2042L12.8916 20.0958C7.7349 15.4267 4.33324 12.3392 4.33324 9.20834C4.33324 7.04167 5.95824 5.41667 8.12491 5.41667C9.79324 5.41667 11.4182 6.48917 11.9924 7.97334H14.0182C14.5816 6.48917 16.2066 5.41667 17.8749 5.41667C20.0416 5.41667 21.6666 7.04167 21.6666 9.20834C21.6666 12.3392 18.2649 15.4267 13.1082 20.0958Z" fill="white"/>
</svg>
