<svg width="15" height="15" viewBox="0 0 15 15" fill="none" xmlns="http://www.w3.org/2000/svg">
<path d="M8.32901 1.96502C8.10004 1.71788 7.78946 1.57899 7.46559 1.57892H3.08623C2.76234 1.57892 2.45171 1.71775 2.22268 1.96488C1.99366 2.212 1.86499 2.54717 1.86499 2.89666V7.62208C1.86506 7.97153 1.99377 8.30665 2.22281 8.55372L7.10777 13.8247C7.33679 14.0717 7.64736 14.2105 7.97119 14.2105C8.29502 14.2105 8.60559 14.0717 8.8346 13.8247L13.214 9.09926C13.4429 8.85215 13.5715 8.51704 13.5715 8.16762C13.5715 7.8182 13.4429 7.48309 13.214 7.23598L8.32901 1.96502ZM4.91809 6.19101C4.59411 6.19092 4.28344 6.05197 4.05442 5.80472C3.82539 5.55748 3.69677 5.22218 3.69685 4.87261C3.69693 4.52304 3.82571 4.18782 4.05485 3.94069C4.28399 3.69357 4.59473 3.55478 4.9187 3.55487C5.24267 3.55496 5.55334 3.69391 5.78237 3.94116C6.0114 4.1884 6.14002 4.5237 6.13994 4.87327C6.13986 5.22284 6.01108 5.55807 5.78194 5.80519C5.5528 6.05231 5.24206 6.1911 4.91809 6.19101Z" fill="#05101C"/>
</svg>
