<svg width="375" height="449" viewBox="0 0 375 449" fill="none" xmlns="http://www.w3.org/2000/svg">
<path d="M183.774 319.814C180.255 320.256 177.429 325.196 176.923 329.305C176.776 330.486 176.702 331.675 176.701 332.865C176.709 336.758 177.515 340.46 179.033 344.251C180.546 347.96 182.772 351.758 185.493 353.937C188.213 351.758 190.439 347.96 191.952 344.251C193.471 340.46 194.276 336.758 194.285 332.865C194.285 331.677 194.209 330.497 194.063 329.304C193.557 325.196 190.731 320.256 187.211 319.813C186.069 319.687 184.917 319.687 183.774 319.814Z" stroke="#30233D" stroke-width="2.25" stroke-miterlimit="10" stroke-linecap="round" stroke-linejoin="round"/>
<path d="M183.774 319.814C180.255 320.256 177.429 325.196 176.923 329.305C176.776 330.486 176.702 331.675 176.701 332.865C176.709 336.758 177.515 340.46 179.033 344.251C180.546 347.96 182.772 351.758 185.493 353.937C188.213 351.758 190.439 347.96 191.952 344.251C193.471 340.46 194.276 336.758 194.285 332.865C194.285 331.677 194.209 330.497 194.063 329.304C193.557 325.196 190.731 320.256 187.211 319.813C186.069 319.687 184.917 319.687 183.774 319.814Z" fill="#8969A6"/>
<path d="M201.213 343.325C201.198 350.315 199.758 356.964 197.043 363.77C196.95 364.003 196.852 364.235 196.755 364.468C194.058 370.903 190.188 377.383 185.493 381.159C180.66 377.274 176.703 370.528 174 363.913C173.978 363.866 173.958 363.818 173.94 363.77C171.225 356.964 169.785 350.315 169.77 343.325C169.77 341.192 169.905 339.073 170.167 336.932C171.063 329.638 176.01 320.889 182.205 319.925C182.276 319.91 182.347 319.899 182.418 319.892C184.377 319.673 186.353 319.664 188.313 319.865C188.396 319.873 188.482 319.88 188.565 319.892C194.857 320.683 199.912 329.555 200.816 336.932C201.078 339.073 201.213 341.192 201.213 343.325Z" fill="#D2BDE5"/>
<path d="M201.213 343.325C201.198 350.315 199.758 356.964 197.043 363.77C196.95 364.003 196.852 364.235 196.755 364.468C194.058 370.903 190.188 377.383 185.493 381.159C180.66 377.274 176.703 370.528 174 363.913C173.978 363.866 173.958 363.818 173.94 363.77C171.225 356.964 169.785 350.315 169.77 343.325C169.77 341.192 169.905 339.073 170.167 336.932C171.063 329.638 176.01 320.889 182.205 319.925C182.276 319.91 182.347 319.899 182.418 319.892C184.377 319.673 186.353 319.664 188.313 319.865C188.396 319.873 188.482 319.88 188.565 319.892C194.857 320.683 199.912 329.555 200.816 336.932C201.078 339.073 201.213 341.192 201.213 343.325Z" stroke="#30233D" stroke-width="2.25" stroke-miterlimit="10" stroke-linecap="round" stroke-linejoin="round"/>
<path d="M0 -1H375V449H0V-1Z" fill="#442D59"/>
<path d="M375 381.967C369.284 383.648 364.636 387.822 362.316 393.233C357.805 391.62 352.946 390.739 347.88 390.739C332.879 390.739 319.679 398.446 312.02 410.116C307.927 408.2 303.464 407.209 298.945 407.214C296.901 407.214 294.905 407.418 292.971 407.797C292.976 407.602 292.985 407.409 292.985 407.214C292.985 397.658 286.252 389.677 277.273 387.748C273.838 375.924 262.932 367.278 250 367.278C239.241 367.278 229.881 373.261 225.06 382.08C221.734 378.955 217.264 377.034 212.341 377.034C209.528 377.034 206.866 377.656 204.477 378.774C201.521 374.221 198.939 369.437 196.756 364.467C191.277 352.01 188.236 338.236 188.236 323.75C188.236 322.449 188.262 321.155 188.314 319.865C188.943 303.102 193.652 287.383 201.472 273.669H169.042C176.872 287.4 181.583 303.139 182.206 319.925C182.255 321.192 182.277 322.467 182.277 323.75C182.277 338.019 179.326 351.597 174.001 363.912C170.545 371.892 166.076 379.394 160.703 386.232C156.169 380.622 149.228 377.034 141.451 377.034C133.658 377.034 126.71 380.635 122.173 386.263C118.431 384.048 114.16 382.881 109.81 382.886C102.519 382.886 95.9809 386.099 91.5221 391.18C84.9352 381.387 73.7505 374.943 61.0605 374.943C40.8 374.943 24.3757 391.367 24.3757 411.628C24.3757 411.735 24.3787 411.842 24.3799 411.949C10.6327 418.89 0.997852 432.778 0.0791016 449H375V381.967Z" fill="white"/>
<path d="M140.259 262.554L128.035 267.298V244.07L165.582 214.797V258.707L156.517 263.47C151.658 260.929 145.772 260.415 140.259 262.554Z" fill="#8969A6"/>
<path d="M124.043 273.395C120.228 267.852 118.011 261.298 118.004 254.266C117.994 245.387 121.498 237.256 127.313 230.964C133.142 237.243 136.663 245.367 136.672 254.246C136.68 261.277 134.477 267.836 130.675 273.388L124.043 273.395Z" fill="#8969A6"/>
<path opacity="0.72" d="M128.035 267.298L140.201 262.577C140.337 259.29 140.112 255.999 139.528 252.762C138.654 247.919 136.991 243.252 134.605 238.948L128.035 244.07V267.298Z" fill="#4C3760"/>
<path opacity="0.23" d="M129.589 250.602L165.582 222.539V214.797L128.035 244.071V267.299L129.589 266.696V250.602Z" fill="#C0A5DB"/>
<path opacity="0.72" d="M150.654 261.494C152.7 261.842 154.678 262.509 156.517 263.47L165.582 258.708V214.797L149.774 227.122C149.004 231.876 148.595 236.859 148.595 241.994C148.595 248.824 149.321 255.383 150.654 261.494Z" fill="#4C3760"/>
<path d="M140.259 262.554L128.035 267.298V244.07L165.582 214.797V258.707L156.517 263.47C151.658 260.929 145.772 260.415 140.259 262.554Z" stroke="#30233D" stroke-width="2.25" stroke-miterlimit="10" stroke-linecap="round" stroke-linejoin="round"/>
<path d="M124.043 273.395C120.228 267.852 118.011 261.298 118.004 254.266C117.994 245.387 121.498 237.256 127.313 230.964C133.142 237.243 136.663 245.367 136.672 254.246C136.68 261.277 134.477 267.836 130.675 273.388L124.043 273.395Z" fill="#8969A6"/>
<path opacity="0.23" d="M126.761 230.964C127.216 231.46 127.658 231.968 128.086 232.488C124.171 238.507 121.918 245.533 121.91 253.042C121.902 260.464 123.04 267.414 126.859 273.393L123.399 273.388C119.596 267.836 117.394 261.278 117.401 254.246C117.411 245.367 120.932 237.243 126.761 230.964Z" fill="#C0A5DB"/>
<path opacity="0.32" d="M126.761 230.964C126.916 231.132 127.063 231.307 127.215 231.477C122.833 237.948 120.298 245.574 120.29 253.743C120.282 260.833 122.188 267.512 125.546 273.391L123.399 273.388C119.596 267.836 117.394 261.278 117.401 254.246C117.411 245.367 120.932 237.243 126.761 230.964Z" fill="#C0A5DB"/>
<path opacity="0.37" d="M136.672 254.246C136.663 245.367 133.142 237.243 127.313 230.964C126.858 231.46 126.416 231.968 125.988 232.488C129.903 238.507 132.156 245.533 132.164 253.042C132.172 260.464 129.979 267.414 126.161 273.393L130.675 273.388C134.478 267.836 136.68 261.277 136.672 254.246Z" fill="#4C3760"/>
<path opacity="0.72" d="M136.671 254.246C136.661 245.367 133.141 237.243 127.312 230.964C127.157 231.132 127.01 231.307 126.857 231.477C131.24 237.948 133.774 245.574 133.783 253.743C133.791 260.833 131.885 267.512 128.526 273.391L130.674 273.388C134.476 267.836 136.679 261.277 136.671 254.246Z" fill="#4C3760"/>
<path opacity="0.37" d="M127.313 230.964C126.858 231.46 126.416 231.968 125.988 232.488C129.903 238.507 132.156 245.533 132.164 253.042C132.172 260.464 129.979 267.414 126.161 273.393L130.675 273.388C134.478 267.836 136.68 261.278 136.672 254.246C136.663 245.367 133.142 237.243 127.313 230.964Z" fill="#4C3760"/>
<path opacity="0.72" d="M127.312 230.964C127.157 231.132 127.01 231.307 126.857 231.477C131.24 237.948 133.774 245.574 133.783 253.743C133.791 260.833 131.885 267.512 128.526 273.391L130.674 273.388C134.476 267.836 136.679 261.278 136.671 254.246C136.662 245.367 133.141 237.243 127.312 230.964Z" fill="#4C3760"/>
<path d="M131.583 237.736C130.199 235.295 128.535 233.023 126.624 230.967C124.718 233.027 123.059 235.302 121.68 237.747L131.583 237.736Z" fill="#30233D"/>
<path d="M124.043 273.395C120.228 267.852 118.011 261.298 118.004 254.266C117.994 245.387 121.498 237.256 127.313 230.964C133.142 237.243 136.663 245.367 136.672 254.246C136.68 261.277 134.477 267.836 130.675 273.388L124.043 273.395Z" stroke="#30233D" stroke-width="2.25" stroke-miterlimit="10" stroke-linecap="round" stroke-linejoin="round"/>
<path d="M172.754 302.329C172.754 302.329 168.201 303.311 161.691 309.821C159.315 312.196 155.599 317.002 152.881 320.64C151.752 322.152 149.35 321.384 149.307 319.497L148.414 279.568C148.324 279.012 148.352 278.443 148.496 277.897C148.64 277.352 148.897 276.844 149.25 276.404L159.057 264.186L172.754 302.329Z" fill="#8969A6"/>
<path opacity="0.32" d="M149.255 320.287C150.295 320.14 151.248 319.624 151.941 318.834C152.634 318.045 153.022 317.033 153.033 315.982L153.437 278.853C153.347 278.297 153.375 277.727 153.519 277.182C153.663 276.637 153.92 276.128 154.273 275.689L160.432 268.016L159.057 264.187L149.25 276.404C148.897 276.844 148.64 277.353 148.496 277.898C148.352 278.443 148.324 279.012 148.414 279.569L149.255 320.287Z" fill="#C0A5DB"/>
<path opacity="0.72" d="M172.755 302.33L159.057 264.187L153.607 270.977C156.526 282.239 161.138 293.662 167.362 305.05C170.692 302.777 172.755 302.33 172.755 302.33Z" fill="#4C3760"/>
<path d="M172.754 302.329C172.754 302.329 168.201 303.311 161.691 309.821C159.315 312.196 155.599 317.002 152.881 320.64C151.752 322.152 149.35 321.384 149.307 319.497L148.414 279.568C148.324 279.012 148.352 278.443 148.496 277.897C148.64 277.352 148.897 276.844 149.25 276.404L159.057 264.186L172.754 302.329Z" stroke="#30233D" stroke-width="2.25" stroke-miterlimit="10" stroke-linecap="round" stroke-linejoin="round"/>
<path d="M120.504 268.437L132.826 268.424" stroke="#30233D" stroke-width="1.5" stroke-miterlimit="10" stroke-linecap="round" stroke-linejoin="round"/>
<path d="M124.043 273.395C120.228 267.852 118.011 261.298 118.004 254.266C117.994 245.387 121.498 237.256 127.313 230.964C133.142 237.243 136.663 245.367 136.672 254.246C136.68 261.277 134.477 267.836 130.675 273.388L124.043 273.395Z" fill="#8969A6"/>
<path d="M124.043 273.395C120.228 267.852 118.011 261.298 118.004 254.266C117.994 245.387 121.498 237.256 127.313 230.964C133.142 237.243 136.663 245.367 136.672 254.246C136.68 261.277 134.477 267.836 130.675 273.388L124.043 273.395Z" fill="#8969A6"/>
<path opacity="0.23" d="M126.761 230.964C127.216 231.46 127.658 231.968 128.086 232.488C124.171 238.507 121.918 245.533 121.91 253.042C121.902 260.464 123.04 267.414 126.859 273.393L123.399 273.388C119.596 267.836 117.394 261.278 117.401 254.246C117.411 245.367 120.932 237.243 126.761 230.964Z" fill="#C0A5DB"/>
<path opacity="0.32" d="M126.761 230.964C126.916 231.132 127.063 231.307 127.215 231.477C122.833 237.948 120.298 245.574 120.29 253.743C120.282 260.833 122.188 267.512 125.546 273.391L123.399 273.388C119.596 267.836 117.394 261.278 117.401 254.246C117.411 245.367 120.932 237.243 126.761 230.964Z" fill="#C0A5DB"/>
<path opacity="0.37" d="M136.672 254.246C136.663 245.367 133.142 237.243 127.313 230.964C126.858 231.46 126.416 231.968 125.988 232.488C129.903 238.507 132.156 245.533 132.164 253.042C132.172 260.464 129.979 267.414 126.161 273.393L130.675 273.388C134.478 267.836 136.68 261.277 136.672 254.246Z" fill="#4C3760"/>
<path opacity="0.72" d="M136.671 254.246C136.661 245.367 133.141 237.243 127.312 230.964C127.157 231.132 127.01 231.307 126.857 231.477C131.24 237.948 133.774 245.574 133.783 253.743C133.791 260.833 131.885 267.512 128.526 273.391L130.674 273.388C134.476 267.836 136.679 261.277 136.671 254.246Z" fill="#4C3760"/>
<path opacity="0.37" d="M127.313 230.964C126.858 231.46 126.416 231.968 125.988 232.488C129.903 238.507 132.156 245.533 132.164 253.042C132.172 260.464 129.979 267.414 126.161 273.393L130.675 273.388C134.478 267.836 136.68 261.278 136.672 254.246C136.663 245.367 133.142 237.243 127.313 230.964Z" fill="#4C3760"/>
<path opacity="0.72" d="M127.312 230.964C127.157 231.132 127.01 231.307 126.857 231.477C131.24 237.948 133.774 245.574 133.783 253.743C133.791 260.833 131.885 267.512 128.526 273.391L130.674 273.388C134.476 267.836 136.679 261.278 136.671 254.246C136.662 245.367 133.141 237.243 127.312 230.964Z" fill="#4C3760"/>
<path d="M132.272 237.733C130.887 235.292 129.223 233.02 127.313 230.964C125.406 233.024 123.747 235.3 122.368 237.744L132.272 237.733Z" fill="#30233D"/>
<path d="M124.043 273.395C120.228 267.852 118.011 261.298 118.004 254.266C117.994 245.387 121.498 237.256 127.313 230.964C133.142 237.243 136.663 245.367 136.672 254.246C136.68 261.277 134.477 267.836 130.675 273.388L124.043 273.395Z" stroke="#30233D" stroke-width="2.25" stroke-miterlimit="10" stroke-linecap="round" stroke-linejoin="round"/>
<path d="M120.504 268.437L132.826 268.424" stroke="#30233D" stroke-width="1.5" stroke-miterlimit="10" stroke-linecap="round" stroke-linejoin="round"/>
<path d="M228.576 262.554L240.8 267.298V244.07L203.253 214.797V258.707L212.318 263.47C217.177 260.929 223.063 260.415 228.576 262.554Z" fill="#8969A6"/>
<path opacity="0.72" d="M240.8 267.298L228.634 262.577C228.498 259.29 228.724 255.999 229.307 252.762C230.181 247.919 231.844 243.252 234.231 238.948L240.8 244.07V267.298Z" fill="#4C3760"/>
<path opacity="0.23" d="M239.246 250.602L203.253 222.539V214.797L240.8 244.071V267.299L239.246 266.696V250.602Z" fill="#C0A5DB"/>
<path opacity="0.72" d="M218.181 261.494C216.135 261.842 214.157 262.509 212.318 263.47L203.253 258.708V214.797L219.061 227.122C219.831 231.876 220.24 236.859 220.24 241.994C220.24 248.824 219.514 255.383 218.181 261.494Z" fill="#4C3760"/>
<path d="M228.576 262.554L240.8 267.298V244.07L203.253 214.797V258.707L212.318 263.47C217.177 260.929 223.063 260.415 228.576 262.554Z" stroke="#30233D" stroke-width="2.25" stroke-miterlimit="10" stroke-linecap="round" stroke-linejoin="round"/>
<path d="M196.081 302.329C196.081 302.329 200.635 303.311 207.145 309.821C209.52 312.196 213.237 317.002 215.954 320.64C217.083 322.152 219.486 321.384 219.528 319.497L220.422 279.568C220.511 279.012 220.483 278.443 220.339 277.897C220.195 277.352 219.939 276.844 219.586 276.404L209.779 264.186L196.081 302.329Z" fill="#8969A6"/>
<path opacity="0.72" d="M219.58 320.287C218.54 320.14 217.587 319.624 216.894 318.834C216.201 318.045 215.814 317.033 215.802 315.982L215.398 278.853C215.488 278.297 215.46 277.727 215.316 277.182C215.172 276.637 214.915 276.128 214.562 275.689L208.403 268.016L209.778 264.187L219.585 276.404C219.938 276.844 220.195 277.353 220.339 277.898C220.483 278.443 220.511 279.012 220.421 279.569L219.58 320.287Z" fill="#4C3760"/>
<path opacity="0.72" d="M196.081 302.33L209.779 264.187L215.229 270.977C212.31 282.239 207.698 293.662 201.474 305.05C198.144 302.777 196.081 302.33 196.081 302.33Z" fill="#4C3760"/>
<path d="M196.081 302.329C196.081 302.329 200.635 303.311 207.145 309.821C209.52 312.196 213.237 317.002 215.954 320.64C217.083 322.152 219.486 321.384 219.528 319.497L220.422 279.568C220.511 279.012 220.483 278.443 220.339 277.897C220.195 277.352 219.939 276.844 219.586 276.404L209.779 264.186L196.081 302.329Z" stroke="#30233D" stroke-width="2.25" stroke-miterlimit="10" stroke-linecap="round" stroke-linejoin="round"/>
<path d="M195.9 323.806C196.33 319.352 195.71 315.149 188.219 304.063C186.969 302.282 184.014 302.282 182.764 304.063C175.273 315.15 174.653 319.353 175.084 323.806C175.165 324.372 176.187 324.992 176.815 324.766C181.132 322.562 189.852 322.562 194.169 324.766C194.797 324.992 195.819 324.372 195.9 323.806Z" fill="#8969A6"/>
<g opacity="0.32">
<path d="M178.886 323.806C178.456 319.352 179.075 315.149 186.567 304.063C186.789 303.749 187.07 303.481 187.394 303.273C185.956 302.342 183.789 302.604 182.765 304.063C175.274 315.15 174.654 319.353 175.085 323.806C175.166 324.372 176.188 324.991 176.816 324.766C177.437 324.448 178.152 324.178 178.929 323.953C178.909 323.906 178.894 323.856 178.886 323.806ZM187.393 323.176C189.982 323.35 192.432 323.879 194.17 324.766C194.743 324.972 195.644 324.472 195.857 323.953C193.406 323.241 190.313 322.981 187.393 323.176Z" fill="#C0A5DB"/>
</g>
<path d="M184.105 304.063C184.005 303.923 183.892 303.792 183.769 303.671C185.15 302.298 187.737 302.425 188.887 304.063C196.378 315.149 196.997 319.352 196.567 323.805C196.486 324.371 195.464 324.991 194.836 324.765C193.975 324.326 192.936 323.975 191.794 323.711C192.206 319.292 191.543 315.071 184.105 304.063Z" fill="#4C3760"/>
<path d="M195.9 323.806C196.33 319.352 195.71 315.149 188.219 304.063C186.969 302.282 184.014 302.282 182.764 304.063C175.273 315.15 174.653 319.353 175.084 323.806C175.165 324.372 176.187 324.992 176.815 324.766C181.132 322.562 189.852 322.562 194.169 324.766C194.797 324.992 195.819 324.372 195.9 323.806Z" stroke="#30233D" stroke-width="2.25" stroke-miterlimit="10" stroke-linecap="round" stroke-linejoin="round"/>
<path d="M193.946 310.334C211.598 281.414 218.029 253.022 214.063 229.363C210.616 208.804 199.531 193.993 185.492 184.748C171.454 193.993 160.369 208.804 156.922 229.363C152.956 253.022 159.387 281.414 177.039 310.334H193.946Z" fill="#8969A6"/>
<path opacity="0.23" d="M170.34 229.762C172.577 211.159 178.45 196.374 186.319 185.307C186.043 185.12 185.769 184.931 185.491 184.748C171.453 193.993 160.368 208.804 156.921 229.363C152.955 253.022 159.386 281.414 177.038 310.335H180.607C170.76 281.461 167.467 253.656 170.34 229.762Z" fill="#C0A5DB"/>
<path opacity="0.37" d="M214.062 229.364C210.64 208.957 199.692 194.216 185.801 184.957C189.284 190.572 192.183 196.529 194.454 202.735C199.506 216.557 200.076 227.98 200.375 235.126C201.724 267.344 189.403 302.966 186.784 310.335H193.946C211.598 281.415 218.029 253.023 214.062 229.364Z" fill="#4C3760"/>
<path opacity="0.72" d="M214.062 229.363C210.615 208.804 199.53 193.993 185.492 184.748C185.132 184.986 184.774 185.228 184.418 185.474C189.759 189.65 193.791 194.084 196.875 198.375C224.466 236.774 197.996 294.278 194.375 301.875C194.188 295.54 193.266 289.247 191.625 283.125C190.523 279.02 189.103 275.008 187.375 271.125L185.705 309.257H190.371C190.25 309.616 190.133 309.975 190.01 310.335H193.946C211.598 281.414 218.029 253.022 214.062 229.363Z" fill="#4C3760"/>
<path opacity="0.32" d="M161.625 235.875C162.156 229.864 164.092 210.387 176.125 194.375C178.026 191.845 180.894 188.45 180.667 188.247C180.346 187.961 173.744 193.908 169.04 200.252C163.16 208.182 158.848 217.874 156.922 229.363C152.956 253.022 159.387 281.414 177.039 310.334H178.564C173.721 300.694 170.521 292.013 168.375 285.125C166.94 280.519 164.432 272.349 162.875 261.375C161.833 254.028 160.717 246.164 161.625 235.875Z" fill="#C0A5DB"/>
<path opacity="0.72" d="M187.5 243.586C193.124 243.586 197.683 239.027 197.683 233.403C197.683 227.78 193.124 223.221 187.5 223.221C181.876 223.221 177.317 227.78 177.317 233.403C177.317 239.027 181.876 243.586 187.5 243.586Z" fill="#4C3760" stroke="#4C3760" stroke-width="2.25" stroke-miterlimit="10" stroke-linecap="round" stroke-linejoin="round"/>
<path d="M193.946 310.334C211.598 281.414 218.029 253.022 214.063 229.363C210.616 208.804 199.531 193.993 185.492 184.748C171.454 193.993 160.369 208.804 156.922 229.363C152.956 253.022 159.387 281.414 177.039 310.334H193.946Z" stroke="#30233D" stroke-width="2.25" stroke-miterlimit="10" stroke-linecap="round" stroke-linejoin="round"/>
<path d="M185.492 242.032C191.116 242.032 195.675 237.474 195.675 231.85C195.675 226.226 191.116 221.667 185.492 221.667C179.869 221.667 175.31 226.226 175.31 231.85C175.31 237.474 179.869 242.032 185.492 242.032Z" fill="#C1ABD8"/>
<path opacity="0.93" d="M184.086 237.42C187.473 237.42 190.219 234.674 190.219 231.287C190.219 227.9 187.473 225.154 184.086 225.154C180.699 225.154 177.953 227.9 177.953 231.287C177.953 234.674 180.699 237.42 184.086 237.42Z" fill="#EBE8EE"/>
<path d="M185.492 242.032C191.116 242.032 195.675 237.474 195.675 231.85C195.675 226.226 191.116 221.667 185.492 221.667C179.869 221.667 175.31 226.226 175.31 231.85C175.31 237.474 179.869 242.032 185.492 242.032Z" stroke="#30233D" stroke-width="2.25" stroke-miterlimit="10" stroke-linecap="round" stroke-linejoin="round"/>
<path d="M171.062 197.669C180.429 194.432 190.614 194.452 199.968 197.724C195.741 192.588 190.832 188.264 185.492 184.748C180.173 188.252 175.278 192.556 171.062 197.669Z" fill="#30233D"/>
<path d="M171.062 197.669C180.429 194.432 190.614 194.452 199.968 197.724C195.741 192.588 190.832 188.264 185.492 184.748C180.173 188.252 175.278 192.556 171.062 197.669Z" stroke="#30233D" stroke-width="2.25" stroke-miterlimit="10" stroke-linecap="round" stroke-linejoin="round"/>
<path d="M185.493 327.876C185.903 327.876 186.245 327.416 186.282 326.815L189.111 280.904C189.403 276.163 187.912 271.773 185.705 270.753C185.639 270.721 185.566 270.705 185.493 270.705C185.419 270.705 185.346 270.721 185.28 270.753C183.073 271.773 181.582 276.163 181.874 280.904L184.703 326.815C184.74 327.416 185.083 327.876 185.493 327.876Z" fill="#BAA0D3"/>
<path opacity="0.74" d="M185.493 327.876C185.903 327.876 186.245 327.416 186.282 326.815L189.111 280.904C189.403 276.163 187.912 271.773 185.705 270.753C185.639 270.721 185.566 270.705 185.493 270.705C185.419 270.705 185.346 270.721 185.28 270.753C183.073 271.773 181.582 276.163 181.874 280.904L184.703 326.815C184.74 327.416 185.083 327.876 185.493 327.876Z" fill="#4C3760"/>
<g opacity="0.53">
<path d="M185.279 270.752C183.072 271.772 181.581 276.162 181.873 280.903L184.702 326.814C184.732 327.306 184.969 327.699 185.278 327.827V270.752H185.279ZM185.279 270.752H185.704C185.638 270.72 185.565 270.704 185.492 270.704C185.418 270.704 185.345 270.72 185.279 270.752Z" fill="#B199C8"/>
</g>
<path d="M185.493 327.876C185.903 327.876 186.245 327.416 186.282 326.815L189.111 280.904C189.403 276.163 187.912 271.773 185.705 270.753C185.639 270.721 185.566 270.705 185.493 270.705C185.419 270.705 185.346 270.721 185.28 270.753C183.073 271.773 181.582 276.163 181.874 280.904L184.703 326.815C184.74 327.416 185.083 327.876 185.493 327.876Z" stroke="#30233D" stroke-width="2.25" stroke-miterlimit="10" stroke-linecap="round" stroke-linejoin="round"/>
<path d="M240.528 273.395C236.714 267.852 234.497 261.298 234.489 254.266C234.48 245.387 237.983 237.256 243.798 230.964C249.627 237.243 253.148 245.367 253.158 254.246C253.165 261.277 250.963 267.836 247.16 273.388L240.528 273.395Z" fill="#8969A6"/>
<path d="M240.528 273.395C236.714 267.852 234.497 261.298 234.489 254.266C234.48 245.387 237.983 237.256 243.798 230.964C249.627 237.243 253.148 245.367 253.158 254.246C253.165 261.277 250.963 267.836 247.16 273.388L240.528 273.395Z" fill="#8969A6"/>
<path opacity="0.23" d="M243.246 230.964C243.701 231.46 244.143 231.968 244.571 232.488C240.657 238.507 238.404 245.533 238.395 253.042C238.387 260.464 239.526 267.414 243.344 273.393L239.884 273.388C236.082 267.836 233.879 261.278 233.887 254.246C233.896 245.367 237.417 237.243 243.246 230.964Z" fill="#C0A5DB"/>
<path opacity="0.32" d="M243.246 230.964C243.401 231.132 243.548 231.307 243.7 231.477C239.318 237.948 236.784 245.574 236.775 253.743C236.767 260.833 238.673 267.512 242.032 273.391L239.884 273.388C236.082 267.836 233.879 261.278 233.887 254.246C233.896 245.367 237.417 237.243 243.246 230.964Z" fill="#C0A5DB"/>
<path opacity="0.37" d="M253.157 254.246C253.147 245.367 249.626 237.243 243.798 230.964C243.342 231.46 242.9 231.968 242.473 232.488C246.387 238.507 248.64 245.533 248.648 253.042C248.656 260.464 246.463 267.414 242.645 273.393L247.159 273.388C250.962 267.836 253.164 261.277 253.157 254.246Z" fill="#4C3760"/>
<path opacity="0.72" d="M253.157 254.246C253.148 245.367 249.627 237.243 243.798 230.964C243.643 231.132 243.496 231.307 243.344 231.477C247.726 237.948 250.261 245.574 250.269 253.743C250.277 260.833 248.371 267.512 245.013 273.391L247.16 273.388C250.962 267.836 253.165 261.277 253.157 254.246Z" fill="#4C3760"/>
<path opacity="0.37" d="M243.798 230.964C243.342 231.46 242.9 231.968 242.473 232.488C246.387 238.507 248.64 245.533 248.648 253.042C248.656 260.464 246.463 267.414 242.645 273.393L247.159 273.388C250.962 267.836 253.165 261.278 253.157 254.246C253.147 245.367 249.626 237.243 243.798 230.964Z" fill="#4C3760"/>
<path opacity="0.72" d="M243.798 230.964C243.643 231.132 243.496 231.307 243.344 231.477C247.726 237.948 250.261 245.574 250.269 253.743C250.277 260.833 248.371 267.512 245.013 273.391L247.16 273.388C250.963 267.836 253.165 261.278 253.157 254.246C253.148 245.367 249.627 237.243 243.798 230.964Z" fill="#4C3760"/>
<path d="M248.758 237.733C247.373 235.292 245.709 233.02 243.799 230.964C241.893 233.024 240.233 235.3 238.854 237.744L248.758 237.733Z" fill="#30233D"/>
<path d="M240.528 273.395C236.714 267.852 234.497 261.298 234.489 254.266C234.48 245.387 237.983 237.256 243.798 230.964C249.627 237.243 253.148 245.367 253.158 254.246C253.165 261.277 250.963 267.836 247.16 273.388L240.528 273.395Z" stroke="#30233D" stroke-width="2.25" stroke-miterlimit="10" stroke-linecap="round" stroke-linejoin="round"/>
<path d="M237.678 268.435L249.999 268.422" stroke="#30233D" stroke-width="1.5" stroke-miterlimit="10" stroke-linecap="round" stroke-linejoin="round"/>
<path opacity="0.41" d="M173.906 196.391C173.906 196.391 176.437 192.375 185.125 185.625C181.125 191.062 180.344 194.469 180.063 194.75C177.514 195.238 173.906 196.391 173.906 196.391Z" fill="white"/>
</svg>
